<?xml version="1.0" encoding="utf-8" standalone="no"?>
<!DOCTYPE svg PUBLIC "-//W3C//DTD SVG 1.1//EN"
  "http://www.w3.org/Graphics/SVG/1.1/DTD/svg11.dtd">
<!-- Created with matplotlib (https://matplotlib.org/) -->
<svg height="345.6pt" version="1.1" viewBox="0 0 460.8 345.6" width="460.8pt" xmlns="http://www.w3.org/2000/svg" xmlns:xlink="http://www.w3.org/1999/xlink">
 <defs>
  <style type="text/css">
*{stroke-linecap:butt;stroke-linejoin:round;}
  </style>
 </defs>
 <g id="figure_1">
  <g id="patch_1">
   <path d="M 0 345.6 
L 460.8 345.6 
L 460.8 0 
L 0 0 
z
" style="fill:#ffffff;"/>
  </g>
  <g id="axes_1">
   <g id="patch_2">
    <path d="M 57.6 307.584 
L 414.72 307.584 
L 414.72 41.472 
L 57.6 41.472 
z
" style="fill:#ffffff;"/>
   </g>
   <g id="matplotlib.axis_1">
    <g id="xtick_1">
     <g id="line2d_1">
      <defs>
       <path d="M 0 0 
L 0 3.5 
" id="me01847b7c7" style="stroke:#000000;stroke-width:0.8;"/>
      </defs>
      <g>
       <use style="stroke:#000000;stroke-width:0.8;" x="73.832727" xlink:href="#me01847b7c7" y="307.584"/>
      </g>
     </g>
     <g id="text_1">
      <!-- 0 -->
      <defs>
       <path d="M 31.78125 66.40625 
Q 24.171875 66.40625 20.328125 58.90625 
Q 16.5 51.421875 16.5 36.375 
Q 16.5 21.390625 20.328125 13.890625 
Q 24.171875 6.390625 31.78125 6.390625 
Q 39.453125 6.390625 43.28125 13.890625 
Q 47.125 21.390625 47.125 36.375 
Q 47.125 51.421875 43.28125 58.90625 
Q 39.453125 66.40625 31.78125 66.40625 
z
M 31.78125 74.21875 
Q 44.046875 74.21875 50.515625 64.515625 
Q 56.984375 54.828125 56.984375 36.375 
Q 56.984375 17.96875 50.515625 8.265625 
Q 44.046875 -1.421875 31.78125 -1.421875 
Q 19.53125 -1.421875 13.0625 8.265625 
Q 6.59375 17.96875 6.59375 36.375 
Q 6.59375 54.828125 13.0625 64.515625 
Q 19.53125 74.21875 31.78125 74.21875 
z
" id="DejaVuSans-48"/>
      </defs>
      <g transform="translate(70.651477 322.182437)scale(0.1 -0.1)">
       <use xlink:href="#DejaVuSans-48"/>
      </g>
     </g>
    </g>
    <g id="xtick_2">
     <g id="line2d_2">
      <g>
       <use style="stroke:#000000;stroke-width:0.8;" x="114.424693" xlink:href="#me01847b7c7" y="307.584"/>
      </g>
     </g>
     <g id="text_2">
      <!-- 500 -->
      <defs>
       <path d="M 10.796875 72.90625 
L 49.515625 72.90625 
L 49.515625 64.59375 
L 19.828125 64.59375 
L 19.828125 46.734375 
Q 21.96875 47.46875 24.109375 47.828125 
Q 26.265625 48.1875 28.421875 48.1875 
Q 40.625 48.1875 47.75 41.5 
Q 54.890625 34.8125 54.890625 23.390625 
Q 54.890625 11.625 47.5625 5.09375 
Q 40.234375 -1.421875 26.90625 -1.421875 
Q 22.3125 -1.421875 17.546875 -0.640625 
Q 12.796875 0.140625 7.71875 1.703125 
L 7.71875 11.625 
Q 12.109375 9.234375 16.796875 8.0625 
Q 21.484375 6.890625 26.703125 6.890625 
Q 35.15625 6.890625 40.078125 11.328125 
Q 45.015625 15.765625 45.015625 23.390625 
Q 45.015625 31 40.078125 35.4375 
Q 35.15625 39.890625 26.703125 39.890625 
Q 22.75 39.890625 18.8125 39.015625 
Q 14.890625 38.140625 10.796875 36.28125 
z
" id="DejaVuSans-53"/>
      </defs>
      <g transform="translate(104.880943 322.182437)scale(0.1 -0.1)">
       <use xlink:href="#DejaVuSans-53"/>
       <use x="63.623047" xlink:href="#DejaVuSans-48"/>
       <use x="127.246094" xlink:href="#DejaVuSans-48"/>
      </g>
     </g>
    </g>
    <g id="xtick_3">
     <g id="line2d_3">
      <g>
       <use style="stroke:#000000;stroke-width:0.8;" x="155.01666" xlink:href="#me01847b7c7" y="307.584"/>
      </g>
     </g>
     <g id="text_3">
      <!-- 1000 -->
      <defs>
       <path d="M 12.40625 8.296875 
L 28.515625 8.296875 
L 28.515625 63.921875 
L 10.984375 60.40625 
L 10.984375 69.390625 
L 28.421875 72.90625 
L 38.28125 72.90625 
L 38.28125 8.296875 
L 54.390625 8.296875 
L 54.390625 0 
L 12.40625 0 
z
" id="DejaVuSans-49"/>
      </defs>
      <g transform="translate(142.29166 322.182437)scale(0.1 -0.1)">
       <use xlink:href="#DejaVuSans-49"/>
       <use x="63.623047" xlink:href="#DejaVuSans-48"/>
       <use x="127.246094" xlink:href="#DejaVuSans-48"/>
       <use x="190.869141" xlink:href="#DejaVuSans-48"/>
      </g>
     </g>
    </g>
    <g id="xtick_4">
     <g id="line2d_4">
      <g>
       <use style="stroke:#000000;stroke-width:0.8;" x="195.608626" xlink:href="#me01847b7c7" y="307.584"/>
      </g>
     </g>
     <g id="text_4">
      <!-- 1500 -->
      <g transform="translate(182.883626 322.182437)scale(0.1 -0.1)">
       <use xlink:href="#DejaVuSans-49"/>
       <use x="63.623047" xlink:href="#DejaVuSans-53"/>
       <use x="127.246094" xlink:href="#DejaVuSans-48"/>
       <use x="190.869141" xlink:href="#DejaVuSans-48"/>
      </g>
     </g>
    </g>
    <g id="xtick_5">
     <g id="line2d_5">
      <g>
       <use style="stroke:#000000;stroke-width:0.8;" x="236.200592" xlink:href="#me01847b7c7" y="307.584"/>
      </g>
     </g>
     <g id="text_5">
      <!-- 2000 -->
      <defs>
       <path d="M 19.1875 8.296875 
L 53.609375 8.296875 
L 53.609375 0 
L 7.328125 0 
L 7.328125 8.296875 
Q 12.9375 14.109375 22.625 23.890625 
Q 32.328125 33.6875 34.8125 36.53125 
Q 39.546875 41.84375 41.421875 45.53125 
Q 43.3125 49.21875 43.3125 52.78125 
Q 43.3125 58.59375 39.234375 62.25 
Q 35.15625 65.921875 28.609375 65.921875 
Q 23.96875 65.921875 18.8125 64.3125 
Q 13.671875 62.703125 7.8125 59.421875 
L 7.8125 69.390625 
Q 13.765625 71.78125 18.9375 73 
Q 24.125 74.21875 28.421875 74.21875 
Q 39.75 74.21875 46.484375 68.546875 
Q 53.21875 62.890625 53.21875 53.421875 
Q 53.21875 48.921875 51.53125 44.890625 
Q 49.859375 40.875 45.40625 35.40625 
Q 44.1875 33.984375 37.640625 27.21875 
Q 31.109375 20.453125 19.1875 8.296875 
z
" id="DejaVuSans-50"/>
      </defs>
      <g transform="translate(223.475592 322.182437)scale(0.1 -0.1)">
       <use xlink:href="#DejaVuSans-50"/>
       <use x="63.623047" xlink:href="#DejaVuSans-48"/>
       <use x="127.246094" xlink:href="#DejaVuSans-48"/>
       <use x="190.869141" xlink:href="#DejaVuSans-48"/>
      </g>
     </g>
    </g>
    <g id="xtick_6">
     <g id="line2d_6">
      <g>
       <use style="stroke:#000000;stroke-width:0.8;" x="276.792558" xlink:href="#me01847b7c7" y="307.584"/>
      </g>
     </g>
     <g id="text_6">
      <!-- 2500 -->
      <g transform="translate(264.067558 322.182437)scale(0.1 -0.1)">
       <use xlink:href="#DejaVuSans-50"/>
       <use x="63.623047" xlink:href="#DejaVuSans-53"/>
       <use x="127.246094" xlink:href="#DejaVuSans-48"/>
       <use x="190.869141" xlink:href="#DejaVuSans-48"/>
      </g>
     </g>
    </g>
    <g id="xtick_7">
     <g id="line2d_7">
      <g>
       <use style="stroke:#000000;stroke-width:0.8;" x="317.384524" xlink:href="#me01847b7c7" y="307.584"/>
      </g>
     </g>
     <g id="text_7">
      <!-- 3000 -->
      <defs>
       <path d="M 40.578125 39.3125 
Q 47.65625 37.796875 51.625 33 
Q 55.609375 28.21875 55.609375 21.1875 
Q 55.609375 10.40625 48.1875 4.484375 
Q 40.765625 -1.421875 27.09375 -1.421875 
Q 22.515625 -1.421875 17.65625 -0.515625 
Q 12.796875 0.390625 7.625 2.203125 
L 7.625 11.71875 
Q 11.71875 9.328125 16.59375 8.109375 
Q 21.484375 6.890625 26.8125 6.890625 
Q 36.078125 6.890625 40.9375 10.546875 
Q 45.796875 14.203125 45.796875 21.1875 
Q 45.796875 27.640625 41.28125 31.265625 
Q 36.765625 34.90625 28.71875 34.90625 
L 20.21875 34.90625 
L 20.21875 43.015625 
L 29.109375 43.015625 
Q 36.375 43.015625 40.234375 45.921875 
Q 44.09375 48.828125 44.09375 54.296875 
Q 44.09375 59.90625 40.109375 62.90625 
Q 36.140625 65.921875 28.71875 65.921875 
Q 24.65625 65.921875 20.015625 65.03125 
Q 15.375 64.15625 9.8125 62.3125 
L 9.8125 71.09375 
Q 15.4375 72.65625 20.34375 73.4375 
Q 25.25 74.21875 29.59375 74.21875 
Q 40.828125 74.21875 47.359375 69.109375 
Q 53.90625 64.015625 53.90625 55.328125 
Q 53.90625 49.265625 50.4375 45.09375 
Q 46.96875 40.921875 40.578125 39.3125 
z
" id="DejaVuSans-51"/>
      </defs>
      <g transform="translate(304.659524 322.182437)scale(0.1 -0.1)">
       <use xlink:href="#DejaVuSans-51"/>
       <use x="63.623047" xlink:href="#DejaVuSans-48"/>
       <use x="127.246094" xlink:href="#DejaVuSans-48"/>
       <use x="190.869141" xlink:href="#DejaVuSans-48"/>
      </g>
     </g>
    </g>
    <g id="xtick_8">
     <g id="line2d_8">
      <g>
       <use style="stroke:#000000;stroke-width:0.8;" x="357.97649" xlink:href="#me01847b7c7" y="307.584"/>
      </g>
     </g>
     <g id="text_8">
      <!-- 3500 -->
      <g transform="translate(345.25149 322.182437)scale(0.1 -0.1)">
       <use xlink:href="#DejaVuSans-51"/>
       <use x="63.623047" xlink:href="#DejaVuSans-53"/>
       <use x="127.246094" xlink:href="#DejaVuSans-48"/>
       <use x="190.869141" xlink:href="#DejaVuSans-48"/>
      </g>
     </g>
    </g>
    <g id="xtick_9">
     <g id="line2d_9">
      <g>
       <use style="stroke:#000000;stroke-width:0.8;" x="398.568457" xlink:href="#me01847b7c7" y="307.584"/>
      </g>
     </g>
     <g id="text_9">
      <!-- 4000 -->
      <defs>
       <path d="M 37.796875 64.3125 
L 12.890625 25.390625 
L 37.796875 25.390625 
z
M 35.203125 72.90625 
L 47.609375 72.90625 
L 47.609375 25.390625 
L 58.015625 25.390625 
L 58.015625 17.1875 
L 47.609375 17.1875 
L 47.609375 0 
L 37.796875 0 
L 37.796875 17.1875 
L 4.890625 17.1875 
L 4.890625 26.703125 
z
" id="DejaVuSans-52"/>
      </defs>
      <g transform="translate(385.843457 322.182437)scale(0.1 -0.1)">
       <use xlink:href="#DejaVuSans-52"/>
       <use x="63.623047" xlink:href="#DejaVuSans-48"/>
       <use x="127.246094" xlink:href="#DejaVuSans-48"/>
       <use x="190.869141" xlink:href="#DejaVuSans-48"/>
      </g>
     </g>
    </g>
    <g id="text_10">
     <!-- steps 0.001 tao per step -->
     <defs>
      <path d="M 44.28125 53.078125 
L 44.28125 44.578125 
Q 40.484375 46.53125 36.375 47.5 
Q 32.28125 48.484375 27.875 48.484375 
Q 21.1875 48.484375 17.84375 46.4375 
Q 14.5 44.390625 14.5 40.28125 
Q 14.5 37.15625 16.890625 35.375 
Q 19.28125 33.59375 26.515625 31.984375 
L 29.59375 31.296875 
Q 39.15625 29.25 43.1875 25.515625 
Q 47.21875 21.78125 47.21875 15.09375 
Q 47.21875 7.46875 41.1875 3.015625 
Q 35.15625 -1.421875 24.609375 -1.421875 
Q 20.21875 -1.421875 15.453125 -0.5625 
Q 10.6875 0.296875 5.421875 2 
L 5.421875 11.28125 
Q 10.40625 8.6875 15.234375 7.390625 
Q 20.0625 6.109375 24.8125 6.109375 
Q 31.15625 6.109375 34.5625 8.28125 
Q 37.984375 10.453125 37.984375 14.40625 
Q 37.984375 18.0625 35.515625 20.015625 
Q 33.0625 21.96875 24.703125 23.78125 
L 21.578125 24.515625 
Q 13.234375 26.265625 9.515625 29.90625 
Q 5.8125 33.546875 5.8125 39.890625 
Q 5.8125 47.609375 11.28125 51.796875 
Q 16.75 56 26.8125 56 
Q 31.78125 56 36.171875 55.265625 
Q 40.578125 54.546875 44.28125 53.078125 
z
" id="DejaVuSans-115"/>
      <path d="M 18.3125 70.21875 
L 18.3125 54.6875 
L 36.8125 54.6875 
L 36.8125 47.703125 
L 18.3125 47.703125 
L 18.3125 18.015625 
Q 18.3125 11.328125 20.140625 9.421875 
Q 21.96875 7.515625 27.59375 7.515625 
L 36.8125 7.515625 
L 36.8125 0 
L 27.59375 0 
Q 17.1875 0 13.234375 3.875 
Q 9.28125 7.765625 9.28125 18.015625 
L 9.28125 47.703125 
L 2.6875 47.703125 
L 2.6875 54.6875 
L 9.28125 54.6875 
L 9.28125 70.21875 
z
" id="DejaVuSans-116"/>
      <path d="M 56.203125 29.59375 
L 56.203125 25.203125 
L 14.890625 25.203125 
Q 15.484375 15.921875 20.484375 11.0625 
Q 25.484375 6.203125 34.421875 6.203125 
Q 39.59375 6.203125 44.453125 7.46875 
Q 49.3125 8.734375 54.109375 11.28125 
L 54.109375 2.78125 
Q 49.265625 0.734375 44.1875 -0.34375 
Q 39.109375 -1.421875 33.890625 -1.421875 
Q 20.796875 -1.421875 13.15625 6.1875 
Q 5.515625 13.8125 5.515625 26.8125 
Q 5.515625 40.234375 12.765625 48.109375 
Q 20.015625 56 32.328125 56 
Q 43.359375 56 49.78125 48.890625 
Q 56.203125 41.796875 56.203125 29.59375 
z
M 47.21875 32.234375 
Q 47.125 39.59375 43.09375 43.984375 
Q 39.0625 48.390625 32.421875 48.390625 
Q 24.90625 48.390625 20.390625 44.140625 
Q 15.875 39.890625 15.1875 32.171875 
z
" id="DejaVuSans-101"/>
      <path d="M 18.109375 8.203125 
L 18.109375 -20.796875 
L 9.078125 -20.796875 
L 9.078125 54.6875 
L 18.109375 54.6875 
L 18.109375 46.390625 
Q 20.953125 51.265625 25.265625 53.625 
Q 29.59375 56 35.59375 56 
Q 45.5625 56 51.78125 48.09375 
Q 58.015625 40.1875 58.015625 27.296875 
Q 58.015625 14.40625 51.78125 6.484375 
Q 45.5625 -1.421875 35.59375 -1.421875 
Q 29.59375 -1.421875 25.265625 0.953125 
Q 20.953125 3.328125 18.109375 8.203125 
z
M 48.6875 27.296875 
Q 48.6875 37.203125 44.609375 42.84375 
Q 40.53125 48.484375 33.40625 48.484375 
Q 26.265625 48.484375 22.1875 42.84375 
Q 18.109375 37.203125 18.109375 27.296875 
Q 18.109375 17.390625 22.1875 11.75 
Q 26.265625 6.109375 33.40625 6.109375 
Q 40.53125 6.109375 44.609375 11.75 
Q 48.6875 17.390625 48.6875 27.296875 
z
" id="DejaVuSans-112"/>
      <path id="DejaVuSans-32"/>
      <path d="M 10.6875 12.40625 
L 21 12.40625 
L 21 0 
L 10.6875 0 
z
" id="DejaVuSans-46"/>
      <path d="M 34.28125 27.484375 
Q 23.390625 27.484375 19.1875 25 
Q 14.984375 22.515625 14.984375 16.5 
Q 14.984375 11.71875 18.140625 8.90625 
Q 21.296875 6.109375 26.703125 6.109375 
Q 34.1875 6.109375 38.703125 11.40625 
Q 43.21875 16.703125 43.21875 25.484375 
L 43.21875 27.484375 
z
M 52.203125 31.203125 
L 52.203125 0 
L 43.21875 0 
L 43.21875 8.296875 
Q 40.140625 3.328125 35.546875 0.953125 
Q 30.953125 -1.421875 24.3125 -1.421875 
Q 15.921875 -1.421875 10.953125 3.296875 
Q 6 8.015625 6 15.921875 
Q 6 25.140625 12.171875 29.828125 
Q 18.359375 34.515625 30.609375 34.515625 
L 43.21875 34.515625 
L 43.21875 35.40625 
Q 43.21875 41.609375 39.140625 45 
Q 35.0625 48.390625 27.6875 48.390625 
Q 23 48.390625 18.546875 47.265625 
Q 14.109375 46.140625 10.015625 43.890625 
L 10.015625 52.203125 
Q 14.9375 54.109375 19.578125 55.046875 
Q 24.21875 56 28.609375 56 
Q 40.484375 56 46.34375 49.84375 
Q 52.203125 43.703125 52.203125 31.203125 
z
" id="DejaVuSans-97"/>
      <path d="M 30.609375 48.390625 
Q 23.390625 48.390625 19.1875 42.75 
Q 14.984375 37.109375 14.984375 27.296875 
Q 14.984375 17.484375 19.15625 11.84375 
Q 23.34375 6.203125 30.609375 6.203125 
Q 37.796875 6.203125 41.984375 11.859375 
Q 46.1875 17.53125 46.1875 27.296875 
Q 46.1875 37.015625 41.984375 42.703125 
Q 37.796875 48.390625 30.609375 48.390625 
z
M 30.609375 56 
Q 42.328125 56 49.015625 48.375 
Q 55.71875 40.765625 55.71875 27.296875 
Q 55.71875 13.875 49.015625 6.21875 
Q 42.328125 -1.421875 30.609375 -1.421875 
Q 18.84375 -1.421875 12.171875 6.21875 
Q 5.515625 13.875 5.515625 27.296875 
Q 5.515625 40.765625 12.171875 48.375 
Q 18.84375 56 30.609375 56 
z
" id="DejaVuSans-111"/>
      <path d="M 41.109375 46.296875 
Q 39.59375 47.171875 37.8125 47.578125 
Q 36.03125 48 33.890625 48 
Q 26.265625 48 22.1875 43.046875 
Q 18.109375 38.09375 18.109375 28.8125 
L 18.109375 0 
L 9.078125 0 
L 9.078125 54.6875 
L 18.109375 54.6875 
L 18.109375 46.1875 
Q 20.953125 51.171875 25.484375 53.578125 
Q 30.03125 56 36.53125 56 
Q 37.453125 56 38.578125 55.875 
Q 39.703125 55.765625 41.0625 55.515625 
z
" id="DejaVuSans-114"/>
     </defs>
     <g transform="translate(174.863906 335.860562)scale(0.1 -0.1)">
      <use xlink:href="#DejaVuSans-115"/>
      <use x="52.099609" xlink:href="#DejaVuSans-116"/>
      <use x="91.308594" xlink:href="#DejaVuSans-101"/>
      <use x="152.832031" xlink:href="#DejaVuSans-112"/>
      <use x="216.308594" xlink:href="#DejaVuSans-115"/>
      <use x="268.408203" xlink:href="#DejaVuSans-32"/>
      <use x="300.195312" xlink:href="#DejaVuSans-48"/>
      <use x="363.818359" xlink:href="#DejaVuSans-46"/>
      <use x="395.605469" xlink:href="#DejaVuSans-48"/>
      <use x="459.228516" xlink:href="#DejaVuSans-48"/>
      <use x="522.851562" xlink:href="#DejaVuSans-49"/>
      <use x="586.474609" xlink:href="#DejaVuSans-32"/>
      <use x="618.261719" xlink:href="#DejaVuSans-116"/>
      <use x="657.470703" xlink:href="#DejaVuSans-97"/>
      <use x="718.75" xlink:href="#DejaVuSans-111"/>
      <use x="779.931641" xlink:href="#DejaVuSans-32"/>
      <use x="811.71875" xlink:href="#DejaVuSans-112"/>
      <use x="875.195312" xlink:href="#DejaVuSans-101"/>
      <use x="936.71875" xlink:href="#DejaVuSans-114"/>
      <use x="977.832031" xlink:href="#DejaVuSans-32"/>
      <use x="1009.619141" xlink:href="#DejaVuSans-115"/>
      <use x="1061.71875" xlink:href="#DejaVuSans-116"/>
      <use x="1100.927734" xlink:href="#DejaVuSans-101"/>
      <use x="1162.451172" xlink:href="#DejaVuSans-112"/>
     </g>
    </g>
   </g>
   <g id="matplotlib.axis_2">
    <g id="ytick_1">
     <g id="line2d_10">
      <defs>
       <path d="M 0 0 
L -3.5 0 
" id="me8a25aa4a9" style="stroke:#000000;stroke-width:0.8;"/>
      </defs>
      <g>
       <use style="stroke:#000000;stroke-width:0.8;" x="57.6" xlink:href="#me8a25aa4a9" y="281.110091"/>
      </g>
     </g>
     <g id="text_11">
      <!-- −4 -->
      <defs>
       <path d="M 10.59375 35.5 
L 73.1875 35.5 
L 73.1875 27.203125 
L 10.59375 27.203125 
z
" id="DejaVuSans-8722"/>
      </defs>
      <g transform="translate(35.857813 284.909309)scale(0.1 -0.1)">
       <use xlink:href="#DejaVuSans-8722"/>
       <use x="83.789062" xlink:href="#DejaVuSans-52"/>
      </g>
     </g>
    </g>
    <g id="ytick_2">
     <g id="line2d_11">
      <g>
       <use style="stroke:#000000;stroke-width:0.8;" x="57.6" xlink:href="#me8a25aa4a9" y="251.193445"/>
      </g>
     </g>
     <g id="text_12">
      <!-- −3 -->
      <g transform="translate(35.857813 254.992663)scale(0.1 -0.1)">
       <use xlink:href="#DejaVuSans-8722"/>
       <use x="83.789062" xlink:href="#DejaVuSans-51"/>
      </g>
     </g>
    </g>
    <g id="ytick_3">
     <g id="line2d_12">
      <g>
       <use style="stroke:#000000;stroke-width:0.8;" x="57.6" xlink:href="#me8a25aa4a9" y="221.276798"/>
      </g>
     </g>
     <g id="text_13">
      <!-- −2 -->
      <g transform="translate(35.857813 225.076017)scale(0.1 -0.1)">
       <use xlink:href="#DejaVuSans-8722"/>
       <use x="83.789062" xlink:href="#DejaVuSans-50"/>
      </g>
     </g>
    </g>
    <g id="ytick_4">
     <g id="line2d_13">
      <g>
       <use style="stroke:#000000;stroke-width:0.8;" x="57.6" xlink:href="#me8a25aa4a9" y="191.360152"/>
      </g>
     </g>
     <g id="text_14">
      <!-- −1 -->
      <g transform="translate(35.857813 195.159371)scale(0.1 -0.1)">
       <use xlink:href="#DejaVuSans-8722"/>
       <use x="83.789062" xlink:href="#DejaVuSans-49"/>
      </g>
     </g>
    </g>
    <g id="ytick_5">
     <g id="line2d_14">
      <g>
       <use style="stroke:#000000;stroke-width:0.8;" x="57.6" xlink:href="#me8a25aa4a9" y="161.443506"/>
      </g>
     </g>
     <g id="text_15">
      <!-- 0 -->
      <g transform="translate(44.2375 165.242725)scale(0.1 -0.1)">
       <use xlink:href="#DejaVuSans-48"/>
      </g>
     </g>
    </g>
    <g id="ytick_6">
     <g id="line2d_15">
      <g>
       <use style="stroke:#000000;stroke-width:0.8;" x="57.6" xlink:href="#me8a25aa4a9" y="131.52686"/>
      </g>
     </g>
     <g id="text_16">
      <!-- 1 -->
      <g transform="translate(44.2375 135.326079)scale(0.1 -0.1)">
       <use xlink:href="#DejaVuSans-49"/>
      </g>
     </g>
    </g>
    <g id="ytick_7">
     <g id="line2d_16">
      <g>
       <use style="stroke:#000000;stroke-width:0.8;" x="57.6" xlink:href="#me8a25aa4a9" y="101.610214"/>
      </g>
     </g>
     <g id="text_17">
      <!-- 2 -->
      <g transform="translate(44.2375 105.409433)scale(0.1 -0.1)">
       <use xlink:href="#DejaVuSans-50"/>
      </g>
     </g>
    </g>
    <g id="ytick_8">
     <g id="line2d_17">
      <g>
       <use style="stroke:#000000;stroke-width:0.8;" x="57.6" xlink:href="#me8a25aa4a9" y="71.693568"/>
      </g>
     </g>
     <g id="text_18">
      <!-- 3 -->
      <g transform="translate(44.2375 75.492786)scale(0.1 -0.1)">
       <use xlink:href="#DejaVuSans-51"/>
      </g>
     </g>
    </g>
    <g id="ytick_9">
     <g id="line2d_18">
      <g>
       <use style="stroke:#000000;stroke-width:0.8;" x="57.6" xlink:href="#me8a25aa4a9" y="41.776921"/>
      </g>
     </g>
     <g id="text_19">
      <!-- 4 -->
      <g transform="translate(44.2375 45.57614)scale(0.1 -0.1)">
       <use xlink:href="#DejaVuSans-52"/>
      </g>
     </g>
    </g>
    <g id="text_20">
     <!-- energy emma=118.7K*kb -->
     <defs>
      <path d="M 54.890625 33.015625 
L 54.890625 0 
L 45.90625 0 
L 45.90625 32.71875 
Q 45.90625 40.484375 42.875 44.328125 
Q 39.84375 48.1875 33.796875 48.1875 
Q 26.515625 48.1875 22.3125 43.546875 
Q 18.109375 38.921875 18.109375 30.90625 
L 18.109375 0 
L 9.078125 0 
L 9.078125 54.6875 
L 18.109375 54.6875 
L 18.109375 46.1875 
Q 21.34375 51.125 25.703125 53.5625 
Q 30.078125 56 35.796875 56 
Q 45.21875 56 50.046875 50.171875 
Q 54.890625 44.34375 54.890625 33.015625 
z
" id="DejaVuSans-110"/>
      <path d="M 45.40625 27.984375 
Q 45.40625 37.75 41.375 43.109375 
Q 37.359375 48.484375 30.078125 48.484375 
Q 22.859375 48.484375 18.828125 43.109375 
Q 14.796875 37.75 14.796875 27.984375 
Q 14.796875 18.265625 18.828125 12.890625 
Q 22.859375 7.515625 30.078125 7.515625 
Q 37.359375 7.515625 41.375 12.890625 
Q 45.40625 18.265625 45.40625 27.984375 
z
M 54.390625 6.78125 
Q 54.390625 -7.171875 48.1875 -13.984375 
Q 42 -20.796875 29.203125 -20.796875 
Q 24.46875 -20.796875 20.265625 -20.09375 
Q 16.0625 -19.390625 12.109375 -17.921875 
L 12.109375 -9.1875 
Q 16.0625 -11.328125 19.921875 -12.34375 
Q 23.78125 -13.375 27.78125 -13.375 
Q 36.625 -13.375 41.015625 -8.765625 
Q 45.40625 -4.15625 45.40625 5.171875 
L 45.40625 9.625 
Q 42.625 4.78125 38.28125 2.390625 
Q 33.9375 0 27.875 0 
Q 17.828125 0 11.671875 7.65625 
Q 5.515625 15.328125 5.515625 27.984375 
Q 5.515625 40.671875 11.671875 48.328125 
Q 17.828125 56 27.875 56 
Q 33.9375 56 38.28125 53.609375 
Q 42.625 51.21875 45.40625 46.390625 
L 45.40625 54.6875 
L 54.390625 54.6875 
z
" id="DejaVuSans-103"/>
      <path d="M 32.171875 -5.078125 
Q 28.375 -14.84375 24.75 -17.8125 
Q 21.140625 -20.796875 15.09375 -20.796875 
L 7.90625 -20.796875 
L 7.90625 -13.28125 
L 13.1875 -13.28125 
Q 16.890625 -13.28125 18.9375 -11.515625 
Q 21 -9.765625 23.484375 -3.21875 
L 25.09375 0.875 
L 2.984375 54.6875 
L 12.5 54.6875 
L 29.59375 11.921875 
L 46.6875 54.6875 
L 56.203125 54.6875 
z
" id="DejaVuSans-121"/>
      <path d="M 52 44.1875 
Q 55.375 50.25 60.0625 53.125 
Q 64.75 56 71.09375 56 
Q 79.640625 56 84.28125 50.015625 
Q 88.921875 44.046875 88.921875 33.015625 
L 88.921875 0 
L 79.890625 0 
L 79.890625 32.71875 
Q 79.890625 40.578125 77.09375 44.375 
Q 74.3125 48.1875 68.609375 48.1875 
Q 61.625 48.1875 57.5625 43.546875 
Q 53.515625 38.921875 53.515625 30.90625 
L 53.515625 0 
L 44.484375 0 
L 44.484375 32.71875 
Q 44.484375 40.625 41.703125 44.40625 
Q 38.921875 48.1875 33.109375 48.1875 
Q 26.21875 48.1875 22.15625 43.53125 
Q 18.109375 38.875 18.109375 30.90625 
L 18.109375 0 
L 9.078125 0 
L 9.078125 54.6875 
L 18.109375 54.6875 
L 18.109375 46.1875 
Q 21.1875 51.21875 25.484375 53.609375 
Q 29.78125 56 35.6875 56 
Q 41.65625 56 45.828125 52.96875 
Q 50 49.953125 52 44.1875 
z
" id="DejaVuSans-109"/>
      <path d="M 10.59375 45.40625 
L 73.1875 45.40625 
L 73.1875 37.203125 
L 10.59375 37.203125 
z
M 10.59375 25.484375 
L 73.1875 25.484375 
L 73.1875 17.1875 
L 10.59375 17.1875 
z
" id="DejaVuSans-61"/>
      <path d="M 31.78125 34.625 
Q 24.75 34.625 20.71875 30.859375 
Q 16.703125 27.09375 16.703125 20.515625 
Q 16.703125 13.921875 20.71875 10.15625 
Q 24.75 6.390625 31.78125 6.390625 
Q 38.8125 6.390625 42.859375 10.171875 
Q 46.921875 13.96875 46.921875 20.515625 
Q 46.921875 27.09375 42.890625 30.859375 
Q 38.875 34.625 31.78125 34.625 
z
M 21.921875 38.8125 
Q 15.578125 40.375 12.03125 44.71875 
Q 8.5 49.078125 8.5 55.328125 
Q 8.5 64.0625 14.71875 69.140625 
Q 20.953125 74.21875 31.78125 74.21875 
Q 42.671875 74.21875 48.875 69.140625 
Q 55.078125 64.0625 55.078125 55.328125 
Q 55.078125 49.078125 51.53125 44.71875 
Q 48 40.375 41.703125 38.8125 
Q 48.828125 37.15625 52.796875 32.3125 
Q 56.78125 27.484375 56.78125 20.515625 
Q 56.78125 9.90625 50.3125 4.234375 
Q 43.84375 -1.421875 31.78125 -1.421875 
Q 19.734375 -1.421875 13.25 4.234375 
Q 6.78125 9.90625 6.78125 20.515625 
Q 6.78125 27.484375 10.78125 32.3125 
Q 14.796875 37.15625 21.921875 38.8125 
z
M 18.3125 54.390625 
Q 18.3125 48.734375 21.84375 45.5625 
Q 25.390625 42.390625 31.78125 42.390625 
Q 38.140625 42.390625 41.71875 45.5625 
Q 45.3125 48.734375 45.3125 54.390625 
Q 45.3125 60.0625 41.71875 63.234375 
Q 38.140625 66.40625 31.78125 66.40625 
Q 25.390625 66.40625 21.84375 63.234375 
Q 18.3125 60.0625 18.3125 54.390625 
z
" id="DejaVuSans-56"/>
      <path d="M 8.203125 72.90625 
L 55.078125 72.90625 
L 55.078125 68.703125 
L 28.609375 0 
L 18.3125 0 
L 43.21875 64.59375 
L 8.203125 64.59375 
z
" id="DejaVuSans-55"/>
      <path d="M 9.8125 72.90625 
L 19.671875 72.90625 
L 19.671875 42.09375 
L 52.390625 72.90625 
L 65.09375 72.90625 
L 28.90625 38.921875 
L 67.671875 0 
L 54.6875 0 
L 19.671875 35.109375 
L 19.671875 0 
L 9.8125 0 
z
" id="DejaVuSans-75"/>
      <path d="M 47.015625 60.890625 
L 29.5 51.421875 
L 47.015625 41.890625 
L 44.1875 37.109375 
L 27.78125 47.015625 
L 27.78125 28.609375 
L 22.21875 28.609375 
L 22.21875 47.015625 
L 5.8125 37.109375 
L 2.984375 41.890625 
L 20.515625 51.421875 
L 2.984375 60.890625 
L 5.8125 65.71875 
L 22.21875 55.8125 
L 22.21875 74.21875 
L 27.78125 74.21875 
L 27.78125 55.8125 
L 44.1875 65.71875 
z
" id="DejaVuSans-42"/>
      <path d="M 9.078125 75.984375 
L 18.109375 75.984375 
L 18.109375 31.109375 
L 44.921875 54.6875 
L 56.390625 54.6875 
L 27.390625 29.109375 
L 57.625 0 
L 45.90625 0 
L 18.109375 26.703125 
L 18.109375 0 
L 9.078125 0 
z
" id="DejaVuSans-107"/>
      <path d="M 48.6875 27.296875 
Q 48.6875 37.203125 44.609375 42.84375 
Q 40.53125 48.484375 33.40625 48.484375 
Q 26.265625 48.484375 22.1875 42.84375 
Q 18.109375 37.203125 18.109375 27.296875 
Q 18.109375 17.390625 22.1875 11.75 
Q 26.265625 6.109375 33.40625 6.109375 
Q 40.53125 6.109375 44.609375 11.75 
Q 48.6875 17.390625 48.6875 27.296875 
z
M 18.109375 46.390625 
Q 20.953125 51.265625 25.265625 53.625 
Q 29.59375 56 35.59375 56 
Q 45.5625 56 51.78125 48.09375 
Q 58.015625 40.1875 58.015625 27.296875 
Q 58.015625 14.40625 51.78125 6.484375 
Q 45.5625 -1.421875 35.59375 -1.421875 
Q 29.59375 -1.421875 25.265625 0.953125 
Q 20.953125 3.328125 18.109375 8.203125 
L 18.109375 0 
L 9.078125 0 
L 9.078125 75.984375 
L 18.109375 75.984375 
z
" id="DejaVuSans-98"/>
     </defs>
     <g transform="translate(29.778125 239.774094)rotate(-90)scale(0.1 -0.1)">
      <use xlink:href="#DejaVuSans-101"/>
      <use x="61.523438" xlink:href="#DejaVuSans-110"/>
      <use x="124.902344" xlink:href="#DejaVuSans-101"/>
      <use x="186.425781" xlink:href="#DejaVuSans-114"/>
      <use x="225.789062" xlink:href="#DejaVuSans-103"/>
      <use x="289.265625" xlink:href="#DejaVuSans-121"/>
      <use x="348.445312" xlink:href="#DejaVuSans-32"/>
      <use x="380.232422" xlink:href="#DejaVuSans-101"/>
      <use x="441.755859" xlink:href="#DejaVuSans-109"/>
      <use x="539.167969" xlink:href="#DejaVuSans-109"/>
      <use x="636.580078" xlink:href="#DejaVuSans-97"/>
      <use x="697.859375" xlink:href="#DejaVuSans-61"/>
      <use x="781.648438" xlink:href="#DejaVuSans-49"/>
      <use x="845.271484" xlink:href="#DejaVuSans-49"/>
      <use x="908.894531" xlink:href="#DejaVuSans-56"/>
      <use x="972.517578" xlink:href="#DejaVuSans-46"/>
      <use x="1004.304688" xlink:href="#DejaVuSans-55"/>
      <use x="1067.927734" xlink:href="#DejaVuSans-75"/>
      <use x="1133.503906" xlink:href="#DejaVuSans-42"/>
      <use x="1183.503906" xlink:href="#DejaVuSans-107"/>
      <use x="1241.414062" xlink:href="#DejaVuSans-98"/>
     </g>
    </g>
   </g>
   <g id="line2d_19">
    <path clip-path="url(#p0d6a5a576a)" d="M 73.832727 161.427852 
L 73.995095 161.052851 
L 74.238647 159.566272 
L 74.563383 155.94185 
L 75.050486 147.426103 
L 75.781142 129.790225 
L 77.729556 80.380249 
L 78.460211 67.78647 
L 79.109683 60.194028 
L 79.67797 56.092295 
L 80.08389 54.424164 
L 80.408626 53.743995 
L 80.652178 53.570508 
L 80.895729 53.65444 
L 81.220465 54.120789 
L 81.626385 55.190858 
L 82.194672 57.414442 
L 83.006512 61.630971 
L 84.305455 69.754931 
L 88.039915 93.670078 
L 89.744778 102.965943 
L 91.368457 110.664068 
L 92.992135 117.324877 
L 94.615814 123.074722 
L 96.239493 128.04196 
L 97.944355 132.542792 
L 99.649218 136.425871 
L 101.435264 139.937405 
L 103.221311 142.970393 
L 105.088541 145.711263 
L 107.036956 148.176925 
L 109.066554 150.384827 
L 111.177336 152.352089 
L 113.369302 154.094874 
L 115.723636 155.678069 
L 118.159154 157.048036 
L 120.75704 158.252543 
L 123.517294 159.281843 
L 126.358732 160.106171 
L 129.362537 160.74742 
L 132.52871 161.191183 
L 135.776068 161.415767 
L 139.023425 161.415407 
L 142.270782 161.190089 
L 145.436956 160.745569 
L 148.440761 160.103539 
L 151.363383 159.251445 
L 154.123636 158.21414 
L 156.721522 157.000933 
L 159.15704 155.621469 
L 161.511374 154.027506 
L 163.70334 152.27291 
L 165.814123 150.292219 
L 167.762537 148.164645 
L 169.629767 145.807393 
L 171.496998 143.081746 
L 173.283044 140.066054 
L 174.987907 136.74532 
L 176.611586 133.107772 
L 178.235264 128.923122 
L 179.858943 124.093414 
L 181.401438 118.804189 
L 182.943932 112.721583 
L 184.486427 105.734612 
L 186.110106 97.302105 
L 187.814968 87.234838 
L 190.250486 71.295857 
L 191.955349 60.65527 
L 192.848372 56.32943 
L 193.41666 54.462863 
L 193.822579 53.723181 
L 194.066131 53.569568 
L 194.309683 53.665476 
L 194.553235 54.038521 
L 194.87797 55.016549 
L 195.28389 57.108797 
L 195.770994 61.068787 
L 196.339281 67.93609 
L 196.988753 78.972749 
L 197.800592 97.319524 
L 200.154926 154.920052 
L 200.560846 159.65246 
L 200.885581 161.325842 
L 201.047949 161.418744 
L 201.210317 161.011625 
L 201.453869 159.478115 
L 201.778605 155.795699 
L 202.265708 147.208551 
L 202.996364 129.511633 
L 204.944778 80.169559 
L 205.675433 67.637738 
L 206.324905 60.098111 
L 206.893192 56.036887 
L 207.299112 54.393645 
L 207.623848 53.73088 
L 207.8674 53.569018 
L 208.110951 53.663398 
L 208.435687 54.141954 
L 208.841607 55.224731 
L 209.409894 57.461943 
L 210.221734 61.691138 
L 211.520677 69.82382 
L 215.255137 93.730948 
L 216.96 103.019094 
L 218.583679 110.710179 
L 220.207357 117.3647 
L 221.831036 123.1091 
L 223.454715 128.071689 
L 225.159577 132.568395 
L 226.86444 136.448003 
L 228.650486 139.956483 
L 230.436533 142.986905 
L 232.303763 145.725517 
L 234.252178 148.189196 
L 236.281776 150.395359 
L 238.392558 152.361093 
L 240.584524 154.102536 
L 242.938858 155.684505 
L 245.374376 157.053392 
L 247.972262 158.256909 
L 250.732516 159.285297 
L 253.573953 160.1088 
L 256.577759 160.749267 
L 259.743932 161.192275 
L 262.99129 161.416125 
L 266.238647 161.415044 
L 269.486004 161.188993 
L 272.652178 160.743717 
L 275.655983 160.100904 
L 278.578605 159.24796 
L 281.338858 158.209738 
L 283.936744 156.995535 
L 286.372262 155.614983 
L 288.726596 154.019787 
L 290.918562 152.263837 
L 293.029345 150.281606 
L 294.977759 148.152354 
L 296.844989 145.793206 
L 298.71222 143.065313 
L 300.498266 140.04707 
L 302.203129 136.72345 
L 303.826808 133.082657 
L 305.450486 128.894181 
L 307.074165 124.059964 
L 308.61666 118.765733 
L 310.159154 112.677362 
L 311.701649 105.683902 
L 313.325328 97.244061 
L 315.03019 87.169492 
L 317.465708 71.226457 
L 319.170571 60.597368 
L 320.063594 56.287715 
L 320.631882 54.436962 
L 321.037801 53.711811 
L 321.281353 53.568366 
L 321.524905 53.675602 
L 321.768457 54.061187 
L 322.093192 55.057874 
L 322.499112 57.176575 
L 322.986216 61.172619 
L 323.554503 68.086599 
L 324.203975 79.178474 
L 325.015814 97.58383 
L 327.370148 155.07617 
L 327.776068 159.736675 
L 328.100803 161.346911 
L 328.263171 161.407557 
L 328.425539 160.968345 
L 328.669091 159.387995 
L 328.993827 155.647797 
L 329.48093 146.989715 
L 330.211586 129.232591 
L 332.078816 81.610415 
L 332.809471 68.660471 
L 333.458943 60.762198 
L 334.02723 56.424894 
L 334.514334 54.363722 
L 334.83907 53.71829 
L 335.082622 53.568 
L 335.326173 53.672781 
L 335.650909 54.163481 
L 336.056829 55.258896 
L 336.625116 57.509654 
L 337.436956 61.751426 
L 338.735899 69.892739 
L 342.389175 93.318568 
L 344.175222 103.072197 
L 345.798901 110.756248 
L 347.422579 117.404485 
L 349.046258 123.143445 
L 350.669937 128.101391 
L 352.374799 132.593975 
L 354.079662 136.470115 
L 355.865708 139.975545 
L 357.651755 143.003403 
L 359.518985 145.739759 
L 361.4674 148.201458 
L 363.496998 150.405882 
L 365.60778 152.370091 
L 367.799746 154.110192 
L 370.15408 155.690937 
L 372.589598 157.058743 
L 375.187484 158.261271 
L 377.947738 159.288748 
L 380.789175 160.111427 
L 383.792981 160.751112 
L 386.959154 161.193364 
L 390.206512 161.41648 
L 393.453869 161.41468 
L 396.701226 161.187894 
L 398.487273 160.964462 
L 398.487273 160.964462 
" style="fill:none;stroke:#ff0000;stroke-linecap:square;stroke-width:1.5;"/>
   </g>
   <g id="line2d_20">
    <path clip-path="url(#p0d6a5a576a)" d="M 73.832727 187.620571 
L 73.995095 187.995656 
L 74.238647 189.482567 
L 74.563383 193.107775 
L 75.050486 201.625251 
L 75.781142 219.264174 
L 77.729556 268.678376 
L 78.460211 281.271924 
L 79.109683 288.863754 
L 79.67797 292.964831 
L 80.08389 294.632485 
L 80.408626 295.312288 
L 80.652178 295.485514 
L 80.895729 295.401335 
L 81.220465 294.934681 
L 81.626385 293.864272 
L 82.194672 291.640287 
L 83.006512 287.423321 
L 84.305455 279.298922 
L 88.039915 255.383398 
L 89.744778 246.08752 
L 91.368457 238.389407 
L 92.992135 231.728617 
L 94.615814 225.978793 
L 96.239493 221.011574 
L 97.944355 216.51076 
L 99.649218 212.627695 
L 101.435264 209.116173 
L 103.221311 206.083196 
L 105.088541 203.342335 
L 107.036956 200.876679 
L 109.066554 198.668783 
L 111.177336 196.701527 
L 113.369302 194.958745 
L 115.723636 193.375554 
L 118.159154 192.00559 
L 120.75704 190.801086 
L 123.517294 189.771788 
L 126.358732 188.947461 
L 129.362537 188.306213 
L 132.52871 187.86245 
L 135.776068 187.637867 
L 139.023425 187.638227 
L 142.270782 187.863544 
L 145.436956 188.308063 
L 148.440761 188.950093 
L 151.363383 189.802185 
L 154.123636 190.839488 
L 156.721522 192.052693 
L 159.15704 193.432155 
L 161.511374 195.026114 
L 163.70334 196.780706 
L 165.814123 198.761392 
L 167.762537 200.88896 
L 169.629767 203.246205 
L 171.496998 205.971843 
L 173.283044 208.987525 
L 174.987907 212.308247 
L 176.611586 215.945781 
L 178.235264 220.130416 
L 179.858943 224.960105 
L 181.401438 230.249311 
L 182.943932 236.331898 
L 184.486427 243.318854 
L 186.110106 251.751362 
L 187.814968 261.818674 
L 190.250486 277.757943 
L 191.955349 288.399103 
L 192.848372 292.725468 
L 193.41666 294.592475 
L 193.822579 295.332526 
L 194.066131 295.486381 
L 194.309683 295.39073 
L 194.553235 295.017955 
L 194.87797 294.040302 
L 195.28389 291.948533 
L 195.770994 287.989095 
L 196.339281 281.122311 
L 196.988753 270.085885 
L 197.800592 251.738446 
L 200.154926 194.12979 
L 200.560846 189.396359 
L 200.885581 187.722604 
L 201.047949 187.629682 
L 201.210317 188.036892 
L 201.453869 189.570743 
L 201.778605 193.253957 
L 202.265708 201.842846 
L 202.996364 219.542808 
L 204.944778 268.889067 
L 205.675433 281.420649 
L 206.324905 288.95966 
L 206.893192 293.020226 
L 207.299112 294.662992 
L 207.623848 295.325391 
L 207.8674 295.486993 
L 208.110951 295.392366 
L 208.435687 294.913507 
L 208.841607 293.830391 
L 209.409894 291.592779 
L 210.221734 287.363149 
L 211.520677 279.23003 
L 215.255137 255.322528 
L 216.96 246.03437 
L 218.583679 238.343296 
L 220.207357 231.688795 
L 221.831036 225.944416 
L 223.454715 220.981845 
L 225.159577 216.485157 
L 226.86444 212.605563 
L 228.650486 209.097095 
L 230.436533 206.066684 
L 232.303763 203.328081 
L 234.252178 200.864408 
L 236.281776 198.658252 
L 238.392558 196.692522 
L 240.584524 194.951084 
L 242.938858 193.369118 
L 245.374376 192.000234 
L 247.972262 190.79672 
L 250.732516 189.768333 
L 253.573953 188.944831 
L 256.577759 188.304365 
L 259.743932 187.861359 
L 262.99129 187.637509 
L 266.238647 187.638589 
L 269.486004 187.864641 
L 272.652178 188.309916 
L 275.655983 188.952728 
L 278.578605 189.80567 
L 281.338858 190.84389 
L 283.936744 192.058091 
L 286.372262 193.43864 
L 288.726596 195.033833 
L 290.918562 196.789779 
L 293.029345 198.772004 
L 294.977759 200.901251 
L 296.844989 203.260392 
L 298.71222 205.988276 
L 300.498266 209.006509 
L 302.203129 212.330117 
L 303.826808 215.970897 
L 305.450486 220.159357 
L 307.074165 224.993555 
L 308.61666 230.287767 
L 310.159154 236.376118 
L 311.701649 243.369564 
L 313.325328 251.809406 
L 315.03019 261.884021 
L 317.465708 277.827345 
L 319.170571 288.45701 
L 320.063594 292.76719 
L 320.631882 294.618384 
L 321.037801 295.343905 
L 321.281353 295.487594 
L 321.524905 295.380615 
L 321.768457 294.995301 
L 322.093192 293.998989 
L 322.499112 291.880767 
L 322.986216 287.885274 
L 323.554503 280.97181 
L 324.203975 269.880159 
L 325.015814 251.474122 
L 327.370148 193.973639 
L 327.776068 189.312126 
L 328.100803 187.701531 
L 328.263171 187.640871 
L 328.425539 188.080182 
L 328.669091 189.660883 
L 328.993827 193.401891 
L 329.48093 202.061723 
L 330.211586 219.821892 
L 332.078816 267.448196 
L 332.809471 280.397965 
L 333.458943 288.29565 
L 334.02723 292.632303 
L 334.514334 294.692903 
L 334.83907 295.33797 
L 335.082622 295.488 
L 335.326173 295.382974 
L 335.650909 294.891971 
L 336.056829 293.796218 
L 336.625116 291.545062 
L 337.436956 287.302857 
L 338.735899 279.161109 
L 342.389175 255.734909 
L 344.175222 245.981267 
L 345.798901 238.297228 
L 347.422579 231.64901 
L 349.046258 225.910071 
L 350.669937 220.952143 
L 352.374799 216.459577 
L 354.079662 212.583451 
L 355.865708 209.078034 
L 357.651755 206.050186 
L 359.518985 203.313839 
L 361.4674 200.852147 
L 363.496998 198.647728 
L 365.60778 196.683525 
L 367.799746 194.943428 
L 370.15408 193.362686 
L 372.589598 191.994883 
L 375.187484 190.792358 
L 377.947738 189.764882 
L 380.789175 188.942205 
L 383.792981 188.30252 
L 386.959154 187.860269 
L 390.206512 187.637154 
L 393.453869 187.638954 
L 396.701226 187.865739 
L 398.487273 188.089171 
L 398.487273 188.089171 
" style="fill:none;stroke:#0000ff;stroke-linecap:square;stroke-width:1.5;"/>
   </g>
   <g id="line2d_21">
    <path clip-path="url(#p0d6a5a576a)" d="M 73.832727 187.604917 
L 398.487273 187.610127 
L 398.487273 187.610127 
" style="fill:none;stroke:#ffa500;stroke-linecap:square;stroke-width:1.5;"/>
   </g>
   <g id="patch_3">
    <path d="M 57.6 307.584 
L 57.6 41.472 
" style="fill:none;stroke:#000000;stroke-linecap:square;stroke-linejoin:miter;stroke-width:0.8;"/>
   </g>
   <g id="patch_4">
    <path d="M 414.72 307.584 
L 414.72 41.472 
" style="fill:none;stroke:#000000;stroke-linecap:square;stroke-linejoin:miter;stroke-width:0.8;"/>
   </g>
   <g id="patch_5">
    <path d="M 57.6 307.584 
L 414.72 307.584 
" style="fill:none;stroke:#000000;stroke-linecap:square;stroke-linejoin:miter;stroke-width:0.8;"/>
   </g>
   <g id="patch_6">
    <path d="M 57.6 41.472 
L 414.72 41.472 
" style="fill:none;stroke:#000000;stroke-linecap:square;stroke-linejoin:miter;stroke-width:0.8;"/>
   </g>
   <g id="legend_1">
    <g id="patch_7">
     <path d="M 331.237188 93.506375 
L 407.72 93.506375 
Q 409.72 93.506375 409.72 91.506375 
L 409.72 48.472 
Q 409.72 46.472 407.72 46.472 
L 331.237188 46.472 
Q 329.237188 46.472 329.237188 48.472 
L 329.237188 91.506375 
Q 329.237188 93.506375 331.237188 93.506375 
z
" style="fill:#ffffff;opacity:0.8;stroke:#cccccc;stroke-linejoin:miter;"/>
    </g>
    <g id="line2d_22">
     <path d="M 333.237188 54.570438 
L 353.237188 54.570438 
" style="fill:none;stroke:#ff0000;stroke-linecap:square;stroke-width:1.5;"/>
    </g>
    <g id="line2d_23"/>
    <g id="text_21">
     <!-- kinetic -->
     <defs>
      <path d="M 9.421875 54.6875 
L 18.40625 54.6875 
L 18.40625 0 
L 9.421875 0 
z
M 9.421875 75.984375 
L 18.40625 75.984375 
L 18.40625 64.59375 
L 9.421875 64.59375 
z
" id="DejaVuSans-105"/>
      <path d="M 48.78125 52.59375 
L 48.78125 44.1875 
Q 44.96875 46.296875 41.140625 47.34375 
Q 37.3125 48.390625 33.40625 48.390625 
Q 24.65625 48.390625 19.8125 42.84375 
Q 14.984375 37.3125 14.984375 27.296875 
Q 14.984375 17.28125 19.8125 11.734375 
Q 24.65625 6.203125 33.40625 6.203125 
Q 37.3125 6.203125 41.140625 7.25 
Q 44.96875 8.296875 48.78125 10.40625 
L 48.78125 2.09375 
Q 45.015625 0.34375 40.984375 -0.53125 
Q 36.96875 -1.421875 32.421875 -1.421875 
Q 20.0625 -1.421875 12.78125 6.34375 
Q 5.515625 14.109375 5.515625 27.296875 
Q 5.515625 40.671875 12.859375 48.328125 
Q 20.21875 56 33.015625 56 
Q 37.15625 56 41.109375 55.140625 
Q 45.0625 54.296875 48.78125 52.59375 
z
" id="DejaVuSans-99"/>
     </defs>
     <g transform="translate(361.237188 58.070438)scale(0.1 -0.1)">
      <use xlink:href="#DejaVuSans-107"/>
      <use x="57.910156" xlink:href="#DejaVuSans-105"/>
      <use x="85.693359" xlink:href="#DejaVuSans-110"/>
      <use x="149.072266" xlink:href="#DejaVuSans-101"/>
      <use x="210.595703" xlink:href="#DejaVuSans-116"/>
      <use x="249.804688" xlink:href="#DejaVuSans-105"/>
      <use x="277.587891" xlink:href="#DejaVuSans-99"/>
     </g>
    </g>
    <g id="line2d_24">
     <path d="M 333.237188 69.248563 
L 353.237188 69.248563 
" style="fill:none;stroke:#0000ff;stroke-linecap:square;stroke-width:1.5;"/>
    </g>
    <g id="line2d_25"/>
    <g id="text_22">
     <!-- potential -->
     <defs>
      <path d="M 9.421875 75.984375 
L 18.40625 75.984375 
L 18.40625 0 
L 9.421875 0 
z
" id="DejaVuSans-108"/>
     </defs>
     <g transform="translate(361.237188 72.748563)scale(0.1 -0.1)">
      <use xlink:href="#DejaVuSans-112"/>
      <use x="63.476562" xlink:href="#DejaVuSans-111"/>
      <use x="124.658203" xlink:href="#DejaVuSans-116"/>
      <use x="163.867188" xlink:href="#DejaVuSans-101"/>
      <use x="225.390625" xlink:href="#DejaVuSans-110"/>
      <use x="288.769531" xlink:href="#DejaVuSans-116"/>
      <use x="327.978516" xlink:href="#DejaVuSans-105"/>
      <use x="355.761719" xlink:href="#DejaVuSans-97"/>
      <use x="417.041016" xlink:href="#DejaVuSans-108"/>
     </g>
    </g>
    <g id="line2d_26">
     <path d="M 333.237188 83.926688 
L 353.237188 83.926688 
" style="fill:none;stroke:#ffa500;stroke-linecap:square;stroke-width:1.5;"/>
    </g>
    <g id="line2d_27"/>
    <g id="text_23">
     <!-- energy -->
     <g transform="translate(361.237188 87.426688)scale(0.1 -0.1)">
      <use xlink:href="#DejaVuSans-101"/>
      <use x="61.523438" xlink:href="#DejaVuSans-110"/>
      <use x="124.902344" xlink:href="#DejaVuSans-101"/>
      <use x="186.425781" xlink:href="#DejaVuSans-114"/>
      <use x="225.789062" xlink:href="#DejaVuSans-103"/>
      <use x="289.265625" xlink:href="#DejaVuSans-121"/>
     </g>
    </g>
   </g>
  </g>
 </g>
 <defs>
  <clipPath id="p0d6a5a576a">
   <rect height="266.112" width="357.12" x="57.6" y="41.472"/>
  </clipPath>
 </defs>
</svg>
