<?xml version="1.0" encoding="utf-8" standalone="no"?>
<!DOCTYPE svg PUBLIC "-//W3C//DTD SVG 1.1//EN"
  "http://www.w3.org/Graphics/SVG/1.1/DTD/svg11.dtd">
<!-- Created with matplotlib (https://matplotlib.org/) -->
<svg height="673.2pt" version="1.1" viewBox="0 0 1355.04 673.2" width="1355.04pt" xmlns="http://www.w3.org/2000/svg" xmlns:xlink="http://www.w3.org/1999/xlink">
 <defs>
  <style type="text/css">
*{stroke-linecap:butt;stroke-linejoin:round;}
  </style>
 </defs>
 <g id="figure_1">
  <g id="patch_1">
   <path d="M 0 673.2 
L 1355.04 673.2 
L 1355.04 0 
L 0 0 
z
" style="fill:#ffffff;"/>
  </g>
  <g id="axes_1">
   <g id="patch_2">
    <path d="M 169.38 599.148 
L 1219.536 599.148 
L 1219.536 80.784 
L 169.38 80.784 
z
" style="fill:#ffffff;"/>
   </g>
   <g id="matplotlib.axis_1">
    <g id="xtick_1">
     <g id="line2d_1">
      <defs>
       <path d="M 0 0 
L 0 3.5 
" id="m4a2702fc9f" style="stroke:#000000;stroke-width:0.8;"/>
      </defs>
      <g>
       <use style="stroke:#000000;stroke-width:0.8;" x="217.114364" xlink:href="#m4a2702fc9f" y="599.148"/>
      </g>
     </g>
     <g id="text_1">
      <!-- 0 -->
      <defs>
       <path d="M 31.78125 66.40625 
Q 24.171875 66.40625 20.328125 58.90625 
Q 16.5 51.421875 16.5 36.375 
Q 16.5 21.390625 20.328125 13.890625 
Q 24.171875 6.390625 31.78125 6.390625 
Q 39.453125 6.390625 43.28125 13.890625 
Q 47.125 21.390625 47.125 36.375 
Q 47.125 51.421875 43.28125 58.90625 
Q 39.453125 66.40625 31.78125 66.40625 
z
M 31.78125 74.21875 
Q 44.046875 74.21875 50.515625 64.515625 
Q 56.984375 54.828125 56.984375 36.375 
Q 56.984375 17.96875 50.515625 8.265625 
Q 44.046875 -1.421875 31.78125 -1.421875 
Q 19.53125 -1.421875 13.0625 8.265625 
Q 6.59375 17.96875 6.59375 36.375 
Q 6.59375 54.828125 13.0625 64.515625 
Q 19.53125 74.21875 31.78125 74.21875 
z
" id="DejaVuSans-48"/>
      </defs>
      <g transform="translate(213.933114 613.746437)scale(0.1 -0.1)">
       <use xlink:href="#DejaVuSans-48"/>
      </g>
     </g>
    </g>
    <g id="xtick_2">
     <g id="line2d_2">
      <g>
       <use style="stroke:#000000;stroke-width:0.8;" x="336.453256" xlink:href="#m4a2702fc9f" y="599.148"/>
      </g>
     </g>
     <g id="text_2">
      <!-- 5000 -->
      <defs>
       <path d="M 10.796875 72.90625 
L 49.515625 72.90625 
L 49.515625 64.59375 
L 19.828125 64.59375 
L 19.828125 46.734375 
Q 21.96875 47.46875 24.109375 47.828125 
Q 26.265625 48.1875 28.421875 48.1875 
Q 40.625 48.1875 47.75 41.5 
Q 54.890625 34.8125 54.890625 23.390625 
Q 54.890625 11.625 47.5625 5.09375 
Q 40.234375 -1.421875 26.90625 -1.421875 
Q 22.3125 -1.421875 17.546875 -0.640625 
Q 12.796875 0.140625 7.71875 1.703125 
L 7.71875 11.625 
Q 12.109375 9.234375 16.796875 8.0625 
Q 21.484375 6.890625 26.703125 6.890625 
Q 35.15625 6.890625 40.078125 11.328125 
Q 45.015625 15.765625 45.015625 23.390625 
Q 45.015625 31 40.078125 35.4375 
Q 35.15625 39.890625 26.703125 39.890625 
Q 22.75 39.890625 18.8125 39.015625 
Q 14.890625 38.140625 10.796875 36.28125 
z
" id="DejaVuSans-53"/>
      </defs>
      <g transform="translate(323.728256 613.746437)scale(0.1 -0.1)">
       <use xlink:href="#DejaVuSans-53"/>
       <use x="63.623047" xlink:href="#DejaVuSans-48"/>
       <use x="127.246094" xlink:href="#DejaVuSans-48"/>
       <use x="190.869141" xlink:href="#DejaVuSans-48"/>
      </g>
     </g>
    </g>
    <g id="xtick_3">
     <g id="line2d_3">
      <g>
       <use style="stroke:#000000;stroke-width:0.8;" x="455.792149" xlink:href="#m4a2702fc9f" y="599.148"/>
      </g>
     </g>
     <g id="text_3">
      <!-- 10000 -->
      <defs>
       <path d="M 12.40625 8.296875 
L 28.515625 8.296875 
L 28.515625 63.921875 
L 10.984375 60.40625 
L 10.984375 69.390625 
L 28.421875 72.90625 
L 38.28125 72.90625 
L 38.28125 8.296875 
L 54.390625 8.296875 
L 54.390625 0 
L 12.40625 0 
z
" id="DejaVuSans-49"/>
      </defs>
      <g transform="translate(439.885899 613.746437)scale(0.1 -0.1)">
       <use xlink:href="#DejaVuSans-49"/>
       <use x="63.623047" xlink:href="#DejaVuSans-48"/>
       <use x="127.246094" xlink:href="#DejaVuSans-48"/>
       <use x="190.869141" xlink:href="#DejaVuSans-48"/>
       <use x="254.492188" xlink:href="#DejaVuSans-48"/>
      </g>
     </g>
    </g>
    <g id="xtick_4">
     <g id="line2d_4">
      <g>
       <use style="stroke:#000000;stroke-width:0.8;" x="575.131041" xlink:href="#m4a2702fc9f" y="599.148"/>
      </g>
     </g>
     <g id="text_4">
      <!-- 15000 -->
      <g transform="translate(559.224791 613.746437)scale(0.1 -0.1)">
       <use xlink:href="#DejaVuSans-49"/>
       <use x="63.623047" xlink:href="#DejaVuSans-53"/>
       <use x="127.246094" xlink:href="#DejaVuSans-48"/>
       <use x="190.869141" xlink:href="#DejaVuSans-48"/>
       <use x="254.492188" xlink:href="#DejaVuSans-48"/>
      </g>
     </g>
    </g>
    <g id="xtick_5">
     <g id="line2d_5">
      <g>
       <use style="stroke:#000000;stroke-width:0.8;" x="694.469934" xlink:href="#m4a2702fc9f" y="599.148"/>
      </g>
     </g>
     <g id="text_5">
      <!-- 20000 -->
      <defs>
       <path d="M 19.1875 8.296875 
L 53.609375 8.296875 
L 53.609375 0 
L 7.328125 0 
L 7.328125 8.296875 
Q 12.9375 14.109375 22.625 23.890625 
Q 32.328125 33.6875 34.8125 36.53125 
Q 39.546875 41.84375 41.421875 45.53125 
Q 43.3125 49.21875 43.3125 52.78125 
Q 43.3125 58.59375 39.234375 62.25 
Q 35.15625 65.921875 28.609375 65.921875 
Q 23.96875 65.921875 18.8125 64.3125 
Q 13.671875 62.703125 7.8125 59.421875 
L 7.8125 69.390625 
Q 13.765625 71.78125 18.9375 73 
Q 24.125 74.21875 28.421875 74.21875 
Q 39.75 74.21875 46.484375 68.546875 
Q 53.21875 62.890625 53.21875 53.421875 
Q 53.21875 48.921875 51.53125 44.890625 
Q 49.859375 40.875 45.40625 35.40625 
Q 44.1875 33.984375 37.640625 27.21875 
Q 31.109375 20.453125 19.1875 8.296875 
z
" id="DejaVuSans-50"/>
      </defs>
      <g transform="translate(678.563684 613.746437)scale(0.1 -0.1)">
       <use xlink:href="#DejaVuSans-50"/>
       <use x="63.623047" xlink:href="#DejaVuSans-48"/>
       <use x="127.246094" xlink:href="#DejaVuSans-48"/>
       <use x="190.869141" xlink:href="#DejaVuSans-48"/>
       <use x="254.492188" xlink:href="#DejaVuSans-48"/>
      </g>
     </g>
    </g>
    <g id="xtick_6">
     <g id="line2d_6">
      <g>
       <use style="stroke:#000000;stroke-width:0.8;" x="813.808826" xlink:href="#m4a2702fc9f" y="599.148"/>
      </g>
     </g>
     <g id="text_6">
      <!-- 25000 -->
      <g transform="translate(797.902576 613.746437)scale(0.1 -0.1)">
       <use xlink:href="#DejaVuSans-50"/>
       <use x="63.623047" xlink:href="#DejaVuSans-53"/>
       <use x="127.246094" xlink:href="#DejaVuSans-48"/>
       <use x="190.869141" xlink:href="#DejaVuSans-48"/>
       <use x="254.492188" xlink:href="#DejaVuSans-48"/>
      </g>
     </g>
    </g>
    <g id="xtick_7">
     <g id="line2d_7">
      <g>
       <use style="stroke:#000000;stroke-width:0.8;" x="933.147719" xlink:href="#m4a2702fc9f" y="599.148"/>
      </g>
     </g>
     <g id="text_7">
      <!-- 30000 -->
      <defs>
       <path d="M 40.578125 39.3125 
Q 47.65625 37.796875 51.625 33 
Q 55.609375 28.21875 55.609375 21.1875 
Q 55.609375 10.40625 48.1875 4.484375 
Q 40.765625 -1.421875 27.09375 -1.421875 
Q 22.515625 -1.421875 17.65625 -0.515625 
Q 12.796875 0.390625 7.625 2.203125 
L 7.625 11.71875 
Q 11.71875 9.328125 16.59375 8.109375 
Q 21.484375 6.890625 26.8125 6.890625 
Q 36.078125 6.890625 40.9375 10.546875 
Q 45.796875 14.203125 45.796875 21.1875 
Q 45.796875 27.640625 41.28125 31.265625 
Q 36.765625 34.90625 28.71875 34.90625 
L 20.21875 34.90625 
L 20.21875 43.015625 
L 29.109375 43.015625 
Q 36.375 43.015625 40.234375 45.921875 
Q 44.09375 48.828125 44.09375 54.296875 
Q 44.09375 59.90625 40.109375 62.90625 
Q 36.140625 65.921875 28.71875 65.921875 
Q 24.65625 65.921875 20.015625 65.03125 
Q 15.375 64.15625 9.8125 62.3125 
L 9.8125 71.09375 
Q 15.4375 72.65625 20.34375 73.4375 
Q 25.25 74.21875 29.59375 74.21875 
Q 40.828125 74.21875 47.359375 69.109375 
Q 53.90625 64.015625 53.90625 55.328125 
Q 53.90625 49.265625 50.4375 45.09375 
Q 46.96875 40.921875 40.578125 39.3125 
z
" id="DejaVuSans-51"/>
      </defs>
      <g transform="translate(917.241469 613.746437)scale(0.1 -0.1)">
       <use xlink:href="#DejaVuSans-51"/>
       <use x="63.623047" xlink:href="#DejaVuSans-48"/>
       <use x="127.246094" xlink:href="#DejaVuSans-48"/>
       <use x="190.869141" xlink:href="#DejaVuSans-48"/>
       <use x="254.492188" xlink:href="#DejaVuSans-48"/>
      </g>
     </g>
    </g>
    <g id="xtick_8">
     <g id="line2d_8">
      <g>
       <use style="stroke:#000000;stroke-width:0.8;" x="1052.486612" xlink:href="#m4a2702fc9f" y="599.148"/>
      </g>
     </g>
     <g id="text_8">
      <!-- 35000 -->
      <g transform="translate(1036.580362 613.746437)scale(0.1 -0.1)">
       <use xlink:href="#DejaVuSans-51"/>
       <use x="63.623047" xlink:href="#DejaVuSans-53"/>
       <use x="127.246094" xlink:href="#DejaVuSans-48"/>
       <use x="190.869141" xlink:href="#DejaVuSans-48"/>
       <use x="254.492188" xlink:href="#DejaVuSans-48"/>
      </g>
     </g>
    </g>
    <g id="xtick_9">
     <g id="line2d_9">
      <g>
       <use style="stroke:#000000;stroke-width:0.8;" x="1171.825504" xlink:href="#m4a2702fc9f" y="599.148"/>
      </g>
     </g>
     <g id="text_9">
      <!-- 40000 -->
      <defs>
       <path d="M 37.796875 64.3125 
L 12.890625 25.390625 
L 37.796875 25.390625 
z
M 35.203125 72.90625 
L 47.609375 72.90625 
L 47.609375 25.390625 
L 58.015625 25.390625 
L 58.015625 17.1875 
L 47.609375 17.1875 
L 47.609375 0 
L 37.796875 0 
L 37.796875 17.1875 
L 4.890625 17.1875 
L 4.890625 26.703125 
z
" id="DejaVuSans-52"/>
      </defs>
      <g transform="translate(1155.919254 613.746437)scale(0.1 -0.1)">
       <use xlink:href="#DejaVuSans-52"/>
       <use x="63.623047" xlink:href="#DejaVuSans-48"/>
       <use x="127.246094" xlink:href="#DejaVuSans-48"/>
       <use x="190.869141" xlink:href="#DejaVuSans-48"/>
       <use x="254.492188" xlink:href="#DejaVuSans-48"/>
      </g>
     </g>
    </g>
    <g id="text_10">
     <!-- steps 0.0001 tao per step -->
     <defs>
      <path d="M 44.28125 53.078125 
L 44.28125 44.578125 
Q 40.484375 46.53125 36.375 47.5 
Q 32.28125 48.484375 27.875 48.484375 
Q 21.1875 48.484375 17.84375 46.4375 
Q 14.5 44.390625 14.5 40.28125 
Q 14.5 37.15625 16.890625 35.375 
Q 19.28125 33.59375 26.515625 31.984375 
L 29.59375 31.296875 
Q 39.15625 29.25 43.1875 25.515625 
Q 47.21875 21.78125 47.21875 15.09375 
Q 47.21875 7.46875 41.1875 3.015625 
Q 35.15625 -1.421875 24.609375 -1.421875 
Q 20.21875 -1.421875 15.453125 -0.5625 
Q 10.6875 0.296875 5.421875 2 
L 5.421875 11.28125 
Q 10.40625 8.6875 15.234375 7.390625 
Q 20.0625 6.109375 24.8125 6.109375 
Q 31.15625 6.109375 34.5625 8.28125 
Q 37.984375 10.453125 37.984375 14.40625 
Q 37.984375 18.0625 35.515625 20.015625 
Q 33.0625 21.96875 24.703125 23.78125 
L 21.578125 24.515625 
Q 13.234375 26.265625 9.515625 29.90625 
Q 5.8125 33.546875 5.8125 39.890625 
Q 5.8125 47.609375 11.28125 51.796875 
Q 16.75 56 26.8125 56 
Q 31.78125 56 36.171875 55.265625 
Q 40.578125 54.546875 44.28125 53.078125 
z
" id="DejaVuSans-115"/>
      <path d="M 18.3125 70.21875 
L 18.3125 54.6875 
L 36.8125 54.6875 
L 36.8125 47.703125 
L 18.3125 47.703125 
L 18.3125 18.015625 
Q 18.3125 11.328125 20.140625 9.421875 
Q 21.96875 7.515625 27.59375 7.515625 
L 36.8125 7.515625 
L 36.8125 0 
L 27.59375 0 
Q 17.1875 0 13.234375 3.875 
Q 9.28125 7.765625 9.28125 18.015625 
L 9.28125 47.703125 
L 2.6875 47.703125 
L 2.6875 54.6875 
L 9.28125 54.6875 
L 9.28125 70.21875 
z
" id="DejaVuSans-116"/>
      <path d="M 56.203125 29.59375 
L 56.203125 25.203125 
L 14.890625 25.203125 
Q 15.484375 15.921875 20.484375 11.0625 
Q 25.484375 6.203125 34.421875 6.203125 
Q 39.59375 6.203125 44.453125 7.46875 
Q 49.3125 8.734375 54.109375 11.28125 
L 54.109375 2.78125 
Q 49.265625 0.734375 44.1875 -0.34375 
Q 39.109375 -1.421875 33.890625 -1.421875 
Q 20.796875 -1.421875 13.15625 6.1875 
Q 5.515625 13.8125 5.515625 26.8125 
Q 5.515625 40.234375 12.765625 48.109375 
Q 20.015625 56 32.328125 56 
Q 43.359375 56 49.78125 48.890625 
Q 56.203125 41.796875 56.203125 29.59375 
z
M 47.21875 32.234375 
Q 47.125 39.59375 43.09375 43.984375 
Q 39.0625 48.390625 32.421875 48.390625 
Q 24.90625 48.390625 20.390625 44.140625 
Q 15.875 39.890625 15.1875 32.171875 
z
" id="DejaVuSans-101"/>
      <path d="M 18.109375 8.203125 
L 18.109375 -20.796875 
L 9.078125 -20.796875 
L 9.078125 54.6875 
L 18.109375 54.6875 
L 18.109375 46.390625 
Q 20.953125 51.265625 25.265625 53.625 
Q 29.59375 56 35.59375 56 
Q 45.5625 56 51.78125 48.09375 
Q 58.015625 40.1875 58.015625 27.296875 
Q 58.015625 14.40625 51.78125 6.484375 
Q 45.5625 -1.421875 35.59375 -1.421875 
Q 29.59375 -1.421875 25.265625 0.953125 
Q 20.953125 3.328125 18.109375 8.203125 
z
M 48.6875 27.296875 
Q 48.6875 37.203125 44.609375 42.84375 
Q 40.53125 48.484375 33.40625 48.484375 
Q 26.265625 48.484375 22.1875 42.84375 
Q 18.109375 37.203125 18.109375 27.296875 
Q 18.109375 17.390625 22.1875 11.75 
Q 26.265625 6.109375 33.40625 6.109375 
Q 40.53125 6.109375 44.609375 11.75 
Q 48.6875 17.390625 48.6875 27.296875 
z
" id="DejaVuSans-112"/>
      <path id="DejaVuSans-32"/>
      <path d="M 10.6875 12.40625 
L 21 12.40625 
L 21 0 
L 10.6875 0 
z
" id="DejaVuSans-46"/>
      <path d="M 34.28125 27.484375 
Q 23.390625 27.484375 19.1875 25 
Q 14.984375 22.515625 14.984375 16.5 
Q 14.984375 11.71875 18.140625 8.90625 
Q 21.296875 6.109375 26.703125 6.109375 
Q 34.1875 6.109375 38.703125 11.40625 
Q 43.21875 16.703125 43.21875 25.484375 
L 43.21875 27.484375 
z
M 52.203125 31.203125 
L 52.203125 0 
L 43.21875 0 
L 43.21875 8.296875 
Q 40.140625 3.328125 35.546875 0.953125 
Q 30.953125 -1.421875 24.3125 -1.421875 
Q 15.921875 -1.421875 10.953125 3.296875 
Q 6 8.015625 6 15.921875 
Q 6 25.140625 12.171875 29.828125 
Q 18.359375 34.515625 30.609375 34.515625 
L 43.21875 34.515625 
L 43.21875 35.40625 
Q 43.21875 41.609375 39.140625 45 
Q 35.0625 48.390625 27.6875 48.390625 
Q 23 48.390625 18.546875 47.265625 
Q 14.109375 46.140625 10.015625 43.890625 
L 10.015625 52.203125 
Q 14.9375 54.109375 19.578125 55.046875 
Q 24.21875 56 28.609375 56 
Q 40.484375 56 46.34375 49.84375 
Q 52.203125 43.703125 52.203125 31.203125 
z
" id="DejaVuSans-97"/>
      <path d="M 30.609375 48.390625 
Q 23.390625 48.390625 19.1875 42.75 
Q 14.984375 37.109375 14.984375 27.296875 
Q 14.984375 17.484375 19.15625 11.84375 
Q 23.34375 6.203125 30.609375 6.203125 
Q 37.796875 6.203125 41.984375 11.859375 
Q 46.1875 17.53125 46.1875 27.296875 
Q 46.1875 37.015625 41.984375 42.703125 
Q 37.796875 48.390625 30.609375 48.390625 
z
M 30.609375 56 
Q 42.328125 56 49.015625 48.375 
Q 55.71875 40.765625 55.71875 27.296875 
Q 55.71875 13.875 49.015625 6.21875 
Q 42.328125 -1.421875 30.609375 -1.421875 
Q 18.84375 -1.421875 12.171875 6.21875 
Q 5.515625 13.875 5.515625 27.296875 
Q 5.515625 40.765625 12.171875 48.375 
Q 18.84375 56 30.609375 56 
z
" id="DejaVuSans-111"/>
      <path d="M 41.109375 46.296875 
Q 39.59375 47.171875 37.8125 47.578125 
Q 36.03125 48 33.890625 48 
Q 26.265625 48 22.1875 43.046875 
Q 18.109375 38.09375 18.109375 28.8125 
L 18.109375 0 
L 9.078125 0 
L 9.078125 54.6875 
L 18.109375 54.6875 
L 18.109375 46.1875 
Q 20.953125 51.171875 25.484375 53.578125 
Q 30.03125 56 36.53125 56 
Q 37.453125 56 38.578125 55.875 
Q 39.703125 55.765625 41.0625 55.515625 
z
" id="DejaVuSans-114"/>
     </defs>
     <g transform="translate(629.980656 627.424562)scale(0.1 -0.1)">
      <use xlink:href="#DejaVuSans-115"/>
      <use x="52.099609" xlink:href="#DejaVuSans-116"/>
      <use x="91.308594" xlink:href="#DejaVuSans-101"/>
      <use x="152.832031" xlink:href="#DejaVuSans-112"/>
      <use x="216.308594" xlink:href="#DejaVuSans-115"/>
      <use x="268.408203" xlink:href="#DejaVuSans-32"/>
      <use x="300.195312" xlink:href="#DejaVuSans-48"/>
      <use x="363.818359" xlink:href="#DejaVuSans-46"/>
      <use x="395.605469" xlink:href="#DejaVuSans-48"/>
      <use x="459.228516" xlink:href="#DejaVuSans-48"/>
      <use x="522.851562" xlink:href="#DejaVuSans-48"/>
      <use x="586.474609" xlink:href="#DejaVuSans-49"/>
      <use x="650.097656" xlink:href="#DejaVuSans-32"/>
      <use x="681.884766" xlink:href="#DejaVuSans-116"/>
      <use x="721.09375" xlink:href="#DejaVuSans-97"/>
      <use x="782.373047" xlink:href="#DejaVuSans-111"/>
      <use x="843.554688" xlink:href="#DejaVuSans-32"/>
      <use x="875.341797" xlink:href="#DejaVuSans-112"/>
      <use x="938.818359" xlink:href="#DejaVuSans-101"/>
      <use x="1000.341797" xlink:href="#DejaVuSans-114"/>
      <use x="1041.455078" xlink:href="#DejaVuSans-32"/>
      <use x="1073.242188" xlink:href="#DejaVuSans-115"/>
      <use x="1125.341797" xlink:href="#DejaVuSans-116"/>
      <use x="1164.550781" xlink:href="#DejaVuSans-101"/>
      <use x="1226.074219" xlink:href="#DejaVuSans-112"/>
     </g>
    </g>
   </g>
   <g id="matplotlib.axis_2">
    <g id="ytick_1">
     <g id="line2d_10">
      <defs>
       <path d="M 0 0 
L -3.5 0 
" id="mafb78a9bdf" style="stroke:#000000;stroke-width:0.8;"/>
      </defs>
      <g>
       <use style="stroke:#000000;stroke-width:0.8;" x="169.38" xlink:href="#mafb78a9bdf" y="547.577017"/>
      </g>
     </g>
     <g id="text_11">
      <!-- −4 -->
      <defs>
       <path d="M 10.59375 35.5 
L 73.1875 35.5 
L 73.1875 27.203125 
L 10.59375 27.203125 
z
" id="DejaVuSans-8722"/>
      </defs>
      <g transform="translate(147.637812 551.376236)scale(0.1 -0.1)">
       <use xlink:href="#DejaVuSans-8722"/>
       <use x="83.789062" xlink:href="#DejaVuSans-52"/>
      </g>
     </g>
    </g>
    <g id="ytick_2">
     <g id="line2d_11">
      <g>
       <use style="stroke:#000000;stroke-width:0.8;" x="169.38" xlink:href="#mafb78a9bdf" y="489.300263"/>
      </g>
     </g>
     <g id="text_12">
      <!-- −3 -->
      <g transform="translate(147.637812 493.099481)scale(0.1 -0.1)">
       <use xlink:href="#DejaVuSans-8722"/>
       <use x="83.789062" xlink:href="#DejaVuSans-51"/>
      </g>
     </g>
    </g>
    <g id="ytick_3">
     <g id="line2d_12">
      <g>
       <use style="stroke:#000000;stroke-width:0.8;" x="169.38" xlink:href="#mafb78a9bdf" y="431.023508"/>
      </g>
     </g>
     <g id="text_13">
      <!-- −2 -->
      <g transform="translate(147.637812 434.822727)scale(0.1 -0.1)">
       <use xlink:href="#DejaVuSans-8722"/>
       <use x="83.789062" xlink:href="#DejaVuSans-50"/>
      </g>
     </g>
    </g>
    <g id="ytick_4">
     <g id="line2d_13">
      <g>
       <use style="stroke:#000000;stroke-width:0.8;" x="169.38" xlink:href="#mafb78a9bdf" y="372.746753"/>
      </g>
     </g>
     <g id="text_14">
      <!-- −1 -->
      <g transform="translate(147.637812 376.545972)scale(0.1 -0.1)">
       <use xlink:href="#DejaVuSans-8722"/>
       <use x="83.789062" xlink:href="#DejaVuSans-49"/>
      </g>
     </g>
    </g>
    <g id="ytick_5">
     <g id="line2d_14">
      <g>
       <use style="stroke:#000000;stroke-width:0.8;" x="169.38" xlink:href="#mafb78a9bdf" y="314.469999"/>
      </g>
     </g>
     <g id="text_15">
      <!-- 0 -->
      <g transform="translate(156.0175 318.269217)scale(0.1 -0.1)">
       <use xlink:href="#DejaVuSans-48"/>
      </g>
     </g>
    </g>
    <g id="ytick_6">
     <g id="line2d_15">
      <g>
       <use style="stroke:#000000;stroke-width:0.8;" x="169.38" xlink:href="#mafb78a9bdf" y="256.193244"/>
      </g>
     </g>
     <g id="text_16">
      <!-- 1 -->
      <g transform="translate(156.0175 259.992463)scale(0.1 -0.1)">
       <use xlink:href="#DejaVuSans-49"/>
      </g>
     </g>
    </g>
    <g id="ytick_7">
     <g id="line2d_16">
      <g>
       <use style="stroke:#000000;stroke-width:0.8;" x="169.38" xlink:href="#mafb78a9bdf" y="197.916489"/>
      </g>
     </g>
     <g id="text_17">
      <!-- 2 -->
      <g transform="translate(156.0175 201.715708)scale(0.1 -0.1)">
       <use xlink:href="#DejaVuSans-50"/>
      </g>
     </g>
    </g>
    <g id="ytick_8">
     <g id="line2d_17">
      <g>
       <use style="stroke:#000000;stroke-width:0.8;" x="169.38" xlink:href="#mafb78a9bdf" y="139.639735"/>
      </g>
     </g>
     <g id="text_18">
      <!-- 3 -->
      <g transform="translate(156.0175 143.438953)scale(0.1 -0.1)">
       <use xlink:href="#DejaVuSans-51"/>
      </g>
     </g>
    </g>
    <g id="ytick_9">
     <g id="line2d_18">
      <g>
       <use style="stroke:#000000;stroke-width:0.8;" x="169.38" xlink:href="#mafb78a9bdf" y="81.36298"/>
      </g>
     </g>
     <g id="text_19">
      <!-- 4 -->
      <g transform="translate(156.0175 85.162199)scale(0.1 -0.1)">
       <use xlink:href="#DejaVuSans-52"/>
      </g>
     </g>
    </g>
    <g id="text_20">
     <!-- energy emma=118.7K*kb -->
     <defs>
      <path d="M 54.890625 33.015625 
L 54.890625 0 
L 45.90625 0 
L 45.90625 32.71875 
Q 45.90625 40.484375 42.875 44.328125 
Q 39.84375 48.1875 33.796875 48.1875 
Q 26.515625 48.1875 22.3125 43.546875 
Q 18.109375 38.921875 18.109375 30.90625 
L 18.109375 0 
L 9.078125 0 
L 9.078125 54.6875 
L 18.109375 54.6875 
L 18.109375 46.1875 
Q 21.34375 51.125 25.703125 53.5625 
Q 30.078125 56 35.796875 56 
Q 45.21875 56 50.046875 50.171875 
Q 54.890625 44.34375 54.890625 33.015625 
z
" id="DejaVuSans-110"/>
      <path d="M 45.40625 27.984375 
Q 45.40625 37.75 41.375 43.109375 
Q 37.359375 48.484375 30.078125 48.484375 
Q 22.859375 48.484375 18.828125 43.109375 
Q 14.796875 37.75 14.796875 27.984375 
Q 14.796875 18.265625 18.828125 12.890625 
Q 22.859375 7.515625 30.078125 7.515625 
Q 37.359375 7.515625 41.375 12.890625 
Q 45.40625 18.265625 45.40625 27.984375 
z
M 54.390625 6.78125 
Q 54.390625 -7.171875 48.1875 -13.984375 
Q 42 -20.796875 29.203125 -20.796875 
Q 24.46875 -20.796875 20.265625 -20.09375 
Q 16.0625 -19.390625 12.109375 -17.921875 
L 12.109375 -9.1875 
Q 16.0625 -11.328125 19.921875 -12.34375 
Q 23.78125 -13.375 27.78125 -13.375 
Q 36.625 -13.375 41.015625 -8.765625 
Q 45.40625 -4.15625 45.40625 5.171875 
L 45.40625 9.625 
Q 42.625 4.78125 38.28125 2.390625 
Q 33.9375 0 27.875 0 
Q 17.828125 0 11.671875 7.65625 
Q 5.515625 15.328125 5.515625 27.984375 
Q 5.515625 40.671875 11.671875 48.328125 
Q 17.828125 56 27.875 56 
Q 33.9375 56 38.28125 53.609375 
Q 42.625 51.21875 45.40625 46.390625 
L 45.40625 54.6875 
L 54.390625 54.6875 
z
" id="DejaVuSans-103"/>
      <path d="M 32.171875 -5.078125 
Q 28.375 -14.84375 24.75 -17.8125 
Q 21.140625 -20.796875 15.09375 -20.796875 
L 7.90625 -20.796875 
L 7.90625 -13.28125 
L 13.1875 -13.28125 
Q 16.890625 -13.28125 18.9375 -11.515625 
Q 21 -9.765625 23.484375 -3.21875 
L 25.09375 0.875 
L 2.984375 54.6875 
L 12.5 54.6875 
L 29.59375 11.921875 
L 46.6875 54.6875 
L 56.203125 54.6875 
z
" id="DejaVuSans-121"/>
      <path d="M 52 44.1875 
Q 55.375 50.25 60.0625 53.125 
Q 64.75 56 71.09375 56 
Q 79.640625 56 84.28125 50.015625 
Q 88.921875 44.046875 88.921875 33.015625 
L 88.921875 0 
L 79.890625 0 
L 79.890625 32.71875 
Q 79.890625 40.578125 77.09375 44.375 
Q 74.3125 48.1875 68.609375 48.1875 
Q 61.625 48.1875 57.5625 43.546875 
Q 53.515625 38.921875 53.515625 30.90625 
L 53.515625 0 
L 44.484375 0 
L 44.484375 32.71875 
Q 44.484375 40.625 41.703125 44.40625 
Q 38.921875 48.1875 33.109375 48.1875 
Q 26.21875 48.1875 22.15625 43.53125 
Q 18.109375 38.875 18.109375 30.90625 
L 18.109375 0 
L 9.078125 0 
L 9.078125 54.6875 
L 18.109375 54.6875 
L 18.109375 46.1875 
Q 21.1875 51.21875 25.484375 53.609375 
Q 29.78125 56 35.6875 56 
Q 41.65625 56 45.828125 52.96875 
Q 50 49.953125 52 44.1875 
z
" id="DejaVuSans-109"/>
      <path d="M 10.59375 45.40625 
L 73.1875 45.40625 
L 73.1875 37.203125 
L 10.59375 37.203125 
z
M 10.59375 25.484375 
L 73.1875 25.484375 
L 73.1875 17.1875 
L 10.59375 17.1875 
z
" id="DejaVuSans-61"/>
      <path d="M 31.78125 34.625 
Q 24.75 34.625 20.71875 30.859375 
Q 16.703125 27.09375 16.703125 20.515625 
Q 16.703125 13.921875 20.71875 10.15625 
Q 24.75 6.390625 31.78125 6.390625 
Q 38.8125 6.390625 42.859375 10.171875 
Q 46.921875 13.96875 46.921875 20.515625 
Q 46.921875 27.09375 42.890625 30.859375 
Q 38.875 34.625 31.78125 34.625 
z
M 21.921875 38.8125 
Q 15.578125 40.375 12.03125 44.71875 
Q 8.5 49.078125 8.5 55.328125 
Q 8.5 64.0625 14.71875 69.140625 
Q 20.953125 74.21875 31.78125 74.21875 
Q 42.671875 74.21875 48.875 69.140625 
Q 55.078125 64.0625 55.078125 55.328125 
Q 55.078125 49.078125 51.53125 44.71875 
Q 48 40.375 41.703125 38.8125 
Q 48.828125 37.15625 52.796875 32.3125 
Q 56.78125 27.484375 56.78125 20.515625 
Q 56.78125 9.90625 50.3125 4.234375 
Q 43.84375 -1.421875 31.78125 -1.421875 
Q 19.734375 -1.421875 13.25 4.234375 
Q 6.78125 9.90625 6.78125 20.515625 
Q 6.78125 27.484375 10.78125 32.3125 
Q 14.796875 37.15625 21.921875 38.8125 
z
M 18.3125 54.390625 
Q 18.3125 48.734375 21.84375 45.5625 
Q 25.390625 42.390625 31.78125 42.390625 
Q 38.140625 42.390625 41.71875 45.5625 
Q 45.3125 48.734375 45.3125 54.390625 
Q 45.3125 60.0625 41.71875 63.234375 
Q 38.140625 66.40625 31.78125 66.40625 
Q 25.390625 66.40625 21.84375 63.234375 
Q 18.3125 60.0625 18.3125 54.390625 
z
" id="DejaVuSans-56"/>
      <path d="M 8.203125 72.90625 
L 55.078125 72.90625 
L 55.078125 68.703125 
L 28.609375 0 
L 18.3125 0 
L 43.21875 64.59375 
L 8.203125 64.59375 
z
" id="DejaVuSans-55"/>
      <path d="M 9.8125 72.90625 
L 19.671875 72.90625 
L 19.671875 42.09375 
L 52.390625 72.90625 
L 65.09375 72.90625 
L 28.90625 38.921875 
L 67.671875 0 
L 54.6875 0 
L 19.671875 35.109375 
L 19.671875 0 
L 9.8125 0 
z
" id="DejaVuSans-75"/>
      <path d="M 47.015625 60.890625 
L 29.5 51.421875 
L 47.015625 41.890625 
L 44.1875 37.109375 
L 27.78125 47.015625 
L 27.78125 28.609375 
L 22.21875 28.609375 
L 22.21875 47.015625 
L 5.8125 37.109375 
L 2.984375 41.890625 
L 20.515625 51.421875 
L 2.984375 60.890625 
L 5.8125 65.71875 
L 22.21875 55.8125 
L 22.21875 74.21875 
L 27.78125 74.21875 
L 27.78125 55.8125 
L 44.1875 65.71875 
z
" id="DejaVuSans-42"/>
      <path d="M 9.078125 75.984375 
L 18.109375 75.984375 
L 18.109375 31.109375 
L 44.921875 54.6875 
L 56.390625 54.6875 
L 27.390625 29.109375 
L 57.625 0 
L 45.90625 0 
L 18.109375 26.703125 
L 18.109375 0 
L 9.078125 0 
z
" id="DejaVuSans-107"/>
      <path d="M 48.6875 27.296875 
Q 48.6875 37.203125 44.609375 42.84375 
Q 40.53125 48.484375 33.40625 48.484375 
Q 26.265625 48.484375 22.1875 42.84375 
Q 18.109375 37.203125 18.109375 27.296875 
Q 18.109375 17.390625 22.1875 11.75 
Q 26.265625 6.109375 33.40625 6.109375 
Q 40.53125 6.109375 44.609375 11.75 
Q 48.6875 17.390625 48.6875 27.296875 
z
M 18.109375 46.390625 
Q 20.953125 51.265625 25.265625 53.625 
Q 29.59375 56 35.59375 56 
Q 45.5625 56 51.78125 48.09375 
Q 58.015625 40.1875 58.015625 27.296875 
Q 58.015625 14.40625 51.78125 6.484375 
Q 45.5625 -1.421875 35.59375 -1.421875 
Q 29.59375 -1.421875 25.265625 0.953125 
Q 20.953125 3.328125 18.109375 8.203125 
L 18.109375 0 
L 9.078125 0 
L 9.078125 75.984375 
L 18.109375 75.984375 
z
" id="DejaVuSans-98"/>
     </defs>
     <g transform="translate(141.558125 405.212094)rotate(-90)scale(0.1 -0.1)">
      <use xlink:href="#DejaVuSans-101"/>
      <use x="61.523438" xlink:href="#DejaVuSans-110"/>
      <use x="124.902344" xlink:href="#DejaVuSans-101"/>
      <use x="186.425781" xlink:href="#DejaVuSans-114"/>
      <use x="225.789062" xlink:href="#DejaVuSans-103"/>
      <use x="289.265625" xlink:href="#DejaVuSans-121"/>
      <use x="348.445312" xlink:href="#DejaVuSans-32"/>
      <use x="380.232422" xlink:href="#DejaVuSans-101"/>
      <use x="441.755859" xlink:href="#DejaVuSans-109"/>
      <use x="539.167969" xlink:href="#DejaVuSans-109"/>
      <use x="636.580078" xlink:href="#DejaVuSans-97"/>
      <use x="697.859375" xlink:href="#DejaVuSans-61"/>
      <use x="781.648438" xlink:href="#DejaVuSans-49"/>
      <use x="845.271484" xlink:href="#DejaVuSans-49"/>
      <use x="908.894531" xlink:href="#DejaVuSans-56"/>
      <use x="972.517578" xlink:href="#DejaVuSans-46"/>
      <use x="1004.304688" xlink:href="#DejaVuSans-55"/>
      <use x="1067.927734" xlink:href="#DejaVuSans-75"/>
      <use x="1133.503906" xlink:href="#DejaVuSans-42"/>
      <use x="1183.503906" xlink:href="#DejaVuSans-107"/>
      <use x="1241.414062" xlink:href="#DejaVuSans-98"/>
     </g>
    </g>
   </g>
   <g id="line2d_19">
    <path clip-path="url(#p213208cd46)" d="M 217.114364 314.469694 
L 217.353041 314.335564 
L 217.639455 313.853428 
L 217.997471 312.761916 
L 218.450959 310.613234 
L 219.023786 306.717095 
L 219.715951 300.356861 
L 220.575192 290.211227 
L 221.649242 274.649548 
L 223.129044 249.645003 
L 227.616186 171.736991 
L 229.048253 151.748877 
L 230.289377 137.380912 
L 231.411163 126.82936 
L 232.437477 119.148002 
L 233.392189 113.600227 
L 234.251429 109.829301 
L 235.039065 107.307881 
L 235.731231 105.769417 
L 236.351793 104.884541 
L 236.900752 104.460791 
L 237.401975 104.346161 
L 237.879331 104.461195 
L 238.404422 104.82168 
L 239.024984 105.537525 
L 239.764885 106.760496 
L 240.647993 108.681512 
L 241.722043 111.590149 
L 243.034771 115.830768 
L 244.705516 122.037254 
L 246.972955 131.388104 
L 251.483965 151.180272 
L 255.899504 170.102848 
L 259.169389 183.15049 
L 262.176729 194.257865 
L 265.064731 204.091704 
L 267.904996 212.985647 
L 270.721394 221.082797 
L 273.537792 228.509703 
L 276.35419 235.318693 
L 279.194456 241.612719 
L 282.082457 247.475765 
L 284.994326 252.890329 
L 287.95393 257.93122 
L 290.985138 262.657896 
L 294.064082 267.051802 
L 297.238496 271.195324 
L 300.484514 275.067411 
L 303.826003 278.707291 
L 307.262963 282.122437 
L 310.795394 285.320858 
L 314.471032 288.348343 
L 318.266009 291.185898 
L 322.204192 293.853241 
L 326.30945 296.364545 
L 330.581783 298.716829 
L 335.045057 300.919487 
L 339.699274 302.968025 
L 344.568301 304.867819 
L 349.676005 306.620681 
L 355.022388 308.218519 
L 360.607448 309.654002 
L 366.431186 310.920071 
L 372.493602 312.009431 
L 378.770828 312.910979 
L 385.262863 313.617674 
L 391.898106 314.116084 
L 398.652687 314.400559 
L 405.478872 314.465082 
L 412.281189 314.307648 
L 419.03577 313.929295 
L 425.671012 313.335156 
L 432.115312 312.536376 
L 438.36867 311.538496 
L 444.383351 310.355147 
L 450.159353 308.993656 
L 455.696678 307.460738 
L 460.971457 305.771228 
L 466.007558 303.9263 
L 470.804981 301.934199 
L 475.387595 299.792792 
L 479.779266 297.496366 
L 483.979995 295.049815 
L 488.01365 292.443466 
L 491.88023 289.68086 
L 495.603603 286.747559 
L 499.18377 283.645143 
L 502.644598 280.353116 
L 506.009955 276.844026 
L 509.27984 273.110606 
L 512.454255 269.146307 
L 515.533198 264.945598 
L 518.540538 260.467212 
L 521.500143 255.658306 
L 524.388144 250.540518 
L 527.22841 245.05459 
L 530.044808 239.126008 
L 532.81347 232.776547 
L 535.558265 225.923437 
L 538.303059 218.465486 
L 541.047854 210.354924 
L 543.816516 201.46912 
L 546.632914 191.670787 
L 549.568651 180.632006 
L 552.719197 167.894908 
L 556.538042 151.467571 
L 562.982342 123.622219 
L 564.963368 116.141707 
L 566.44317 111.360591 
L 567.636559 108.212629 
L 568.59127 106.27254 
L 569.378907 105.134886 
L 570.023337 104.56099 
L 570.572296 104.354245 
L 571.049651 104.40452 
L 571.527007 104.685369 
L 572.02823 105.246182 
L 572.601057 106.244945 
L 573.245487 107.859566 
L 573.96152 110.312048 
L 574.749157 113.87494 
L 575.608397 118.875925 
L 576.53924 125.697603 
L 577.541687 134.767525 
L 578.639605 146.816157 
L 579.856861 162.735536 
L 581.26506 184.23622 
L 583.102879 216.040022 
L 586.587575 276.975957 
L 587.780964 293.631517 
L 588.711807 303.70168 
L 589.451708 309.498547 
L 590.048403 312.60078 
L 590.501891 313.971082 
L 590.83604 314.422558 
L 591.074717 314.452725 
L 591.313395 314.239074 
L 591.623676 313.598191 
L 592.029429 312.147248 
L 592.530652 309.417758 
L 593.151214 304.665449 
L 593.891115 297.163499 
L 594.821959 285.252186 
L 596.015348 266.830908 
L 597.829299 234.899235 
L 600.884374 181.328702 
L 602.411912 158.583088 
L 603.72464 142.23172 
L 604.894161 130.323793 
L 605.968211 121.574216 
L 606.94679 115.338687 
L 607.829898 111.037136 
L 608.641402 108.107067 
L 609.381303 106.218752 
L 610.025734 105.132183 
L 610.59856 104.567391 
L 611.099784 104.359403 
L 611.577139 104.39178 
L 612.078362 104.650391 
L 612.651189 105.205686 
L 613.343355 106.212287 
L 614.154859 107.807668 
L 615.133438 110.244384 
L 616.326827 113.841667 
L 617.830497 119.130091 
L 619.787655 126.8864 
L 622.794995 139.829119 
L 629.788254 170.128814 
L 633.05814 183.174607 
L 636.06548 194.28014 
L 638.953481 204.112214 
L 641.793747 213.004491 
L 644.610145 221.100089 
L 647.426542 228.525558 
L 650.24294 235.333229 
L 653.083206 241.626041 
L 655.971207 247.487965 
L 658.883076 252.901506 
L 661.842681 257.941456 
L 664.873889 262.667264 
L 667.952832 267.060376 
L 671.127247 271.203161 
L 674.373264 275.074572 
L 677.714753 278.713826 
L 681.151713 282.128396 
L 684.684145 285.326284 
L 688.359783 288.353273 
L 692.154759 291.190369 
L 696.092943 293.857286 
L 700.198201 296.368193 
L 704.470533 298.720106 
L 708.933808 300.922416 
L 713.588024 302.970631 
L 718.457051 304.870121 
L 723.564756 306.622696 
L 728.911138 308.220264 
L 734.496198 309.65549 
L 740.319936 310.921317 
L 746.382352 312.010445 
L 752.659578 312.911772 
L 759.151614 313.618251 
L 765.786856 314.116452 
L 772.541437 314.400721 
L 779.367622 314.465039 
L 786.169939 314.3074 
L 792.92452 313.928839 
L 799.559763 313.334485 
L 806.004063 312.535486 
L 812.257421 311.537378 
L 818.272101 310.35379 
L 824.048103 308.992048 
L 829.56156 307.465983 
L 834.836339 305.777259 
L 839.872441 303.933165 
L 844.669864 301.941951 
L 849.252478 299.801489 
L 853.644149 297.506075 
L 857.844878 295.060605 
L 861.878532 292.455418 
L 865.745112 289.694055 
L 869.468486 286.76209 
L 873.048653 283.661108 
L 876.509481 280.370627 
L 879.874837 276.86321 
L 883.144723 273.131602 
L 886.319138 269.169259 
L 889.398081 264.970657 
L 892.405421 260.494555 
L 895.365026 255.68814 
L 898.253027 250.57304 
L 901.093292 245.09003 
L 903.90969 239.164635 
L 906.678353 232.81861 
L 909.423147 225.969218 
L 912.167942 218.515297 
L 914.912736 210.40906 
L 917.681399 201.52787 
L 920.497796 191.734382 
L 923.433533 180.700596 
L 926.58408 167.968339 
L 930.402924 151.544895 
L 936.871092 123.597046 
L 938.852118 116.119721 
L 940.33192 111.342194 
L 941.525309 108.198055 
L 942.48002 106.261716 
L 943.267657 105.127672 
L 943.912087 104.557105 
L 944.461046 104.353478 
L 944.938402 104.406684 
L 945.415757 104.690674 
L 945.940848 105.289011 
L 946.513675 106.308603 
L 947.158105 107.948495 
L 947.874138 110.431323 
L 948.661775 114.030265 
L 949.521015 119.073523 
L 950.451858 125.943934 
L 951.454305 135.068716 
L 952.552223 147.178314 
L 953.76948 163.162768 
L 955.177679 184.72848 
L 957.015498 216.584138 
L 960.452458 276.704684 
L 961.645847 293.414312 
L 962.57669 303.538973 
L 963.316591 309.38529 
L 963.913286 312.530258 
L 964.390641 313.98396 
L 964.72479 314.426477 
L 964.963468 314.450225 
L 965.202146 314.230163 
L 965.512427 313.580998 
L 965.918179 312.119388 
L 966.419402 309.377128 
L 967.039965 304.609901 
L 967.779866 297.091869 
L 968.710709 285.163587 
L 969.904098 266.726683 
L 971.741917 234.350602 
L 974.749257 181.611379 
L 976.276795 158.823062 
L 977.589523 142.430013 
L 978.759044 130.484267 
L 979.833094 121.701095 
L 980.811673 115.43678 
L 981.718648 111.010803 
L 982.530153 108.087987 
L 983.270054 106.20573 
L 983.914484 105.124001 
L 984.487311 104.563176 
L 984.988534 104.358406 
L 985.46589 104.393633 
L 985.967113 104.655019 
L 986.53994 105.213224 
L 987.232105 106.222987 
L 988.067477 107.874812 
L 989.069924 110.393389 
L 990.287181 114.096852 
L 991.814719 119.512386 
L 993.819612 127.507665 
L 996.946291 141.013873 
L 1003.50993 169.463172 
L 1006.803684 182.648084 
L 1009.834891 193.878664 
L 1012.722893 203.742517 
L 1015.563158 212.66481 
L 1018.379556 220.788367 
L 1021.195954 228.239738 
L 1024.012352 235.071192 
L 1026.852617 241.385894 
L 1029.740619 247.268036 
L 1032.652488 252.700035 
L 1035.612092 257.756938 
L 1038.6433 262.498403 
L 1041.722243 266.905836 
L 1044.87279 271.032022 
L 1048.118808 274.918213 
L 1051.460297 278.571126 
L 1054.897257 281.9983 
L 1058.429688 285.207805 
L 1062.081459 288.226825 
L 1065.876435 291.075689 
L 1069.814619 293.753543 
L 1073.919877 296.274656 
L 1078.192209 298.636077 
L 1082.655484 300.847282 
L 1087.3097 302.903805 
L 1092.178727 304.811093 
L 1097.262564 306.56333 
L 1102.585079 308.162199 
L 1108.146271 309.600235 
L 1113.970009 310.875053 
L 1120.032425 311.972762 
L 1126.309651 312.882315 
L 1132.777818 313.594543 
L 1139.413061 314.101287 
L 1146.167642 314.393962 
L 1152.969959 314.466779 
L 1159.772276 314.318287 
L 1166.526857 313.949016 
L 1171.801636 313.502501 
L 1171.801636 313.502501 
" style="fill:none;stroke:#ff0000;stroke-linecap:square;stroke-width:1.5;"/>
   </g>
   <g id="line2d_20">
    <path clip-path="url(#p213208cd46)" d="M 217.114364 365.462159 
L 217.353041 365.596289 
L 217.639455 366.078426 
L 217.997471 367.16994 
L 218.450959 369.318627 
L 219.023786 373.214775 
L 219.715951 379.575023 
L 220.575192 389.720677 
L 221.649242 405.282385 
L 223.129044 430.286971 
L 227.616186 508.195057 
L 229.048253 528.183175 
L 230.289377 542.551137 
L 231.411163 553.102684 
L 232.437477 560.784035 
L 233.392189 566.331803 
L 234.251429 570.102722 
L 235.039065 572.624136 
L 235.731231 574.162595 
L 236.351793 575.047466 
L 236.900752 575.471213 
L 237.401975 575.585838 
L 237.879331 575.470802 
L 238.404422 575.110314 
L 239.024984 574.394465 
L 239.764885 573.171489 
L 240.647993 571.250469 
L 241.722043 568.341827 
L 243.034771 564.101202 
L 244.705516 557.894712 
L 246.972955 548.543857 
L 251.483965 528.751682 
L 255.899504 509.829104 
L 259.169389 496.781461 
L 262.176729 485.674086 
L 265.064731 475.840247 
L 267.904996 466.946304 
L 270.721394 458.849154 
L 273.537792 451.422249 
L 276.35419 444.613258 
L 279.194456 438.319233 
L 282.082457 432.456188 
L 284.994326 427.041623 
L 287.95393 422.000733 
L 290.985138 417.274057 
L 294.064082 412.880151 
L 297.238496 408.736629 
L 300.484514 404.864542 
L 303.826003 401.224663 
L 307.262963 397.809516 
L 310.795394 394.611096 
L 314.471032 391.583611 
L 318.266009 388.746056 
L 322.204192 386.078713 
L 326.30945 383.567409 
L 330.581783 381.215125 
L 335.045057 379.012467 
L 339.699274 376.963929 
L 344.568301 375.064135 
L 349.676005 373.311273 
L 355.022388 371.713435 
L 360.607448 370.277952 
L 366.431186 369.011883 
L 372.493602 367.922523 
L 378.770828 367.020975 
L 385.262863 366.31428 
L 391.898106 365.81587 
L 398.652687 365.531395 
L 405.478872 365.466873 
L 412.281189 365.624306 
L 419.03577 366.002659 
L 425.671012 366.596799 
L 432.115312 367.395578 
L 438.36867 368.393458 
L 444.383351 369.576807 
L 450.159353 370.938298 
L 455.696678 372.471216 
L 460.971457 374.160726 
L 466.007558 376.005654 
L 470.804981 377.997755 
L 475.387595 380.139162 
L 479.779266 382.435588 
L 483.979995 384.882139 
L 488.01365 387.488488 
L 491.88023 390.251094 
L 495.603603 393.184395 
L 499.18377 396.286811 
L 502.644598 399.578837 
L 506.009955 403.087927 
L 509.27984 406.821347 
L 512.454255 410.785646 
L 515.533198 414.986355 
L 518.540538 419.464741 
L 521.500143 424.273646 
L 524.388144 429.391434 
L 527.22841 434.877362 
L 530.044808 440.805944 
L 532.81347 447.155405 
L 535.558265 454.008514 
L 538.303059 461.466465 
L 541.047854 469.577027 
L 543.816516 478.462831 
L 546.632914 488.261164 
L 549.568651 499.299945 
L 552.719197 512.037044 
L 556.538042 528.464384 
L 562.982342 556.309746 
L 564.963368 563.790263 
L 566.44317 568.571386 
L 567.636559 571.719353 
L 568.59127 573.659447 
L 569.378907 574.797106 
L 570.023337 575.371006 
L 570.572296 575.577754 
L 571.049651 575.527482 
L 571.527007 575.246637 
L 572.02823 574.685828 
L 572.601057 573.687069 
L 573.245487 572.072452 
L 573.96152 569.619976 
L 574.749157 566.05709 
L 575.608397 561.056112 
L 576.53924 554.23444 
L 577.541687 545.164523 
L 578.639605 533.115894 
L 579.856861 517.196514 
L 581.26506 495.695822 
L 583.102879 463.891994 
L 586.587575 402.955972 
L 587.780964 386.30038 
L 588.711807 376.230196 
L 589.451708 370.433317 
L 590.048403 367.331077 
L 590.501891 365.960772 
L 590.83604 365.509295 
L 591.074717 365.479127 
L 591.313395 365.692779 
L 591.623676 366.333663 
L 592.029429 367.78461 
L 592.530652 370.514106 
L 593.151214 375.266425 
L 593.891115 382.768391 
L 594.821959 394.679728 
L 596.015348 413.101038 
L 597.829299 445.032759 
L 600.884374 498.603342 
L 602.411912 521.348963 
L 603.72464 537.700331 
L 604.894161 549.608254 
L 605.968211 558.357823 
L 606.94679 564.593346 
L 607.829898 568.89489 
L 608.641402 571.824952 
L 609.381303 573.713262 
L 610.025734 574.799826 
L 610.59856 575.364614 
L 611.099784 575.572598 
L 611.577139 575.540218 
L 612.078362 575.281604 
L 612.651189 574.726305 
L 613.343355 573.7197 
L 614.154859 572.124315 
L 615.133438 569.687594 
L 616.326827 566.090306 
L 617.830497 560.801877 
L 619.787655 553.045563 
L 622.794995 540.102838 
L 629.788254 509.803138 
L 633.05814 496.757344 
L 636.06548 485.651811 
L 638.953481 475.819737 
L 641.793747 466.92746 
L 644.610145 458.831862 
L 647.426542 451.406393 
L 650.24294 444.598722 
L 653.083206 438.305911 
L 655.971207 432.443987 
L 658.883076 427.030447 
L 661.842681 421.990497 
L 664.873889 417.264689 
L 667.952832 412.871577 
L 671.127247 408.728792 
L 674.373264 404.857382 
L 677.714753 401.218127 
L 681.151713 397.803558 
L 684.684145 394.605669 
L 688.359783 391.57868 
L 692.154759 388.741585 
L 696.092943 386.074668 
L 700.198201 383.563761 
L 704.470533 381.211848 
L 708.933808 379.009538 
L 713.588024 376.961323 
L 718.457051 375.061834 
L 723.564756 373.309258 
L 728.911138 371.71169 
L 734.496198 370.276464 
L 740.319936 369.010637 
L 746.382352 367.921509 
L 752.659578 367.020182 
L 759.151614 366.313703 
L 765.786856 365.815502 
L 772.541437 365.531234 
L 779.367622 365.466916 
L 786.169939 365.624554 
L 792.92452 366.003116 
L 799.559763 366.597469 
L 806.004063 367.396468 
L 812.257421 368.394576 
L 818.272101 369.578165 
L 824.048103 370.939907 
L 829.56156 372.465971 
L 834.836339 374.154695 
L 839.872441 375.998789 
L 844.669864 377.990003 
L 849.252478 380.130465 
L 853.644149 382.425879 
L 857.844878 384.871348 
L 861.878532 387.476536 
L 865.745112 390.237899 
L 869.468486 393.169863 
L 873.048653 396.270845 
L 876.509481 399.561326 
L 879.874837 403.068743 
L 883.144723 406.800352 
L 886.319138 410.762694 
L 889.398081 414.961296 
L 892.405421 419.437398 
L 895.365026 424.243813 
L 898.253027 429.358912 
L 901.093292 434.841922 
L 903.90969 440.767317 
L 906.678353 447.113342 
L 909.423147 453.962733 
L 912.167942 461.416654 
L 914.912736 469.522891 
L 917.681399 478.404081 
L 920.497796 488.197569 
L 923.433533 499.231355 
L 926.58408 511.963613 
L 930.402924 528.387059 
L 936.871092 556.334919 
L 938.852118 563.812249 
L 940.33192 568.589783 
L 941.525309 571.733927 
L 942.48002 573.670271 
L 943.267657 574.804319 
L 943.912087 575.37489 
L 944.461046 575.578521 
L 944.938402 575.525319 
L 945.415757 575.241332 
L 945.940848 574.642999 
L 946.513675 573.623411 
L 947.158105 571.983524 
L 947.874138 569.500702 
L 948.661775 565.901766 
L 949.521015 560.858514 
L 950.451858 553.988109 
L 951.454305 544.863333 
L 952.552223 532.753738 
L 953.76948 516.769282 
L 955.177679 495.203562 
L 957.015498 463.347877 
L 960.452458 403.227246 
L 961.645847 386.517585 
L 962.57669 376.392904 
L 963.316591 370.546574 
L 963.913286 367.401599 
L 964.390641 365.947894 
L 964.72479 365.505376 
L 964.963468 365.481628 
L 965.202146 365.70169 
L 965.512427 366.350857 
L 965.918179 367.81247 
L 966.419402 370.554736 
L 967.039965 375.321973 
L 967.779866 382.840022 
L 968.710709 394.768327 
L 969.904098 413.205264 
L 971.741917 445.581393 
L 974.749257 498.320665 
L 976.276795 521.108989 
L 977.589523 537.502038 
L 978.759044 549.447779 
L 979.833094 558.230945 
L 980.811673 564.495252 
L 981.718648 568.921223 
L 982.530153 571.844032 
L 983.270054 573.726284 
L 983.914484 574.808008 
L 984.487311 575.368829 
L 984.988534 575.573595 
L 985.46589 575.538365 
L 985.967113 575.276976 
L 986.53994 574.718767 
L 987.232105 573.709 
L 988.067477 572.057171 
L 989.069924 569.538588 
L 990.287181 565.835121 
L 991.814719 560.419582 
L 993.819612 552.424297 
L 996.946291 538.918084 
L 1003.50993 510.46878 
L 1006.803684 497.283867 
L 1009.834891 486.053287 
L 1012.722893 476.189434 
L 1015.563158 467.267141 
L 1018.379556 459.143585 
L 1021.195954 451.692214 
L 1024.012352 444.86076 
L 1026.852617 438.546058 
L 1029.740619 432.663916 
L 1032.652488 427.231917 
L 1035.612092 422.175015 
L 1038.6433 417.43355 
L 1041.722243 413.026117 
L 1044.87279 408.899931 
L 1048.118808 405.01374 
L 1051.460297 401.360827 
L 1054.897257 397.933654 
L 1058.429688 394.724148 
L 1062.081459 391.705129 
L 1065.876435 388.856265 
L 1069.814619 386.178411 
L 1073.919877 383.657298 
L 1078.192209 381.295877 
L 1082.655484 379.084672 
L 1087.3097 377.028149 
L 1092.178727 375.120861 
L 1097.262564 373.368624 
L 1102.585079 371.769756 
L 1108.146271 370.33172 
L 1113.970009 369.056901 
L 1120.032425 367.959192 
L 1126.309651 367.04964 
L 1132.777818 366.337411 
L 1139.413061 365.830668 
L 1146.167642 365.537992 
L 1152.969959 365.465175 
L 1159.772276 365.613668 
L 1166.526857 365.982938 
L 1171.801636 366.429453 
L 1171.801636 366.429453 
" style="fill:none;stroke:#0000ff;stroke-linecap:square;stroke-width:1.5;"/>
   </g>
   <g id="line2d_21">
    <path clip-path="url(#p213208cd46)" d="M 217.114364 365.461854 
L 1171.801636 365.461956 
L 1171.801636 365.461956 
" style="fill:none;stroke:#ffa500;stroke-linecap:square;stroke-width:1.5;"/>
   </g>
   <g id="patch_3">
    <path d="M 169.38 599.148 
L 169.38 80.784 
" style="fill:none;stroke:#000000;stroke-linecap:square;stroke-linejoin:miter;stroke-width:0.8;"/>
   </g>
   <g id="patch_4">
    <path d="M 1219.536 599.148 
L 1219.536 80.784 
" style="fill:none;stroke:#000000;stroke-linecap:square;stroke-linejoin:miter;stroke-width:0.8;"/>
   </g>
   <g id="patch_5">
    <path d="M 169.38 599.148 
L 1219.536 599.148 
" style="fill:none;stroke:#000000;stroke-linecap:square;stroke-linejoin:miter;stroke-width:0.8;"/>
   </g>
   <g id="patch_6">
    <path d="M 169.38 80.784 
L 1219.536 80.784 
" style="fill:none;stroke:#000000;stroke-linecap:square;stroke-linejoin:miter;stroke-width:0.8;"/>
   </g>
   <g id="legend_1">
    <g id="patch_7">
     <path d="M 1136.053187 132.818375 
L 1212.536 132.818375 
Q 1214.536 132.818375 1214.536 130.818375 
L 1214.536 87.784 
Q 1214.536 85.784 1212.536 85.784 
L 1136.053187 85.784 
Q 1134.053187 85.784 1134.053187 87.784 
L 1134.053187 130.818375 
Q 1134.053187 132.818375 1136.053187 132.818375 
z
" style="fill:#ffffff;opacity:0.8;stroke:#cccccc;stroke-linejoin:miter;"/>
    </g>
    <g id="line2d_22">
     <path d="M 1138.053187 93.882437 
L 1158.053187 93.882437 
" style="fill:none;stroke:#ff0000;stroke-linecap:square;stroke-width:1.5;"/>
    </g>
    <g id="line2d_23"/>
    <g id="text_21">
     <!-- kinetic -->
     <defs>
      <path d="M 9.421875 54.6875 
L 18.40625 54.6875 
L 18.40625 0 
L 9.421875 0 
z
M 9.421875 75.984375 
L 18.40625 75.984375 
L 18.40625 64.59375 
L 9.421875 64.59375 
z
" id="DejaVuSans-105"/>
      <path d="M 48.78125 52.59375 
L 48.78125 44.1875 
Q 44.96875 46.296875 41.140625 47.34375 
Q 37.3125 48.390625 33.40625 48.390625 
Q 24.65625 48.390625 19.8125 42.84375 
Q 14.984375 37.3125 14.984375 27.296875 
Q 14.984375 17.28125 19.8125 11.734375 
Q 24.65625 6.203125 33.40625 6.203125 
Q 37.3125 6.203125 41.140625 7.25 
Q 44.96875 8.296875 48.78125 10.40625 
L 48.78125 2.09375 
Q 45.015625 0.34375 40.984375 -0.53125 
Q 36.96875 -1.421875 32.421875 -1.421875 
Q 20.0625 -1.421875 12.78125 6.34375 
Q 5.515625 14.109375 5.515625 27.296875 
Q 5.515625 40.671875 12.859375 48.328125 
Q 20.21875 56 33.015625 56 
Q 37.15625 56 41.109375 55.140625 
Q 45.0625 54.296875 48.78125 52.59375 
z
" id="DejaVuSans-99"/>
     </defs>
     <g transform="translate(1166.053187 97.382437)scale(0.1 -0.1)">
      <use xlink:href="#DejaVuSans-107"/>
      <use x="57.910156" xlink:href="#DejaVuSans-105"/>
      <use x="85.693359" xlink:href="#DejaVuSans-110"/>
      <use x="149.072266" xlink:href="#DejaVuSans-101"/>
      <use x="210.595703" xlink:href="#DejaVuSans-116"/>
      <use x="249.804688" xlink:href="#DejaVuSans-105"/>
      <use x="277.587891" xlink:href="#DejaVuSans-99"/>
     </g>
    </g>
    <g id="line2d_24">
     <path d="M 1138.053187 108.560562 
L 1158.053187 108.560562 
" style="fill:none;stroke:#0000ff;stroke-linecap:square;stroke-width:1.5;"/>
    </g>
    <g id="line2d_25"/>
    <g id="text_22">
     <!-- potential -->
     <defs>
      <path d="M 9.421875 75.984375 
L 18.40625 75.984375 
L 18.40625 0 
L 9.421875 0 
z
" id="DejaVuSans-108"/>
     </defs>
     <g transform="translate(1166.053187 112.060562)scale(0.1 -0.1)">
      <use xlink:href="#DejaVuSans-112"/>
      <use x="63.476562" xlink:href="#DejaVuSans-111"/>
      <use x="124.658203" xlink:href="#DejaVuSans-116"/>
      <use x="163.867188" xlink:href="#DejaVuSans-101"/>
      <use x="225.390625" xlink:href="#DejaVuSans-110"/>
      <use x="288.769531" xlink:href="#DejaVuSans-116"/>
      <use x="327.978516" xlink:href="#DejaVuSans-105"/>
      <use x="355.761719" xlink:href="#DejaVuSans-97"/>
      <use x="417.041016" xlink:href="#DejaVuSans-108"/>
     </g>
    </g>
    <g id="line2d_26">
     <path d="M 1138.053187 123.238687 
L 1158.053187 123.238687 
" style="fill:none;stroke:#ffa500;stroke-linecap:square;stroke-width:1.5;"/>
    </g>
    <g id="line2d_27"/>
    <g id="text_23">
     <!-- energy -->
     <g transform="translate(1166.053187 126.738687)scale(0.1 -0.1)">
      <use xlink:href="#DejaVuSans-101"/>
      <use x="61.523438" xlink:href="#DejaVuSans-110"/>
      <use x="124.902344" xlink:href="#DejaVuSans-101"/>
      <use x="186.425781" xlink:href="#DejaVuSans-114"/>
      <use x="225.789062" xlink:href="#DejaVuSans-103"/>
      <use x="289.265625" xlink:href="#DejaVuSans-121"/>
     </g>
    </g>
   </g>
  </g>
 </g>
 <defs>
  <clipPath id="p213208cd46">
   <rect height="518.364" width="1050.156" x="169.38" y="80.784"/>
  </clipPath>
 </defs>
</svg>
