<?xml version="1.0" encoding="utf-8" standalone="no"?>
<!DOCTYPE svg PUBLIC "-//W3C//DTD SVG 1.1//EN"
  "http://www.w3.org/Graphics/SVG/1.1/DTD/svg11.dtd">
<!-- Created with matplotlib (https://matplotlib.org/) -->
<svg height="345.6pt" version="1.1" viewBox="0 0 460.8 345.6" width="460.8pt" xmlns="http://www.w3.org/2000/svg" xmlns:xlink="http://www.w3.org/1999/xlink">
 <defs>
  <style type="text/css">
*{stroke-linecap:butt;stroke-linejoin:round;}
  </style>
 </defs>
 <g id="figure_1">
  <g id="patch_1">
   <path d="M 0 345.6 
L 460.8 345.6 
L 460.8 0 
L 0 0 
z
" style="fill:#ffffff;"/>
  </g>
  <g id="axes_1">
   <g id="patch_2">
    <path d="M 57.6 307.584 
L 414.72 307.584 
L 414.72 41.472 
L 57.6 41.472 
z
" style="fill:#ffffff;"/>
   </g>
   <g id="matplotlib.axis_1">
    <g id="xtick_1">
     <g id="line2d_1">
      <defs>
       <path d="M 0 0 
L 0 3.5 
" id="m67cef81449" style="stroke:#000000;stroke-width:0.8;"/>
      </defs>
      <g>
       <use style="stroke:#000000;stroke-width:0.8;" x="73.832727" xlink:href="#m67cef81449" y="307.584"/>
      </g>
     </g>
     <g id="text_1">
      <!-- 0 -->
      <defs>
       <path d="M 31.78125 66.40625 
Q 24.171875 66.40625 20.328125 58.90625 
Q 16.5 51.421875 16.5 36.375 
Q 16.5 21.390625 20.328125 13.890625 
Q 24.171875 6.390625 31.78125 6.390625 
Q 39.453125 6.390625 43.28125 13.890625 
Q 47.125 21.390625 47.125 36.375 
Q 47.125 51.421875 43.28125 58.90625 
Q 39.453125 66.40625 31.78125 66.40625 
z
M 31.78125 74.21875 
Q 44.046875 74.21875 50.515625 64.515625 
Q 56.984375 54.828125 56.984375 36.375 
Q 56.984375 17.96875 50.515625 8.265625 
Q 44.046875 -1.421875 31.78125 -1.421875 
Q 19.53125 -1.421875 13.0625 8.265625 
Q 6.59375 17.96875 6.59375 36.375 
Q 6.59375 54.828125 13.0625 64.515625 
Q 19.53125 74.21875 31.78125 74.21875 
z
" id="DejaVuSans-48"/>
      </defs>
      <g transform="translate(70.651477 322.182437)scale(0.1 -0.1)">
       <use xlink:href="#DejaVuSans-48"/>
      </g>
     </g>
    </g>
    <g id="xtick_2">
     <g id="line2d_2">
      <g>
       <use style="stroke:#000000;stroke-width:0.8;" x="138.776625" xlink:href="#m67cef81449" y="307.584"/>
      </g>
     </g>
     <g id="text_2">
      <!-- 1000 -->
      <defs>
       <path d="M 12.40625 8.296875 
L 28.515625 8.296875 
L 28.515625 63.921875 
L 10.984375 60.40625 
L 10.984375 69.390625 
L 28.421875 72.90625 
L 38.28125 72.90625 
L 38.28125 8.296875 
L 54.390625 8.296875 
L 54.390625 0 
L 12.40625 0 
z
" id="DejaVuSans-49"/>
      </defs>
      <g transform="translate(126.051625 322.182437)scale(0.1 -0.1)">
       <use xlink:href="#DejaVuSans-49"/>
       <use x="63.623047" xlink:href="#DejaVuSans-48"/>
       <use x="127.246094" xlink:href="#DejaVuSans-48"/>
       <use x="190.869141" xlink:href="#DejaVuSans-48"/>
      </g>
     </g>
    </g>
    <g id="xtick_3">
     <g id="line2d_3">
      <g>
       <use style="stroke:#000000;stroke-width:0.8;" x="203.720523" xlink:href="#m67cef81449" y="307.584"/>
      </g>
     </g>
     <g id="text_3">
      <!-- 2000 -->
      <defs>
       <path d="M 19.1875 8.296875 
L 53.609375 8.296875 
L 53.609375 0 
L 7.328125 0 
L 7.328125 8.296875 
Q 12.9375 14.109375 22.625 23.890625 
Q 32.328125 33.6875 34.8125 36.53125 
Q 39.546875 41.84375 41.421875 45.53125 
Q 43.3125 49.21875 43.3125 52.78125 
Q 43.3125 58.59375 39.234375 62.25 
Q 35.15625 65.921875 28.609375 65.921875 
Q 23.96875 65.921875 18.8125 64.3125 
Q 13.671875 62.703125 7.8125 59.421875 
L 7.8125 69.390625 
Q 13.765625 71.78125 18.9375 73 
Q 24.125 74.21875 28.421875 74.21875 
Q 39.75 74.21875 46.484375 68.546875 
Q 53.21875 62.890625 53.21875 53.421875 
Q 53.21875 48.921875 51.53125 44.890625 
Q 49.859375 40.875 45.40625 35.40625 
Q 44.1875 33.984375 37.640625 27.21875 
Q 31.109375 20.453125 19.1875 8.296875 
z
" id="DejaVuSans-50"/>
      </defs>
      <g transform="translate(190.995523 322.182437)scale(0.1 -0.1)">
       <use xlink:href="#DejaVuSans-50"/>
       <use x="63.623047" xlink:href="#DejaVuSans-48"/>
       <use x="127.246094" xlink:href="#DejaVuSans-48"/>
       <use x="190.869141" xlink:href="#DejaVuSans-48"/>
      </g>
     </g>
    </g>
    <g id="xtick_4">
     <g id="line2d_4">
      <g>
       <use style="stroke:#000000;stroke-width:0.8;" x="268.664421" xlink:href="#m67cef81449" y="307.584"/>
      </g>
     </g>
     <g id="text_4">
      <!-- 3000 -->
      <defs>
       <path d="M 40.578125 39.3125 
Q 47.65625 37.796875 51.625 33 
Q 55.609375 28.21875 55.609375 21.1875 
Q 55.609375 10.40625 48.1875 4.484375 
Q 40.765625 -1.421875 27.09375 -1.421875 
Q 22.515625 -1.421875 17.65625 -0.515625 
Q 12.796875 0.390625 7.625 2.203125 
L 7.625 11.71875 
Q 11.71875 9.328125 16.59375 8.109375 
Q 21.484375 6.890625 26.8125 6.890625 
Q 36.078125 6.890625 40.9375 10.546875 
Q 45.796875 14.203125 45.796875 21.1875 
Q 45.796875 27.640625 41.28125 31.265625 
Q 36.765625 34.90625 28.71875 34.90625 
L 20.21875 34.90625 
L 20.21875 43.015625 
L 29.109375 43.015625 
Q 36.375 43.015625 40.234375 45.921875 
Q 44.09375 48.828125 44.09375 54.296875 
Q 44.09375 59.90625 40.109375 62.90625 
Q 36.140625 65.921875 28.71875 65.921875 
Q 24.65625 65.921875 20.015625 65.03125 
Q 15.375 64.15625 9.8125 62.3125 
L 9.8125 71.09375 
Q 15.4375 72.65625 20.34375 73.4375 
Q 25.25 74.21875 29.59375 74.21875 
Q 40.828125 74.21875 47.359375 69.109375 
Q 53.90625 64.015625 53.90625 55.328125 
Q 53.90625 49.265625 50.4375 45.09375 
Q 46.96875 40.921875 40.578125 39.3125 
z
" id="DejaVuSans-51"/>
      </defs>
      <g transform="translate(255.939421 322.182437)scale(0.1 -0.1)">
       <use xlink:href="#DejaVuSans-51"/>
       <use x="63.623047" xlink:href="#DejaVuSans-48"/>
       <use x="127.246094" xlink:href="#DejaVuSans-48"/>
       <use x="190.869141" xlink:href="#DejaVuSans-48"/>
      </g>
     </g>
    </g>
    <g id="xtick_5">
     <g id="line2d_5">
      <g>
       <use style="stroke:#000000;stroke-width:0.8;" x="333.608319" xlink:href="#m67cef81449" y="307.584"/>
      </g>
     </g>
     <g id="text_5">
      <!-- 4000 -->
      <defs>
       <path d="M 37.796875 64.3125 
L 12.890625 25.390625 
L 37.796875 25.390625 
z
M 35.203125 72.90625 
L 47.609375 72.90625 
L 47.609375 25.390625 
L 58.015625 25.390625 
L 58.015625 17.1875 
L 47.609375 17.1875 
L 47.609375 0 
L 37.796875 0 
L 37.796875 17.1875 
L 4.890625 17.1875 
L 4.890625 26.703125 
z
" id="DejaVuSans-52"/>
      </defs>
      <g transform="translate(320.883319 322.182437)scale(0.1 -0.1)">
       <use xlink:href="#DejaVuSans-52"/>
       <use x="63.623047" xlink:href="#DejaVuSans-48"/>
       <use x="127.246094" xlink:href="#DejaVuSans-48"/>
       <use x="190.869141" xlink:href="#DejaVuSans-48"/>
      </g>
     </g>
    </g>
    <g id="xtick_6">
     <g id="line2d_6">
      <g>
       <use style="stroke:#000000;stroke-width:0.8;" x="398.552217" xlink:href="#m67cef81449" y="307.584"/>
      </g>
     </g>
     <g id="text_6">
      <!-- 5000 -->
      <defs>
       <path d="M 10.796875 72.90625 
L 49.515625 72.90625 
L 49.515625 64.59375 
L 19.828125 64.59375 
L 19.828125 46.734375 
Q 21.96875 47.46875 24.109375 47.828125 
Q 26.265625 48.1875 28.421875 48.1875 
Q 40.625 48.1875 47.75 41.5 
Q 54.890625 34.8125 54.890625 23.390625 
Q 54.890625 11.625 47.5625 5.09375 
Q 40.234375 -1.421875 26.90625 -1.421875 
Q 22.3125 -1.421875 17.546875 -0.640625 
Q 12.796875 0.140625 7.71875 1.703125 
L 7.71875 11.625 
Q 12.109375 9.234375 16.796875 8.0625 
Q 21.484375 6.890625 26.703125 6.890625 
Q 35.15625 6.890625 40.078125 11.328125 
Q 45.015625 15.765625 45.015625 23.390625 
Q 45.015625 31 40.078125 35.4375 
Q 35.15625 39.890625 26.703125 39.890625 
Q 22.75 39.890625 18.8125 39.015625 
Q 14.890625 38.140625 10.796875 36.28125 
z
" id="DejaVuSans-53"/>
      </defs>
      <g transform="translate(385.827217 322.182437)scale(0.1 -0.1)">
       <use xlink:href="#DejaVuSans-53"/>
       <use x="63.623047" xlink:href="#DejaVuSans-48"/>
       <use x="127.246094" xlink:href="#DejaVuSans-48"/>
       <use x="190.869141" xlink:href="#DejaVuSans-48"/>
      </g>
     </g>
    </g>
    <g id="text_7">
     <!-- steps 0.0001 tao per step -->
     <defs>
      <path d="M 44.28125 53.078125 
L 44.28125 44.578125 
Q 40.484375 46.53125 36.375 47.5 
Q 32.28125 48.484375 27.875 48.484375 
Q 21.1875 48.484375 17.84375 46.4375 
Q 14.5 44.390625 14.5 40.28125 
Q 14.5 37.15625 16.890625 35.375 
Q 19.28125 33.59375 26.515625 31.984375 
L 29.59375 31.296875 
Q 39.15625 29.25 43.1875 25.515625 
Q 47.21875 21.78125 47.21875 15.09375 
Q 47.21875 7.46875 41.1875 3.015625 
Q 35.15625 -1.421875 24.609375 -1.421875 
Q 20.21875 -1.421875 15.453125 -0.5625 
Q 10.6875 0.296875 5.421875 2 
L 5.421875 11.28125 
Q 10.40625 8.6875 15.234375 7.390625 
Q 20.0625 6.109375 24.8125 6.109375 
Q 31.15625 6.109375 34.5625 8.28125 
Q 37.984375 10.453125 37.984375 14.40625 
Q 37.984375 18.0625 35.515625 20.015625 
Q 33.0625 21.96875 24.703125 23.78125 
L 21.578125 24.515625 
Q 13.234375 26.265625 9.515625 29.90625 
Q 5.8125 33.546875 5.8125 39.890625 
Q 5.8125 47.609375 11.28125 51.796875 
Q 16.75 56 26.8125 56 
Q 31.78125 56 36.171875 55.265625 
Q 40.578125 54.546875 44.28125 53.078125 
z
" id="DejaVuSans-115"/>
      <path d="M 18.3125 70.21875 
L 18.3125 54.6875 
L 36.8125 54.6875 
L 36.8125 47.703125 
L 18.3125 47.703125 
L 18.3125 18.015625 
Q 18.3125 11.328125 20.140625 9.421875 
Q 21.96875 7.515625 27.59375 7.515625 
L 36.8125 7.515625 
L 36.8125 0 
L 27.59375 0 
Q 17.1875 0 13.234375 3.875 
Q 9.28125 7.765625 9.28125 18.015625 
L 9.28125 47.703125 
L 2.6875 47.703125 
L 2.6875 54.6875 
L 9.28125 54.6875 
L 9.28125 70.21875 
z
" id="DejaVuSans-116"/>
      <path d="M 56.203125 29.59375 
L 56.203125 25.203125 
L 14.890625 25.203125 
Q 15.484375 15.921875 20.484375 11.0625 
Q 25.484375 6.203125 34.421875 6.203125 
Q 39.59375 6.203125 44.453125 7.46875 
Q 49.3125 8.734375 54.109375 11.28125 
L 54.109375 2.78125 
Q 49.265625 0.734375 44.1875 -0.34375 
Q 39.109375 -1.421875 33.890625 -1.421875 
Q 20.796875 -1.421875 13.15625 6.1875 
Q 5.515625 13.8125 5.515625 26.8125 
Q 5.515625 40.234375 12.765625 48.109375 
Q 20.015625 56 32.328125 56 
Q 43.359375 56 49.78125 48.890625 
Q 56.203125 41.796875 56.203125 29.59375 
z
M 47.21875 32.234375 
Q 47.125 39.59375 43.09375 43.984375 
Q 39.0625 48.390625 32.421875 48.390625 
Q 24.90625 48.390625 20.390625 44.140625 
Q 15.875 39.890625 15.1875 32.171875 
z
" id="DejaVuSans-101"/>
      <path d="M 18.109375 8.203125 
L 18.109375 -20.796875 
L 9.078125 -20.796875 
L 9.078125 54.6875 
L 18.109375 54.6875 
L 18.109375 46.390625 
Q 20.953125 51.265625 25.265625 53.625 
Q 29.59375 56 35.59375 56 
Q 45.5625 56 51.78125 48.09375 
Q 58.015625 40.1875 58.015625 27.296875 
Q 58.015625 14.40625 51.78125 6.484375 
Q 45.5625 -1.421875 35.59375 -1.421875 
Q 29.59375 -1.421875 25.265625 0.953125 
Q 20.953125 3.328125 18.109375 8.203125 
z
M 48.6875 27.296875 
Q 48.6875 37.203125 44.609375 42.84375 
Q 40.53125 48.484375 33.40625 48.484375 
Q 26.265625 48.484375 22.1875 42.84375 
Q 18.109375 37.203125 18.109375 27.296875 
Q 18.109375 17.390625 22.1875 11.75 
Q 26.265625 6.109375 33.40625 6.109375 
Q 40.53125 6.109375 44.609375 11.75 
Q 48.6875 17.390625 48.6875 27.296875 
z
" id="DejaVuSans-112"/>
      <path id="DejaVuSans-32"/>
      <path d="M 10.6875 12.40625 
L 21 12.40625 
L 21 0 
L 10.6875 0 
z
" id="DejaVuSans-46"/>
      <path d="M 34.28125 27.484375 
Q 23.390625 27.484375 19.1875 25 
Q 14.984375 22.515625 14.984375 16.5 
Q 14.984375 11.71875 18.140625 8.90625 
Q 21.296875 6.109375 26.703125 6.109375 
Q 34.1875 6.109375 38.703125 11.40625 
Q 43.21875 16.703125 43.21875 25.484375 
L 43.21875 27.484375 
z
M 52.203125 31.203125 
L 52.203125 0 
L 43.21875 0 
L 43.21875 8.296875 
Q 40.140625 3.328125 35.546875 0.953125 
Q 30.953125 -1.421875 24.3125 -1.421875 
Q 15.921875 -1.421875 10.953125 3.296875 
Q 6 8.015625 6 15.921875 
Q 6 25.140625 12.171875 29.828125 
Q 18.359375 34.515625 30.609375 34.515625 
L 43.21875 34.515625 
L 43.21875 35.40625 
Q 43.21875 41.609375 39.140625 45 
Q 35.0625 48.390625 27.6875 48.390625 
Q 23 48.390625 18.546875 47.265625 
Q 14.109375 46.140625 10.015625 43.890625 
L 10.015625 52.203125 
Q 14.9375 54.109375 19.578125 55.046875 
Q 24.21875 56 28.609375 56 
Q 40.484375 56 46.34375 49.84375 
Q 52.203125 43.703125 52.203125 31.203125 
z
" id="DejaVuSans-97"/>
      <path d="M 30.609375 48.390625 
Q 23.390625 48.390625 19.1875 42.75 
Q 14.984375 37.109375 14.984375 27.296875 
Q 14.984375 17.484375 19.15625 11.84375 
Q 23.34375 6.203125 30.609375 6.203125 
Q 37.796875 6.203125 41.984375 11.859375 
Q 46.1875 17.53125 46.1875 27.296875 
Q 46.1875 37.015625 41.984375 42.703125 
Q 37.796875 48.390625 30.609375 48.390625 
z
M 30.609375 56 
Q 42.328125 56 49.015625 48.375 
Q 55.71875 40.765625 55.71875 27.296875 
Q 55.71875 13.875 49.015625 6.21875 
Q 42.328125 -1.421875 30.609375 -1.421875 
Q 18.84375 -1.421875 12.171875 6.21875 
Q 5.515625 13.875 5.515625 27.296875 
Q 5.515625 40.765625 12.171875 48.375 
Q 18.84375 56 30.609375 56 
z
" id="DejaVuSans-111"/>
      <path d="M 41.109375 46.296875 
Q 39.59375 47.171875 37.8125 47.578125 
Q 36.03125 48 33.890625 48 
Q 26.265625 48 22.1875 43.046875 
Q 18.109375 38.09375 18.109375 28.8125 
L 18.109375 0 
L 9.078125 0 
L 9.078125 54.6875 
L 18.109375 54.6875 
L 18.109375 46.1875 
Q 20.953125 51.171875 25.484375 53.578125 
Q 30.03125 56 36.53125 56 
Q 37.453125 56 38.578125 55.875 
Q 39.703125 55.765625 41.0625 55.515625 
z
" id="DejaVuSans-114"/>
     </defs>
     <g transform="translate(171.682656 335.860562)scale(0.1 -0.1)">
      <use xlink:href="#DejaVuSans-115"/>
      <use x="52.099609" xlink:href="#DejaVuSans-116"/>
      <use x="91.308594" xlink:href="#DejaVuSans-101"/>
      <use x="152.832031" xlink:href="#DejaVuSans-112"/>
      <use x="216.308594" xlink:href="#DejaVuSans-115"/>
      <use x="268.408203" xlink:href="#DejaVuSans-32"/>
      <use x="300.195312" xlink:href="#DejaVuSans-48"/>
      <use x="363.818359" xlink:href="#DejaVuSans-46"/>
      <use x="395.605469" xlink:href="#DejaVuSans-48"/>
      <use x="459.228516" xlink:href="#DejaVuSans-48"/>
      <use x="522.851562" xlink:href="#DejaVuSans-48"/>
      <use x="586.474609" xlink:href="#DejaVuSans-49"/>
      <use x="650.097656" xlink:href="#DejaVuSans-32"/>
      <use x="681.884766" xlink:href="#DejaVuSans-116"/>
      <use x="721.09375" xlink:href="#DejaVuSans-97"/>
      <use x="782.373047" xlink:href="#DejaVuSans-111"/>
      <use x="843.554688" xlink:href="#DejaVuSans-32"/>
      <use x="875.341797" xlink:href="#DejaVuSans-112"/>
      <use x="938.818359" xlink:href="#DejaVuSans-101"/>
      <use x="1000.341797" xlink:href="#DejaVuSans-114"/>
      <use x="1041.455078" xlink:href="#DejaVuSans-32"/>
      <use x="1073.242188" xlink:href="#DejaVuSans-115"/>
      <use x="1125.341797" xlink:href="#DejaVuSans-116"/>
      <use x="1164.550781" xlink:href="#DejaVuSans-101"/>
      <use x="1226.074219" xlink:href="#DejaVuSans-112"/>
     </g>
    </g>
   </g>
   <g id="matplotlib.axis_2">
    <g id="ytick_1">
     <g id="line2d_7">
      <defs>
       <path d="M 0 0 
L -3.5 0 
" id="me4554f2561" style="stroke:#000000;stroke-width:0.8;"/>
      </defs>
      <g>
       <use style="stroke:#000000;stroke-width:0.8;" x="57.6" xlink:href="#me4554f2561" y="278.780273"/>
      </g>
     </g>
     <g id="text_8">
      <!-- −200 -->
      <defs>
       <path d="M 10.59375 35.5 
L 73.1875 35.5 
L 73.1875 27.203125 
L 10.59375 27.203125 
z
" id="DejaVuSans-8722"/>
      </defs>
      <g transform="translate(23.132812 282.579492)scale(0.1 -0.1)">
       <use xlink:href="#DejaVuSans-8722"/>
       <use x="83.789062" xlink:href="#DejaVuSans-50"/>
       <use x="147.412109" xlink:href="#DejaVuSans-48"/>
       <use x="211.035156" xlink:href="#DejaVuSans-48"/>
      </g>
     </g>
    </g>
    <g id="ytick_2">
     <g id="line2d_8">
      <g>
       <use style="stroke:#000000;stroke-width:0.8;" x="57.6" xlink:href="#me4554f2561" y="239.853951"/>
      </g>
     </g>
     <g id="text_9">
      <!-- −150 -->
      <g transform="translate(23.132812 243.653169)scale(0.1 -0.1)">
       <use xlink:href="#DejaVuSans-8722"/>
       <use x="83.789062" xlink:href="#DejaVuSans-49"/>
       <use x="147.412109" xlink:href="#DejaVuSans-53"/>
       <use x="211.035156" xlink:href="#DejaVuSans-48"/>
      </g>
     </g>
    </g>
    <g id="ytick_3">
     <g id="line2d_9">
      <g>
       <use style="stroke:#000000;stroke-width:0.8;" x="57.6" xlink:href="#me4554f2561" y="200.927628"/>
      </g>
     </g>
     <g id="text_10">
      <!-- −100 -->
      <g transform="translate(23.132812 204.726847)scale(0.1 -0.1)">
       <use xlink:href="#DejaVuSans-8722"/>
       <use x="83.789062" xlink:href="#DejaVuSans-49"/>
       <use x="147.412109" xlink:href="#DejaVuSans-48"/>
       <use x="211.035156" xlink:href="#DejaVuSans-48"/>
      </g>
     </g>
    </g>
    <g id="ytick_4">
     <g id="line2d_10">
      <g>
       <use style="stroke:#000000;stroke-width:0.8;" x="57.6" xlink:href="#me4554f2561" y="162.001306"/>
      </g>
     </g>
     <g id="text_11">
      <!-- −50 -->
      <g transform="translate(29.495313 165.800524)scale(0.1 -0.1)">
       <use xlink:href="#DejaVuSans-8722"/>
       <use x="83.789062" xlink:href="#DejaVuSans-53"/>
       <use x="147.412109" xlink:href="#DejaVuSans-48"/>
      </g>
     </g>
    </g>
    <g id="ytick_5">
     <g id="line2d_11">
      <g>
       <use style="stroke:#000000;stroke-width:0.8;" x="57.6" xlink:href="#me4554f2561" y="123.074983"/>
      </g>
     </g>
     <g id="text_12">
      <!-- 0 -->
      <g transform="translate(44.2375 126.874202)scale(0.1 -0.1)">
       <use xlink:href="#DejaVuSans-48"/>
      </g>
     </g>
    </g>
    <g id="ytick_6">
     <g id="line2d_12">
      <g>
       <use style="stroke:#000000;stroke-width:0.8;" x="57.6" xlink:href="#me4554f2561" y="84.148661"/>
      </g>
     </g>
     <g id="text_13">
      <!-- 50 -->
      <g transform="translate(37.875 87.94788)scale(0.1 -0.1)">
       <use xlink:href="#DejaVuSans-53"/>
       <use x="63.623047" xlink:href="#DejaVuSans-48"/>
      </g>
     </g>
    </g>
    <g id="ytick_7">
     <g id="line2d_13">
      <g>
       <use style="stroke:#000000;stroke-width:0.8;" x="57.6" xlink:href="#me4554f2561" y="45.222338"/>
      </g>
     </g>
     <g id="text_14">
      <!-- 100 -->
      <g transform="translate(31.5125 49.021557)scale(0.1 -0.1)">
       <use xlink:href="#DejaVuSans-49"/>
       <use x="63.623047" xlink:href="#DejaVuSans-48"/>
       <use x="127.246094" xlink:href="#DejaVuSans-48"/>
      </g>
     </g>
    </g>
    <g id="text_15">
     <!-- energy emma=118.7K*kb -->
     <defs>
      <path d="M 54.890625 33.015625 
L 54.890625 0 
L 45.90625 0 
L 45.90625 32.71875 
Q 45.90625 40.484375 42.875 44.328125 
Q 39.84375 48.1875 33.796875 48.1875 
Q 26.515625 48.1875 22.3125 43.546875 
Q 18.109375 38.921875 18.109375 30.90625 
L 18.109375 0 
L 9.078125 0 
L 9.078125 54.6875 
L 18.109375 54.6875 
L 18.109375 46.1875 
Q 21.34375 51.125 25.703125 53.5625 
Q 30.078125 56 35.796875 56 
Q 45.21875 56 50.046875 50.171875 
Q 54.890625 44.34375 54.890625 33.015625 
z
" id="DejaVuSans-110"/>
      <path d="M 45.40625 27.984375 
Q 45.40625 37.75 41.375 43.109375 
Q 37.359375 48.484375 30.078125 48.484375 
Q 22.859375 48.484375 18.828125 43.109375 
Q 14.796875 37.75 14.796875 27.984375 
Q 14.796875 18.265625 18.828125 12.890625 
Q 22.859375 7.515625 30.078125 7.515625 
Q 37.359375 7.515625 41.375 12.890625 
Q 45.40625 18.265625 45.40625 27.984375 
z
M 54.390625 6.78125 
Q 54.390625 -7.171875 48.1875 -13.984375 
Q 42 -20.796875 29.203125 -20.796875 
Q 24.46875 -20.796875 20.265625 -20.09375 
Q 16.0625 -19.390625 12.109375 -17.921875 
L 12.109375 -9.1875 
Q 16.0625 -11.328125 19.921875 -12.34375 
Q 23.78125 -13.375 27.78125 -13.375 
Q 36.625 -13.375 41.015625 -8.765625 
Q 45.40625 -4.15625 45.40625 5.171875 
L 45.40625 9.625 
Q 42.625 4.78125 38.28125 2.390625 
Q 33.9375 0 27.875 0 
Q 17.828125 0 11.671875 7.65625 
Q 5.515625 15.328125 5.515625 27.984375 
Q 5.515625 40.671875 11.671875 48.328125 
Q 17.828125 56 27.875 56 
Q 33.9375 56 38.28125 53.609375 
Q 42.625 51.21875 45.40625 46.390625 
L 45.40625 54.6875 
L 54.390625 54.6875 
z
" id="DejaVuSans-103"/>
      <path d="M 32.171875 -5.078125 
Q 28.375 -14.84375 24.75 -17.8125 
Q 21.140625 -20.796875 15.09375 -20.796875 
L 7.90625 -20.796875 
L 7.90625 -13.28125 
L 13.1875 -13.28125 
Q 16.890625 -13.28125 18.9375 -11.515625 
Q 21 -9.765625 23.484375 -3.21875 
L 25.09375 0.875 
L 2.984375 54.6875 
L 12.5 54.6875 
L 29.59375 11.921875 
L 46.6875 54.6875 
L 56.203125 54.6875 
z
" id="DejaVuSans-121"/>
      <path d="M 52 44.1875 
Q 55.375 50.25 60.0625 53.125 
Q 64.75 56 71.09375 56 
Q 79.640625 56 84.28125 50.015625 
Q 88.921875 44.046875 88.921875 33.015625 
L 88.921875 0 
L 79.890625 0 
L 79.890625 32.71875 
Q 79.890625 40.578125 77.09375 44.375 
Q 74.3125 48.1875 68.609375 48.1875 
Q 61.625 48.1875 57.5625 43.546875 
Q 53.515625 38.921875 53.515625 30.90625 
L 53.515625 0 
L 44.484375 0 
L 44.484375 32.71875 
Q 44.484375 40.625 41.703125 44.40625 
Q 38.921875 48.1875 33.109375 48.1875 
Q 26.21875 48.1875 22.15625 43.53125 
Q 18.109375 38.875 18.109375 30.90625 
L 18.109375 0 
L 9.078125 0 
L 9.078125 54.6875 
L 18.109375 54.6875 
L 18.109375 46.1875 
Q 21.1875 51.21875 25.484375 53.609375 
Q 29.78125 56 35.6875 56 
Q 41.65625 56 45.828125 52.96875 
Q 50 49.953125 52 44.1875 
z
" id="DejaVuSans-109"/>
      <path d="M 10.59375 45.40625 
L 73.1875 45.40625 
L 73.1875 37.203125 
L 10.59375 37.203125 
z
M 10.59375 25.484375 
L 73.1875 25.484375 
L 73.1875 17.1875 
L 10.59375 17.1875 
z
" id="DejaVuSans-61"/>
      <path d="M 31.78125 34.625 
Q 24.75 34.625 20.71875 30.859375 
Q 16.703125 27.09375 16.703125 20.515625 
Q 16.703125 13.921875 20.71875 10.15625 
Q 24.75 6.390625 31.78125 6.390625 
Q 38.8125 6.390625 42.859375 10.171875 
Q 46.921875 13.96875 46.921875 20.515625 
Q 46.921875 27.09375 42.890625 30.859375 
Q 38.875 34.625 31.78125 34.625 
z
M 21.921875 38.8125 
Q 15.578125 40.375 12.03125 44.71875 
Q 8.5 49.078125 8.5 55.328125 
Q 8.5 64.0625 14.71875 69.140625 
Q 20.953125 74.21875 31.78125 74.21875 
Q 42.671875 74.21875 48.875 69.140625 
Q 55.078125 64.0625 55.078125 55.328125 
Q 55.078125 49.078125 51.53125 44.71875 
Q 48 40.375 41.703125 38.8125 
Q 48.828125 37.15625 52.796875 32.3125 
Q 56.78125 27.484375 56.78125 20.515625 
Q 56.78125 9.90625 50.3125 4.234375 
Q 43.84375 -1.421875 31.78125 -1.421875 
Q 19.734375 -1.421875 13.25 4.234375 
Q 6.78125 9.90625 6.78125 20.515625 
Q 6.78125 27.484375 10.78125 32.3125 
Q 14.796875 37.15625 21.921875 38.8125 
z
M 18.3125 54.390625 
Q 18.3125 48.734375 21.84375 45.5625 
Q 25.390625 42.390625 31.78125 42.390625 
Q 38.140625 42.390625 41.71875 45.5625 
Q 45.3125 48.734375 45.3125 54.390625 
Q 45.3125 60.0625 41.71875 63.234375 
Q 38.140625 66.40625 31.78125 66.40625 
Q 25.390625 66.40625 21.84375 63.234375 
Q 18.3125 60.0625 18.3125 54.390625 
z
" id="DejaVuSans-56"/>
      <path d="M 8.203125 72.90625 
L 55.078125 72.90625 
L 55.078125 68.703125 
L 28.609375 0 
L 18.3125 0 
L 43.21875 64.59375 
L 8.203125 64.59375 
z
" id="DejaVuSans-55"/>
      <path d="M 9.8125 72.90625 
L 19.671875 72.90625 
L 19.671875 42.09375 
L 52.390625 72.90625 
L 65.09375 72.90625 
L 28.90625 38.921875 
L 67.671875 0 
L 54.6875 0 
L 19.671875 35.109375 
L 19.671875 0 
L 9.8125 0 
z
" id="DejaVuSans-75"/>
      <path d="M 47.015625 60.890625 
L 29.5 51.421875 
L 47.015625 41.890625 
L 44.1875 37.109375 
L 27.78125 47.015625 
L 27.78125 28.609375 
L 22.21875 28.609375 
L 22.21875 47.015625 
L 5.8125 37.109375 
L 2.984375 41.890625 
L 20.515625 51.421875 
L 2.984375 60.890625 
L 5.8125 65.71875 
L 22.21875 55.8125 
L 22.21875 74.21875 
L 27.78125 74.21875 
L 27.78125 55.8125 
L 44.1875 65.71875 
z
" id="DejaVuSans-42"/>
      <path d="M 9.078125 75.984375 
L 18.109375 75.984375 
L 18.109375 31.109375 
L 44.921875 54.6875 
L 56.390625 54.6875 
L 27.390625 29.109375 
L 57.625 0 
L 45.90625 0 
L 18.109375 26.703125 
L 18.109375 0 
L 9.078125 0 
z
" id="DejaVuSans-107"/>
      <path d="M 48.6875 27.296875 
Q 48.6875 37.203125 44.609375 42.84375 
Q 40.53125 48.484375 33.40625 48.484375 
Q 26.265625 48.484375 22.1875 42.84375 
Q 18.109375 37.203125 18.109375 27.296875 
Q 18.109375 17.390625 22.1875 11.75 
Q 26.265625 6.109375 33.40625 6.109375 
Q 40.53125 6.109375 44.609375 11.75 
Q 48.6875 17.390625 48.6875 27.296875 
z
M 18.109375 46.390625 
Q 20.953125 51.265625 25.265625 53.625 
Q 29.59375 56 35.59375 56 
Q 45.5625 56 51.78125 48.09375 
Q 58.015625 40.1875 58.015625 27.296875 
Q 58.015625 14.40625 51.78125 6.484375 
Q 45.5625 -1.421875 35.59375 -1.421875 
Q 29.59375 -1.421875 25.265625 0.953125 
Q 20.953125 3.328125 18.109375 8.203125 
L 18.109375 0 
L 9.078125 0 
L 9.078125 75.984375 
L 18.109375 75.984375 
z
" id="DejaVuSans-98"/>
     </defs>
     <g transform="translate(17.053125 239.774094)rotate(-90)scale(0.1 -0.1)">
      <use xlink:href="#DejaVuSans-101"/>
      <use x="61.523438" xlink:href="#DejaVuSans-110"/>
      <use x="124.902344" xlink:href="#DejaVuSans-101"/>
      <use x="186.425781" xlink:href="#DejaVuSans-114"/>
      <use x="225.789062" xlink:href="#DejaVuSans-103"/>
      <use x="289.265625" xlink:href="#DejaVuSans-121"/>
      <use x="348.445312" xlink:href="#DejaVuSans-32"/>
      <use x="380.232422" xlink:href="#DejaVuSans-101"/>
      <use x="441.755859" xlink:href="#DejaVuSans-109"/>
      <use x="539.167969" xlink:href="#DejaVuSans-109"/>
      <use x="636.580078" xlink:href="#DejaVuSans-97"/>
      <use x="697.859375" xlink:href="#DejaVuSans-61"/>
      <use x="781.648438" xlink:href="#DejaVuSans-49"/>
      <use x="845.271484" xlink:href="#DejaVuSans-49"/>
      <use x="908.894531" xlink:href="#DejaVuSans-56"/>
      <use x="972.517578" xlink:href="#DejaVuSans-46"/>
      <use x="1004.304688" xlink:href="#DejaVuSans-55"/>
      <use x="1067.927734" xlink:href="#DejaVuSans-75"/>
      <use x="1133.503906" xlink:href="#DejaVuSans-42"/>
      <use x="1183.503906" xlink:href="#DejaVuSans-107"/>
      <use x="1241.414062" xlink:href="#DejaVuSans-98"/>
     </g>
    </g>
   </g>
   <g id="line2d_14">
    <path clip-path="url(#p872d843edb)" d="M 73.832727 123.071498 
L 74.027559 122.904538 
L 74.287335 122.297584 
L 74.676998 120.60356 
L 75.196549 117.055618 
L 75.910932 110.368245 
L 77.20981 95.579903 
L 79.158127 73.805544 
L 80.197229 64.665329 
L 80.976556 59.560498 
L 81.625995 56.545845 
L 82.21049 54.768962 
L 82.665097 53.956344 
L 83.054761 53.621381 
L 83.37948 53.574599 
L 83.769144 53.770746 
L 84.223751 54.3089 
L 84.808246 55.418747 
L 85.522629 57.29051 
L 86.496787 60.511517 
L 87.925553 66.078836 
L 93.510728 88.598483 
L 95.264214 94.445032 
L 96.887811 99.102603 
L 98.381521 102.720253 
L 99.745343 105.458646 
L 100.979277 107.471372 
L 102.148267 108.971764 
L 103.252313 110.027119 
L 104.226471 110.668209 
L 105.135686 111.023432 
L 106.044901 111.147453 
L 106.954115 111.046067 
L 107.928274 110.698006 
L 108.967376 110.074046 
L 110.136366 109.103256 
L 111.759964 107.429408 
L 114.097944 105.02509 
L 115.072102 104.346444 
L 115.851429 104.070208 
L 116.500868 104.064242 
L 117.150307 104.279575 
L 117.86469 104.762129 
L 118.838848 105.725841 
L 120.20267 107.051304 
L 120.787165 107.301219 
L 121.241773 107.246685 
L 121.631436 106.985263 
L 122.086043 106.399132 
L 122.605595 105.340255 
L 123.255034 103.455051 
L 124.099304 100.245954 
L 127.476387 86.522053 
L 128.255714 84.586015 
L 128.905153 83.545146 
L 129.424704 83.125112 
L 129.814367 83.070222 
L 130.204031 83.253977 
L 130.593694 83.691648 
L 131.048301 84.543312 
L 131.567852 85.988707 
L 132.217291 88.498934 
L 133.19145 93.331451 
L 134.100664 97.50366 
L 134.555272 98.697546 
L 134.879991 98.989843 
L 135.074823 98.923973 
L 135.334599 98.564216 
L 135.724262 97.520236 
L 136.438645 94.704528 
L 137.217972 91.909099 
L 137.607635 91.146414 
L 137.867411 90.966193 
L 138.127186 91.072207 
L 138.386962 91.471937 
L 138.776625 92.613051 
L 139.296176 95.052823 
L 140.075503 100.108969 
L 141.309437 108.196252 
L 141.828988 110.307484 
L 142.218652 111.105737 
L 142.478427 111.255511 
L 142.738203 111.120462 
L 143.062922 110.603575 
L 143.51753 109.391398 
L 145.530791 103.375962 
L 145.985398 102.817794 
L 146.375061 102.659171 
L 146.699781 102.739823 
L 147.089444 103.068339 
L 147.608995 103.846075 
L 148.258434 105.251347 
L 149.232593 107.95733 
L 151.895293 115.678381 
L 152.609675 117.02765 
L 153.19417 117.733516 
L 153.713722 118.050877 
L 154.233273 118.096559 
L 154.752824 117.908914 
L 155.402263 117.419668 
L 156.311478 116.423611 
L 157.870131 114.321335 
L 159.883392 111.237844 
L 162.091484 107.40419 
L 163.780026 104.627939 
L 164.624296 103.647003 
L 165.208792 103.274952 
L 165.663399 103.219777 
L 166.118006 103.41197 
L 166.572613 103.886211 
L 167.092165 104.805463 
L 167.67666 106.330913 
L 168.455986 109.067082 
L 170.209472 115.491747 
L 170.664079 116.299023 
L 170.988798 116.461624 
L 171.248574 116.314634 
L 171.573294 115.772552 
L 171.962957 114.609089 
L 172.482508 112.287062 
L 173.261835 107.653065 
L 175.210152 95.701513 
L 175.989479 92.460421 
L 176.573974 90.87355 
L 177.028581 90.173431 
L 177.3533 89.97222 
L 177.67802 90.029714 
L 178.002739 90.354479 
L 178.392403 91.105762 
L 178.911954 92.715768 
L 179.561393 95.572978 
L 180.990159 102.137154 
L 181.379822 102.93185 
L 181.639598 103.054278 
L 181.834429 102.929439 
L 182.094205 102.496939 
L 182.548812 101.174627 
L 183.717802 97.434331 
L 184.042522 97.083957 
L 184.237354 97.121084 
L 184.497129 97.48736 
L 184.821849 98.469246 
L 185.276456 100.763369 
L 186.055783 106.297752 
L 186.770166 110.857583 
L 187.159829 112.08698 
L 187.354661 112.226297 
L 187.549492 112.027047 
L 187.809268 111.246834 
L 188.198931 109.114848 
L 188.913314 103.491252 
L 189.692641 97.866403 
L 190.147248 96.010592 
L 190.407024 95.569414 
L 190.601856 95.538384 
L 190.796687 95.750799 
L 191.121407 96.576507 
L 191.705902 98.982993 
L 192.355341 101.372994 
L 192.615116 101.761297 
L 192.809948 101.747265 
L 193.00478 101.456339 
L 193.329499 100.385727 
L 193.784107 97.938387 
L 195.018041 90.788461 
L 195.472648 89.487055 
L 195.797367 89.167013 
L 196.057143 89.254454 
L 196.381863 89.738013 
L 196.83647 90.953175 
L 198.654899 96.487198 
L 198.979618 96.760124 
L 199.239394 96.730141 
L 199.49917 96.482091 
L 199.888833 95.734486 
L 200.408384 94.174026 
L 201.447487 90.103171 
L 202.616477 85.818793 
L 203.460747 83.558819 
L 204.240074 82.117157 
L 204.954457 81.231127 
L 205.733784 80.599196 
L 206.707942 80.102245 
L 208.461428 79.508733 
L 210.99424 78.841246 
L 212.16323 78.776413 
L 213.202332 78.940317 
L 215.929976 79.524863 
L 216.579415 79.321442 
L 217.228854 78.869039 
L 218.008181 78.025006 
L 219.631778 76.151839 
L 220.086385 75.976168 
L 220.476049 76.084583 
L 220.865712 76.488607 
L 221.320319 77.382399 
L 221.839871 78.976917 
L 222.554253 82.012638 
L 224.242795 89.559213 
L 224.762346 90.794081 
L 225.087065 91.126776 
L 225.346841 91.130724 
L 225.606617 90.896252 
L 225.931336 90.269233 
L 226.385943 88.795806 
L 226.970438 86.020859 
L 228.009541 79.678698 
L 229.243475 72.471071 
L 230.087746 68.830037 
L 230.802128 66.672281 
L 231.451567 65.396267 
L 231.971119 64.829109 
L 232.360782 64.670711 
L 232.750445 64.746572 
L 233.140109 65.06117 
L 233.594716 65.731272 
L 234.179211 67.057685 
L 234.893594 69.299325 
L 236.452248 74.523127 
L 236.776967 74.957602 
L 236.971799 74.978933 
L 237.16663 74.793215 
L 237.426406 74.20171 
L 237.816069 72.586812 
L 238.400564 68.908796 
L 239.374723 62.720029 
L 239.764386 61.558663 
L 239.959218 61.45402 
L 240.15405 61.71068 
L 240.413825 62.649156 
L 240.738545 64.794863 
L 241.193152 69.446252 
L 242.81675 88.087885 
L 243.141469 89.347672 
L 243.401245 89.660037 
L 243.596076 89.614563 
L 244.440347 89.046758 
L 244.700123 89.286956 
L 245.024842 89.94155 
L 245.804169 92.239945 
L 247.752486 97.741441 
L 247.947317 97.695176 
L 248.142149 97.248894 
L 248.401925 95.930652 
L 248.791588 92.386598 
L 249.505971 82.869055 
L 250.220354 74.401893 
L 250.610017 71.786184 
L 250.869793 71.006849 
L 251.064625 70.931173 
L 251.259456 71.276242 
L 251.519232 72.348254 
L 251.908895 75.093757 
L 252.558334 81.652935 
L 253.467549 90.472178 
L 253.922156 92.834487 
L 254.246876 93.450482 
L 254.441707 93.441205 
L 254.701483 93.075538 
L 255.091146 91.998955 
L 255.870473 88.997298 
L 257.104407 83.380099 
L 258.857892 75.185186 
L 259.507331 73.249335 
L 260.026882 72.317505 
L 260.48149 71.917698 
L 260.871153 71.839852 
L 261.32576 72.000825 
L 261.845312 72.438172 
L 262.624638 73.421195 
L 265.871833 77.887542 
L 266.781048 78.605583 
L 267.625319 78.980116 
L 268.404645 79.092041 
L 269.248916 78.993103 
L 270.223074 78.644413 
L 271.327121 78.004089 
L 272.561055 77.025329 
L 273.924877 75.64011 
L 275.548474 73.640013 
L 277.561735 71.186122 
L 278.341062 70.581219 
L 278.925557 70.405057 
L 279.380164 70.492685 
L 279.834771 70.822042 
L 280.289379 71.432406 
L 280.80893 72.516081 
L 281.393425 74.261513 
L 282.107808 77.13165 
L 283.211854 82.689607 
L 284.445788 88.66327 
L 285.095227 90.796174 
L 285.614778 91.800543 
L 286.069386 92.223227 
L 286.653881 92.401963 
L 287.173432 92.601094 
L 287.498151 92.946901 
L 287.822871 93.595167 
L 288.212534 94.915971 
L 288.667141 97.383139 
L 289.186693 101.547884 
L 290.030963 110.57349 
L 290.680402 116.705663 
L 291.005122 118.243991 
L 291.199953 118.448638 
L 291.329841 118.26112 
L 291.524673 117.496797 
L 291.849392 115.053776 
L 292.433888 108.226376 
L 293.47299 96.155044 
L 293.992541 92.503014 
L 294.447148 90.781792 
L 294.771868 90.269425 
L 295.031643 90.208646 
L 295.291419 90.39604 
L 295.681082 91.01915 
L 296.460409 92.862095 
L 297.30468 94.688625 
L 297.824231 95.34545 
L 298.213894 95.539006 
L 298.603558 95.477917 
L 299.058165 95.119078 
L 299.64266 94.304013 
L 300.681763 92.349365 
L 301.98064 90.006226 
L 302.759967 89.002042 
L 303.409406 88.471876 
L 303.993901 88.249486 
L 304.578396 88.275041 
L 305.162891 88.552506 
L 305.747387 89.08473 
L 306.396826 89.975951 
L 307.176152 91.454346 
L 308.085367 93.697146 
L 309.384245 97.592357 
L 311.13773 102.805923 
L 311.982001 104.633555 
L 312.63144 105.565778 
L 313.215935 106.047147 
L 313.80043 106.235892 
L 314.449869 106.198507 
L 316.852793 105.813642 
L 317.567176 106.069938 
L 318.281559 106.565614 
L 319.190773 107.498621 
L 320.424707 109.12748 
L 323.217295 112.899224 
L 324.321341 113.982046 
L 325.2955 114.649205 
L 326.204714 115.024193 
L 327.113929 115.172304 
L 328.088087 115.098048 
L 329.062246 114.799334 
L 330.101348 114.243131 
L 331.205395 113.383252 
L 332.309441 112.23687 
L 333.478431 110.69583 
L 334.712365 108.690304 
L 336.076187 106.020953 
L 337.63484 102.441188 
L 340.29754 95.612389 
L 341.856194 91.957753 
L 342.830352 90.181639 
L 343.609679 89.174581 
L 344.259118 88.659268 
L 344.843613 88.46235 
L 345.363164 88.508651 
L 345.882715 88.77786 
L 346.402267 89.293675 
L 346.986762 90.199275 
L 347.701145 91.751162 
L 348.870135 94.370158 
L 349.259798 94.719451 
L 349.519574 94.652163 
L 349.779349 94.293532 
L 350.104069 93.39544 
L 350.558676 91.291774 
L 351.143171 87.362905 
L 353.675983 68.606564 
L 354.390366 65.475276 
L 354.974861 63.762709 
L 355.494412 62.872769 
L 355.884076 62.613987 
L 356.208795 62.687597 
L 356.533515 63.046972 
L 356.923178 63.888364 
L 357.377785 65.478481 
L 357.96228 68.503749 
L 358.741607 73.913284 
L 359.845653 81.48515 
L 360.300261 83.320625 
L 360.62498 83.924589 
L 360.884756 83.989593 
L 361.144531 83.735624 
L 361.534195 82.941227 
L 362.378466 81.116087 
L 362.638241 80.940262 
L 362.833073 81.006863 
L 363.092848 81.38664 
L 363.417568 82.335512 
L 363.872175 84.460596 
L 364.651502 89.464117 
L 365.690604 95.872532 
L 366.210155 97.78397 
L 366.534875 98.299959 
L 366.729707 98.328167 
L 366.924538 98.137373 
L 367.184314 97.542257 
L 367.573977 95.958684 
L 368.158472 92.355866 
L 369.392406 84.348333 
L 369.78207 83.214213 
L 369.976902 83.068453 
L 370.171733 83.213476 
L 370.431509 83.831048 
L 370.821172 85.461619 
L 371.665443 89.190505 
L 371.925218 89.54059 
L 372.055106 89.480622 
L 372.249938 89.077539 
L 372.509714 87.969825 
L 372.964321 84.758651 
L 374.328143 74.066826 
L 374.717806 72.715715 
L 374.977582 72.412619 
L 375.172413 72.492966 
L 375.432189 72.989133 
L 375.756908 74.180485 
L 376.27646 77.166702 
L 377.900057 87.768517 
L 378.224777 88.396605 
L 378.419608 88.352735 
L 378.61444 87.993922 
L 378.939159 86.756804 
L 379.458711 83.545665 
L 381.017364 73.063718 
L 381.601859 70.755743 
L 382.12141 69.533566 
L 382.576018 68.984925 
L 382.965681 68.821833 
L 383.355345 68.886583 
L 383.809952 69.197554 
L 384.394447 69.90915 
L 385.043886 71.07313 
L 385.758269 72.830771 
L 386.472652 75.188411 
L 387.187034 78.300352 
L 387.966361 82.736447 
L 388.875576 89.319832 
L 390.564117 101.878031 
L 391.018724 103.70442 
L 391.343444 104.265366 
L 391.538276 104.288696 
L 391.733107 104.083493 
L 392.057827 103.276834 
L 392.512434 101.369789 
L 394.655583 91.14058 
L 395.11019 90.256945 
L 395.43491 89.989175 
L 395.759629 90.009016 
L 396.084349 90.298118 
L 396.474012 90.972069 
L 396.993563 92.365651 
L 397.707946 95.039381 
L 398.487273 98.583087 
L 398.487273 98.583087 
" style="fill:none;stroke:#ff0000;stroke-linecap:square;stroke-width:1.5;"/>
   </g>
   <g id="line2d_15">
    <path clip-path="url(#p872d843edb)" d="M 73.832727 225.982686 
L 74.027559 226.149665 
L 74.287335 226.756688 
L 74.676998 228.450895 
L 75.196549 231.999174 
L 75.910932 238.687035 
L 77.20981 253.475951 
L 79.158127 275.250715 
L 80.197229 284.391039 
L 80.976556 289.495859 
L 81.625995 292.510446 
L 82.21049 294.287239 
L 82.665097 295.099777 
L 83.054761 295.434667 
L 83.37948 295.481389 
L 83.769144 295.285172 
L 84.223751 294.74694 
L 84.808246 293.637002 
L 85.522629 291.765143 
L 86.496787 288.544032 
L 87.925553 282.976606 
L 93.510728 260.456813 
L 95.264214 254.610256 
L 96.887811 249.952682 
L 98.381521 246.335031 
L 99.745343 243.596637 
L 100.979277 241.583912 
L 102.148267 240.08352 
L 103.252313 239.028165 
L 104.226471 238.387076 
L 105.135686 238.031855 
L 106.044901 237.907836 
L 106.954115 238.009226 
L 107.928274 238.357292 
L 108.967376 238.981261 
L 110.136366 239.952068 
L 111.759964 241.625954 
L 114.097944 244.030364 
L 115.072102 244.709057 
L 115.851429 244.985327 
L 116.500868 244.991312 
L 117.150307 244.775984 
L 117.86469 244.293412 
L 118.838848 243.329623 
L 120.20267 242.003963 
L 120.787165 241.753954 
L 121.241773 241.808428 
L 121.631436 242.069812 
L 122.086043 242.655923 
L 122.605595 243.714813 
L 123.255034 245.600086 
L 124.099304 248.809336 
L 127.476387 262.533714 
L 128.255714 264.4698 
L 128.905153 265.510711 
L 129.424704 265.930789 
L 129.814367 265.985719 
L 130.204031 265.802009 
L 130.593694 265.364389 
L 131.048301 264.512783 
L 131.567852 263.067441 
L 132.217291 260.557198 
L 133.19145 255.724278 
L 134.100664 251.551292 
L 134.555272 250.357114 
L 134.879991 250.064756 
L 135.074823 250.130665 
L 135.334599 250.490559 
L 135.724262 251.534899 
L 136.438645 254.351457 
L 137.217972 257.147589 
L 137.607635 257.910456 
L 137.867411 258.090741 
L 138.127186 257.984749 
L 138.386962 257.585002 
L 138.776625 256.443797 
L 139.296176 254.00378 
L 140.075503 248.947018 
L 141.309437 240.858588 
L 141.828988 238.747117 
L 142.218652 237.948858 
L 142.478427 237.79916 
L 142.738203 237.934339 
L 143.062922 238.451441 
L 143.51753 239.663962 
L 145.530791 245.680175 
L 145.985398 246.238306 
L 146.375061 246.396867 
L 146.699781 246.316153 
L 147.089444 245.987558 
L 147.608995 245.209718 
L 148.258434 243.804331 
L 149.232593 241.098207 
L 151.895293 233.376826 
L 152.609675 232.027508 
L 153.19417 231.321637 
L 153.713722 231.004295 
L 154.233273 230.958651 
L 154.752824 231.146343 
L 155.402263 231.635646 
L 156.311478 232.631759 
L 157.870131 234.734055 
L 159.883392 237.817527 
L 162.091484 241.65123 
L 163.780026 244.427616 
L 164.624296 245.408659 
L 165.208792 245.780795 
L 165.663399 245.83604 
L 166.118006 245.643915 
L 166.572613 245.169732 
L 167.092165 244.250523 
L 167.67666 242.72507 
L 168.455986 239.988769 
L 170.209472 233.563287 
L 170.664079 232.75582 
L 170.988798 232.593135 
L 171.248574 232.740098 
L 171.573294 233.282199 
L 171.962957 234.44576 
L 172.482508 236.768016 
L 173.261835 241.402438 
L 175.210152 253.354595 
L 175.989479 256.595731 
L 176.573974 258.182623 
L 177.028581 258.88277 
L 177.3533 259.08401 
L 177.67802 259.026552 
L 178.002739 258.701824 
L 178.392403 257.950573 
L 178.911954 256.340545 
L 179.561393 253.483096 
L 180.990159 246.917569 
L 181.379822 246.122672 
L 181.639598 246.00025 
L 181.834429 246.125173 
L 182.094205 246.557885 
L 182.548812 247.880765 
L 183.717802 251.622594 
L 184.042522 251.973226 
L 184.237354 251.936205 
L 184.497129 251.570005 
L 184.821849 250.5881 
L 185.276456 248.293692 
L 186.055783 242.758066 
L 186.770166 238.196756 
L 187.159829 236.966862 
L 187.354661 236.827461 
L 187.549492 237.02675 
L 187.809268 237.807201 
L 188.198931 239.939865 
L 188.913314 245.565067 
L 189.692641 251.191151 
L 190.147248 253.047227 
L 190.407024 253.488398 
L 190.601856 253.519342 
L 190.796687 253.306772 
L 191.121407 252.480645 
L 191.705902 250.07297 
L 192.355341 247.68158 
L 192.615116 247.292965 
L 192.809948 247.306916 
L 193.00478 247.597903 
L 193.329499 248.668893 
L 193.784107 251.117123 
L 195.018041 258.268738 
L 195.472648 259.570142 
L 195.797367 259.890044 
L 196.057143 259.802436 
L 196.381863 259.318623 
L 196.83647 258.103052 
L 198.654899 252.567656 
L 198.979618 252.294673 
L 199.239394 252.324664 
L 199.49917 252.572767 
L 199.888833 253.320513 
L 200.408384 254.881224 
L 201.447487 258.952511 
L 202.616477 263.237034 
L 203.460747 265.496955 
L 204.240074 266.938526 
L 204.954457 267.824471 
L 205.733784 268.456324 
L 206.707942 268.953206 
L 208.461428 269.546671 
L 210.99424 270.214199 
L 212.16323 270.279051 
L 213.202332 270.115135 
L 215.929976 269.530406 
L 216.579415 269.733799 
L 217.228854 270.186212 
L 218.008181 271.030328 
L 219.631778 272.903928 
L 220.086385 273.079755 
L 220.476049 272.971464 
L 220.865712 272.567542 
L 221.320319 271.673819 
L 221.839871 270.079285 
L 222.554253 267.043354 
L 224.242795 259.495951 
L 224.762346 258.260951 
L 225.087065 257.928211 
L 225.346841 257.924247 
L 225.606617 258.158719 
L 225.931336 258.785764 
L 226.385943 260.259285 
L 226.970438 263.03446 
L 228.009541 269.377147 
L 229.243475 276.585048 
L 230.087746 280.226034 
L 230.802128 282.383729 
L 231.451567 283.659726 
L 231.971119 284.226904 
L 232.360782 284.385331 
L 232.750445 284.309505 
L 233.140109 283.994945 
L 233.594716 283.324882 
L 234.179211 281.998506 
L 234.893594 279.756839 
L 236.517191 274.40989 
L 236.841911 274.068303 
L 237.036743 274.113811 
L 237.296518 274.507309 
L 237.621238 275.556012 
L 238.075845 277.963637 
L 239.634499 287.244285 
L 239.894274 287.608884 
L 240.024162 287.560948 
L 240.218994 287.178872 
L 240.478769 286.066958 
L 240.868433 283.115843 
L 241.387984 277.166367 
L 242.621918 262.268394 
L 243.011581 260.081085 
L 243.271357 259.48682 
L 243.466189 259.390613 
L 243.725964 259.55136 
L 244.310459 260.029238 
L 244.570235 259.926379 
L 244.83001 259.551675 
L 245.284618 258.398252 
L 247.752486 251.314042 
L 247.947317 251.359645 
L 248.142149 251.805446 
L 248.401925 253.123488 
L 248.791588 256.668295 
L 249.505971 266.188846 
L 250.220354 274.657777 
L 250.610017 277.273627 
L 250.869793 278.052852 
L 251.064625 278.128374 
L 251.259456 277.783101 
L 251.519232 276.710745 
L 251.908895 273.964556 
L 252.558334 267.403737 
L 253.467549 258.582297 
L 253.922156 256.219846 
L 254.246876 255.604195 
L 254.441707 255.613783 
L 254.701483 255.979892 
L 255.091146 257.057012 
L 255.870473 260.058916 
L 257.104407 265.675789 
L 258.857892 273.871042 
L 259.507331 275.80685 
L 260.026882 276.738572 
L 260.48149 277.138261 
L 260.871153 277.216004 
L 261.32576 277.054916 
L 261.845312 276.617455 
L 262.624638 275.634299 
L 265.871833 271.167726 
L 266.781048 270.449678 
L 267.625319 270.075151 
L 268.404645 269.963238 
L 269.248916 270.062192 
L 270.223074 270.410895 
L 271.327121 271.051229 
L 272.561055 272.029994 
L 273.924877 273.415223 
L 275.548474 275.415367 
L 277.561735 277.869417 
L 278.341062 278.474419 
L 278.925557 278.650667 
L 279.380164 278.563108 
L 279.834771 278.233819 
L 280.289379 277.623516 
L 280.80893 276.539891 
L 281.393425 274.794474 
L 282.107808 271.924264 
L 283.211854 266.365954 
L 284.445788 260.391763 
L 285.095227 258.25875 
L 285.614778 257.254471 
L 286.069386 256.832009 
L 286.653881 256.653729 
L 287.173432 256.455108 
L 287.498151 256.109639 
L 287.822871 255.461706 
L 288.212534 254.141267 
L 288.667141 251.674409 
L 289.186693 247.509697 
L 290.030963 238.482623 
L 290.680402 232.348112 
L 291.005122 230.808906 
L 291.199953 230.604044 
L 291.329841 230.791579 
L 291.524673 231.556173 
L 291.849392 234.000179 
L 292.433888 240.829936 
L 293.47299 252.903051 
L 293.992541 256.55482 
L 294.447148 258.27559 
L 294.771868 258.787601 
L 295.031643 258.848099 
L 295.291419 258.660436 
L 295.681082 258.036959 
L 296.460409 256.193437 
L 297.30468 254.366557 
L 297.824231 253.709657 
L 298.213894 253.516104 
L 298.603558 253.577235 
L 299.058165 253.936155 
L 299.64266 254.751344 
L 300.681763 256.706179 
L 301.98064 259.049421 
L 302.759967 260.053615 
L 303.409406 260.583777 
L 303.993901 260.806161 
L 304.578396 260.7806 
L 305.162891 260.50313 
L 305.747387 259.970903 
L 306.396826 259.079677 
L 307.176152 257.601268 
L 308.085367 255.358432 
L 309.384245 251.463105 
L 311.13773 246.249318 
L 311.982001 244.421624 
L 312.63144 243.489401 
L 313.215935 243.008068 
L 313.80043 242.819384 
L 314.449869 242.856851 
L 316.852793 243.241902 
L 317.567176 242.985603 
L 318.281559 242.489905 
L 319.190773 241.556856 
L 320.424707 239.927935 
L 323.217295 236.156093 
L 324.321341 235.073259 
L 325.2955 234.406099 
L 326.204714 234.031114 
L 327.113929 233.883008 
L 328.088087 233.957268 
L 329.062246 234.255983 
L 330.101348 234.812184 
L 331.205395 235.672059 
L 332.309441 236.818437 
L 333.478431 238.359473 
L 334.712365 240.364998 
L 336.076187 243.034355 
L 337.63484 246.61414 
L 340.29754 253.443041 
L 341.856194 257.097782 
L 342.830352 258.873966 
L 343.609679 259.881074 
L 344.259118 260.396423 
L 344.843613 260.59338 
L 345.363164 260.547126 
L 345.882715 260.277982 
L 346.402267 259.762242 
L 346.986762 258.856703 
L 347.701145 257.304747 
L 348.870135 254.685042 
L 349.259798 254.335438 
L 349.519574 254.402558 
L 349.779349 254.761079 
L 350.104069 255.659139 
L 350.558676 257.762971 
L 351.143171 261.692311 
L 353.675983 280.449681 
L 354.390366 283.580887 
L 354.974861 285.293429 
L 355.494412 286.183405 
L 355.884076 286.442254 
L 356.208795 286.368722 
L 356.533515 286.009439 
L 356.923178 285.168158 
L 357.377785 283.578139 
L 357.96228 280.552851 
L 358.741607 275.142841 
L 359.845653 267.569709 
L 360.300261 265.73399 
L 360.62498 265.130104 
L 360.884756 265.065324 
L 361.144531 265.319641 
L 361.534195 266.114704 
L 362.378466 267.941191 
L 362.638241 268.117251 
L 362.833073 268.05075 
L 363.092848 267.671006 
L 363.417568 266.722028 
L 363.872175 264.596585 
L 364.651502 259.592197 
L 365.690604 253.182759 
L 366.210155 251.270967 
L 366.534875 250.754836 
L 366.729707 250.726584 
L 366.924538 250.917373 
L 367.184314 251.512551 
L 367.573977 253.096385 
L 368.158472 256.699994 
L 369.392406 264.709972 
L 369.78207 265.844576 
L 369.976902 265.990421 
L 370.171733 265.845352 
L 370.431509 265.227492 
L 370.821172 263.596019 
L 371.665443 259.864444 
L 371.925218 259.513881 
L 372.055106 259.573742 
L 372.249938 259.97684 
L 372.509714 261.084879 
L 372.964321 264.297185 
L 374.328143 274.991472 
L 374.717806 276.342563 
L 374.977582 276.645548 
L 375.172413 276.565088 
L 375.432189 276.068745 
L 375.756908 274.877137 
L 376.27646 271.890391 
L 377.900057 261.285795 
L 378.224777 260.657475 
L 378.419608 260.701362 
L 378.61444 261.060308 
L 378.939159 262.29786 
L 379.458711 265.509939 
L 381.017364 275.993024 
L 381.601859 278.300774 
L 382.12141 279.522703 
L 382.576018 280.071151 
L 382.965681 280.23411 
L 383.355345 280.16926 
L 383.809952 279.858213 
L 384.394447 279.146574 
L 385.043886 277.982608 
L 385.758269 276.225043 
L 386.472652 273.867528 
L 387.187034 270.755735 
L 387.966361 266.319761 
L 388.875576 259.736264 
L 390.564117 247.176611 
L 391.018724 245.349908 
L 391.343444 244.788908 
L 391.538276 244.765623 
L 391.733107 244.970927 
L 392.057827 245.777859 
L 392.512434 247.685417 
L 394.655583 257.915882 
L 395.11019 258.799457 
L 395.43491 259.067164 
L 395.759629 259.047257 
L 396.084349 258.758091 
L 396.474012 258.084068 
L 396.993563 256.690396 
L 397.707946 254.016514 
L 398.487273 250.472532 
L 398.487273 250.472532 
" style="fill:none;stroke:#0000ff;stroke-linecap:square;stroke-width:1.5;"/>
   </g>
   <g id="line2d_16">
    <path clip-path="url(#p872d843edb)" d="M 73.832727 225.979201 
L 398.487273 225.980636 
L 398.487273 225.980636 
" style="fill:none;stroke:#ffa500;stroke-linecap:square;stroke-width:1.5;"/>
   </g>
   <g id="patch_3">
    <path d="M 57.6 307.584 
L 57.6 41.472 
" style="fill:none;stroke:#000000;stroke-linecap:square;stroke-linejoin:miter;stroke-width:0.8;"/>
   </g>
   <g id="patch_4">
    <path d="M 414.72 307.584 
L 414.72 41.472 
" style="fill:none;stroke:#000000;stroke-linecap:square;stroke-linejoin:miter;stroke-width:0.8;"/>
   </g>
   <g id="patch_5">
    <path d="M 57.6 307.584 
L 414.72 307.584 
" style="fill:none;stroke:#000000;stroke-linecap:square;stroke-linejoin:miter;stroke-width:0.8;"/>
   </g>
   <g id="patch_6">
    <path d="M 57.6 41.472 
L 414.72 41.472 
" style="fill:none;stroke:#000000;stroke-linecap:square;stroke-linejoin:miter;stroke-width:0.8;"/>
   </g>
   <g id="legend_1">
    <g id="patch_7">
     <path d="M 331.237188 198.045187 
L 407.72 198.045187 
Q 409.72 198.045187 409.72 196.045187 
L 409.72 153.010812 
Q 409.72 151.010812 407.72 151.010812 
L 331.237188 151.010812 
Q 329.237188 151.010812 329.237188 153.010812 
L 329.237188 196.045187 
Q 329.237188 198.045187 331.237188 198.045187 
z
" style="fill:#ffffff;opacity:0.8;stroke:#cccccc;stroke-linejoin:miter;"/>
    </g>
    <g id="line2d_17">
     <path d="M 333.237188 159.10925 
L 353.237188 159.10925 
" style="fill:none;stroke:#ff0000;stroke-linecap:square;stroke-width:1.5;"/>
    </g>
    <g id="line2d_18"/>
    <g id="text_16">
     <!-- kinetic -->
     <defs>
      <path d="M 9.421875 54.6875 
L 18.40625 54.6875 
L 18.40625 0 
L 9.421875 0 
z
M 9.421875 75.984375 
L 18.40625 75.984375 
L 18.40625 64.59375 
L 9.421875 64.59375 
z
" id="DejaVuSans-105"/>
      <path d="M 48.78125 52.59375 
L 48.78125 44.1875 
Q 44.96875 46.296875 41.140625 47.34375 
Q 37.3125 48.390625 33.40625 48.390625 
Q 24.65625 48.390625 19.8125 42.84375 
Q 14.984375 37.3125 14.984375 27.296875 
Q 14.984375 17.28125 19.8125 11.734375 
Q 24.65625 6.203125 33.40625 6.203125 
Q 37.3125 6.203125 41.140625 7.25 
Q 44.96875 8.296875 48.78125 10.40625 
L 48.78125 2.09375 
Q 45.015625 0.34375 40.984375 -0.53125 
Q 36.96875 -1.421875 32.421875 -1.421875 
Q 20.0625 -1.421875 12.78125 6.34375 
Q 5.515625 14.109375 5.515625 27.296875 
Q 5.515625 40.671875 12.859375 48.328125 
Q 20.21875 56 33.015625 56 
Q 37.15625 56 41.109375 55.140625 
Q 45.0625 54.296875 48.78125 52.59375 
z
" id="DejaVuSans-99"/>
     </defs>
     <g transform="translate(361.237188 162.60925)scale(0.1 -0.1)">
      <use xlink:href="#DejaVuSans-107"/>
      <use x="57.910156" xlink:href="#DejaVuSans-105"/>
      <use x="85.693359" xlink:href="#DejaVuSans-110"/>
      <use x="149.072266" xlink:href="#DejaVuSans-101"/>
      <use x="210.595703" xlink:href="#DejaVuSans-116"/>
      <use x="249.804688" xlink:href="#DejaVuSans-105"/>
      <use x="277.587891" xlink:href="#DejaVuSans-99"/>
     </g>
    </g>
    <g id="line2d_19">
     <path d="M 333.237188 173.787375 
L 353.237188 173.787375 
" style="fill:none;stroke:#0000ff;stroke-linecap:square;stroke-width:1.5;"/>
    </g>
    <g id="line2d_20"/>
    <g id="text_17">
     <!-- potential -->
     <defs>
      <path d="M 9.421875 75.984375 
L 18.40625 75.984375 
L 18.40625 0 
L 9.421875 0 
z
" id="DejaVuSans-108"/>
     </defs>
     <g transform="translate(361.237188 177.287375)scale(0.1 -0.1)">
      <use xlink:href="#DejaVuSans-112"/>
      <use x="63.476562" xlink:href="#DejaVuSans-111"/>
      <use x="124.658203" xlink:href="#DejaVuSans-116"/>
      <use x="163.867188" xlink:href="#DejaVuSans-101"/>
      <use x="225.390625" xlink:href="#DejaVuSans-110"/>
      <use x="288.769531" xlink:href="#DejaVuSans-116"/>
      <use x="327.978516" xlink:href="#DejaVuSans-105"/>
      <use x="355.761719" xlink:href="#DejaVuSans-97"/>
      <use x="417.041016" xlink:href="#DejaVuSans-108"/>
     </g>
    </g>
    <g id="line2d_21">
     <path d="M 333.237188 188.4655 
L 353.237188 188.4655 
" style="fill:none;stroke:#ffa500;stroke-linecap:square;stroke-width:1.5;"/>
    </g>
    <g id="line2d_22"/>
    <g id="text_18">
     <!-- energy -->
     <g transform="translate(361.237188 191.9655)scale(0.1 -0.1)">
      <use xlink:href="#DejaVuSans-101"/>
      <use x="61.523438" xlink:href="#DejaVuSans-110"/>
      <use x="124.902344" xlink:href="#DejaVuSans-101"/>
      <use x="186.425781" xlink:href="#DejaVuSans-114"/>
      <use x="225.789062" xlink:href="#DejaVuSans-103"/>
      <use x="289.265625" xlink:href="#DejaVuSans-121"/>
     </g>
    </g>
   </g>
  </g>
 </g>
 <defs>
  <clipPath id="p872d843edb">
   <rect height="266.112" width="357.12" x="57.6" y="41.472"/>
  </clipPath>
 </defs>
</svg>
