<?xml version="1.0" encoding="utf-8" standalone="no"?>
<!DOCTYPE svg PUBLIC "-//W3C//DTD SVG 1.1//EN"
  "http://www.w3.org/Graphics/SVG/1.1/DTD/svg11.dtd">
<!-- Created with matplotlib (https://matplotlib.org/) -->
<svg height="345.6pt" version="1.1" viewBox="0 0 460.8 345.6" width="460.8pt" xmlns="http://www.w3.org/2000/svg" xmlns:xlink="http://www.w3.org/1999/xlink">
 <defs>
  <style type="text/css">
*{stroke-linecap:butt;stroke-linejoin:round;}
  </style>
 </defs>
 <g id="figure_1">
  <g id="patch_1">
   <path d="M 0 345.6 
L 460.8 345.6 
L 460.8 0 
L 0 0 
z
" style="fill:#ffffff;"/>
  </g>
  <g id="axes_1">
   <g id="patch_2">
    <path d="M 57.6 307.584 
L 414.72 307.584 
L 414.72 41.472 
L 57.6 41.472 
z
" style="fill:#ffffff;"/>
   </g>
   <g id="matplotlib.axis_1">
    <g id="xtick_1">
     <g id="line2d_1">
      <defs>
       <path d="M 0 0 
L 0 3.5 
" id="md300a8005f" style="stroke:#000000;stroke-width:0.8;"/>
      </defs>
      <g>
       <use style="stroke:#000000;stroke-width:0.8;" x="73.832727" xlink:href="#md300a8005f" y="307.584"/>
      </g>
     </g>
     <g id="text_1">
      <!-- 0 -->
      <defs>
       <path d="M 31.78125 66.40625 
Q 24.171875 66.40625 20.328125 58.90625 
Q 16.5 51.421875 16.5 36.375 
Q 16.5 21.390625 20.328125 13.890625 
Q 24.171875 6.390625 31.78125 6.390625 
Q 39.453125 6.390625 43.28125 13.890625 
Q 47.125 21.390625 47.125 36.375 
Q 47.125 51.421875 43.28125 58.90625 
Q 39.453125 66.40625 31.78125 66.40625 
z
M 31.78125 74.21875 
Q 44.046875 74.21875 50.515625 64.515625 
Q 56.984375 54.828125 56.984375 36.375 
Q 56.984375 17.96875 50.515625 8.265625 
Q 44.046875 -1.421875 31.78125 -1.421875 
Q 19.53125 -1.421875 13.0625 8.265625 
Q 6.59375 17.96875 6.59375 36.375 
Q 6.59375 54.828125 13.0625 64.515625 
Q 19.53125 74.21875 31.78125 74.21875 
z
" id="DejaVuSans-48"/>
      </defs>
      <g transform="translate(70.651477 322.182437)scale(0.1 -0.1)">
       <use xlink:href="#DejaVuSans-48"/>
      </g>
     </g>
    </g>
    <g id="xtick_2">
     <g id="line2d_2">
      <g>
       <use style="stroke:#000000;stroke-width:0.8;" x="138.893758" xlink:href="#md300a8005f" y="307.584"/>
      </g>
     </g>
     <g id="text_2">
      <!-- 100 -->
      <defs>
       <path d="M 12.40625 8.296875 
L 28.515625 8.296875 
L 28.515625 63.921875 
L 10.984375 60.40625 
L 10.984375 69.390625 
L 28.421875 72.90625 
L 38.28125 72.90625 
L 38.28125 8.296875 
L 54.390625 8.296875 
L 54.390625 0 
L 12.40625 0 
z
" id="DejaVuSans-49"/>
      </defs>
      <g transform="translate(129.350008 322.182437)scale(0.1 -0.1)">
       <use xlink:href="#DejaVuSans-49"/>
       <use x="63.623047" xlink:href="#DejaVuSans-48"/>
       <use x="127.246094" xlink:href="#DejaVuSans-48"/>
      </g>
     </g>
    </g>
    <g id="xtick_3">
     <g id="line2d_3">
      <g>
       <use style="stroke:#000000;stroke-width:0.8;" x="203.95479" xlink:href="#md300a8005f" y="307.584"/>
      </g>
     </g>
     <g id="text_3">
      <!-- 200 -->
      <defs>
       <path d="M 19.1875 8.296875 
L 53.609375 8.296875 
L 53.609375 0 
L 7.328125 0 
L 7.328125 8.296875 
Q 12.9375 14.109375 22.625 23.890625 
Q 32.328125 33.6875 34.8125 36.53125 
Q 39.546875 41.84375 41.421875 45.53125 
Q 43.3125 49.21875 43.3125 52.78125 
Q 43.3125 58.59375 39.234375 62.25 
Q 35.15625 65.921875 28.609375 65.921875 
Q 23.96875 65.921875 18.8125 64.3125 
Q 13.671875 62.703125 7.8125 59.421875 
L 7.8125 69.390625 
Q 13.765625 71.78125 18.9375 73 
Q 24.125 74.21875 28.421875 74.21875 
Q 39.75 74.21875 46.484375 68.546875 
Q 53.21875 62.890625 53.21875 53.421875 
Q 53.21875 48.921875 51.53125 44.890625 
Q 49.859375 40.875 45.40625 35.40625 
Q 44.1875 33.984375 37.640625 27.21875 
Q 31.109375 20.453125 19.1875 8.296875 
z
" id="DejaVuSans-50"/>
      </defs>
      <g transform="translate(194.41104 322.182437)scale(0.1 -0.1)">
       <use xlink:href="#DejaVuSans-50"/>
       <use x="63.623047" xlink:href="#DejaVuSans-48"/>
       <use x="127.246094" xlink:href="#DejaVuSans-48"/>
      </g>
     </g>
    </g>
    <g id="xtick_4">
     <g id="line2d_4">
      <g>
       <use style="stroke:#000000;stroke-width:0.8;" x="269.015821" xlink:href="#md300a8005f" y="307.584"/>
      </g>
     </g>
     <g id="text_4">
      <!-- 300 -->
      <defs>
       <path d="M 40.578125 39.3125 
Q 47.65625 37.796875 51.625 33 
Q 55.609375 28.21875 55.609375 21.1875 
Q 55.609375 10.40625 48.1875 4.484375 
Q 40.765625 -1.421875 27.09375 -1.421875 
Q 22.515625 -1.421875 17.65625 -0.515625 
Q 12.796875 0.390625 7.625 2.203125 
L 7.625 11.71875 
Q 11.71875 9.328125 16.59375 8.109375 
Q 21.484375 6.890625 26.8125 6.890625 
Q 36.078125 6.890625 40.9375 10.546875 
Q 45.796875 14.203125 45.796875 21.1875 
Q 45.796875 27.640625 41.28125 31.265625 
Q 36.765625 34.90625 28.71875 34.90625 
L 20.21875 34.90625 
L 20.21875 43.015625 
L 29.109375 43.015625 
Q 36.375 43.015625 40.234375 45.921875 
Q 44.09375 48.828125 44.09375 54.296875 
Q 44.09375 59.90625 40.109375 62.90625 
Q 36.140625 65.921875 28.71875 65.921875 
Q 24.65625 65.921875 20.015625 65.03125 
Q 15.375 64.15625 9.8125 62.3125 
L 9.8125 71.09375 
Q 15.4375 72.65625 20.34375 73.4375 
Q 25.25 74.21875 29.59375 74.21875 
Q 40.828125 74.21875 47.359375 69.109375 
Q 53.90625 64.015625 53.90625 55.328125 
Q 53.90625 49.265625 50.4375 45.09375 
Q 46.96875 40.921875 40.578125 39.3125 
z
" id="DejaVuSans-51"/>
      </defs>
      <g transform="translate(259.472071 322.182437)scale(0.1 -0.1)">
       <use xlink:href="#DejaVuSans-51"/>
       <use x="63.623047" xlink:href="#DejaVuSans-48"/>
       <use x="127.246094" xlink:href="#DejaVuSans-48"/>
      </g>
     </g>
    </g>
    <g id="xtick_5">
     <g id="line2d_5">
      <g>
       <use style="stroke:#000000;stroke-width:0.8;" x="334.076852" xlink:href="#md300a8005f" y="307.584"/>
      </g>
     </g>
     <g id="text_5">
      <!-- 400 -->
      <defs>
       <path d="M 37.796875 64.3125 
L 12.890625 25.390625 
L 37.796875 25.390625 
z
M 35.203125 72.90625 
L 47.609375 72.90625 
L 47.609375 25.390625 
L 58.015625 25.390625 
L 58.015625 17.1875 
L 47.609375 17.1875 
L 47.609375 0 
L 37.796875 0 
L 37.796875 17.1875 
L 4.890625 17.1875 
L 4.890625 26.703125 
z
" id="DejaVuSans-52"/>
      </defs>
      <g transform="translate(324.533102 322.182437)scale(0.1 -0.1)">
       <use xlink:href="#DejaVuSans-52"/>
       <use x="63.623047" xlink:href="#DejaVuSans-48"/>
       <use x="127.246094" xlink:href="#DejaVuSans-48"/>
      </g>
     </g>
    </g>
    <g id="xtick_6">
     <g id="line2d_6">
      <g>
       <use style="stroke:#000000;stroke-width:0.8;" x="399.137883" xlink:href="#md300a8005f" y="307.584"/>
      </g>
     </g>
     <g id="text_6">
      <!-- 500 -->
      <defs>
       <path d="M 10.796875 72.90625 
L 49.515625 72.90625 
L 49.515625 64.59375 
L 19.828125 64.59375 
L 19.828125 46.734375 
Q 21.96875 47.46875 24.109375 47.828125 
Q 26.265625 48.1875 28.421875 48.1875 
Q 40.625 48.1875 47.75 41.5 
Q 54.890625 34.8125 54.890625 23.390625 
Q 54.890625 11.625 47.5625 5.09375 
Q 40.234375 -1.421875 26.90625 -1.421875 
Q 22.3125 -1.421875 17.546875 -0.640625 
Q 12.796875 0.140625 7.71875 1.703125 
L 7.71875 11.625 
Q 12.109375 9.234375 16.796875 8.0625 
Q 21.484375 6.890625 26.703125 6.890625 
Q 35.15625 6.890625 40.078125 11.328125 
Q 45.015625 15.765625 45.015625 23.390625 
Q 45.015625 31 40.078125 35.4375 
Q 35.15625 39.890625 26.703125 39.890625 
Q 22.75 39.890625 18.8125 39.015625 
Q 14.890625 38.140625 10.796875 36.28125 
z
" id="DejaVuSans-53"/>
      </defs>
      <g transform="translate(389.594133 322.182437)scale(0.1 -0.1)">
       <use xlink:href="#DejaVuSans-53"/>
       <use x="63.623047" xlink:href="#DejaVuSans-48"/>
       <use x="127.246094" xlink:href="#DejaVuSans-48"/>
      </g>
     </g>
    </g>
    <g id="text_7">
     <!-- steps 0.0001 tao per step -->
     <defs>
      <path d="M 44.28125 53.078125 
L 44.28125 44.578125 
Q 40.484375 46.53125 36.375 47.5 
Q 32.28125 48.484375 27.875 48.484375 
Q 21.1875 48.484375 17.84375 46.4375 
Q 14.5 44.390625 14.5 40.28125 
Q 14.5 37.15625 16.890625 35.375 
Q 19.28125 33.59375 26.515625 31.984375 
L 29.59375 31.296875 
Q 39.15625 29.25 43.1875 25.515625 
Q 47.21875 21.78125 47.21875 15.09375 
Q 47.21875 7.46875 41.1875 3.015625 
Q 35.15625 -1.421875 24.609375 -1.421875 
Q 20.21875 -1.421875 15.453125 -0.5625 
Q 10.6875 0.296875 5.421875 2 
L 5.421875 11.28125 
Q 10.40625 8.6875 15.234375 7.390625 
Q 20.0625 6.109375 24.8125 6.109375 
Q 31.15625 6.109375 34.5625 8.28125 
Q 37.984375 10.453125 37.984375 14.40625 
Q 37.984375 18.0625 35.515625 20.015625 
Q 33.0625 21.96875 24.703125 23.78125 
L 21.578125 24.515625 
Q 13.234375 26.265625 9.515625 29.90625 
Q 5.8125 33.546875 5.8125 39.890625 
Q 5.8125 47.609375 11.28125 51.796875 
Q 16.75 56 26.8125 56 
Q 31.78125 56 36.171875 55.265625 
Q 40.578125 54.546875 44.28125 53.078125 
z
" id="DejaVuSans-115"/>
      <path d="M 18.3125 70.21875 
L 18.3125 54.6875 
L 36.8125 54.6875 
L 36.8125 47.703125 
L 18.3125 47.703125 
L 18.3125 18.015625 
Q 18.3125 11.328125 20.140625 9.421875 
Q 21.96875 7.515625 27.59375 7.515625 
L 36.8125 7.515625 
L 36.8125 0 
L 27.59375 0 
Q 17.1875 0 13.234375 3.875 
Q 9.28125 7.765625 9.28125 18.015625 
L 9.28125 47.703125 
L 2.6875 47.703125 
L 2.6875 54.6875 
L 9.28125 54.6875 
L 9.28125 70.21875 
z
" id="DejaVuSans-116"/>
      <path d="M 56.203125 29.59375 
L 56.203125 25.203125 
L 14.890625 25.203125 
Q 15.484375 15.921875 20.484375 11.0625 
Q 25.484375 6.203125 34.421875 6.203125 
Q 39.59375 6.203125 44.453125 7.46875 
Q 49.3125 8.734375 54.109375 11.28125 
L 54.109375 2.78125 
Q 49.265625 0.734375 44.1875 -0.34375 
Q 39.109375 -1.421875 33.890625 -1.421875 
Q 20.796875 -1.421875 13.15625 6.1875 
Q 5.515625 13.8125 5.515625 26.8125 
Q 5.515625 40.234375 12.765625 48.109375 
Q 20.015625 56 32.328125 56 
Q 43.359375 56 49.78125 48.890625 
Q 56.203125 41.796875 56.203125 29.59375 
z
M 47.21875 32.234375 
Q 47.125 39.59375 43.09375 43.984375 
Q 39.0625 48.390625 32.421875 48.390625 
Q 24.90625 48.390625 20.390625 44.140625 
Q 15.875 39.890625 15.1875 32.171875 
z
" id="DejaVuSans-101"/>
      <path d="M 18.109375 8.203125 
L 18.109375 -20.796875 
L 9.078125 -20.796875 
L 9.078125 54.6875 
L 18.109375 54.6875 
L 18.109375 46.390625 
Q 20.953125 51.265625 25.265625 53.625 
Q 29.59375 56 35.59375 56 
Q 45.5625 56 51.78125 48.09375 
Q 58.015625 40.1875 58.015625 27.296875 
Q 58.015625 14.40625 51.78125 6.484375 
Q 45.5625 -1.421875 35.59375 -1.421875 
Q 29.59375 -1.421875 25.265625 0.953125 
Q 20.953125 3.328125 18.109375 8.203125 
z
M 48.6875 27.296875 
Q 48.6875 37.203125 44.609375 42.84375 
Q 40.53125 48.484375 33.40625 48.484375 
Q 26.265625 48.484375 22.1875 42.84375 
Q 18.109375 37.203125 18.109375 27.296875 
Q 18.109375 17.390625 22.1875 11.75 
Q 26.265625 6.109375 33.40625 6.109375 
Q 40.53125 6.109375 44.609375 11.75 
Q 48.6875 17.390625 48.6875 27.296875 
z
" id="DejaVuSans-112"/>
      <path id="DejaVuSans-32"/>
      <path d="M 10.6875 12.40625 
L 21 12.40625 
L 21 0 
L 10.6875 0 
z
" id="DejaVuSans-46"/>
      <path d="M 34.28125 27.484375 
Q 23.390625 27.484375 19.1875 25 
Q 14.984375 22.515625 14.984375 16.5 
Q 14.984375 11.71875 18.140625 8.90625 
Q 21.296875 6.109375 26.703125 6.109375 
Q 34.1875 6.109375 38.703125 11.40625 
Q 43.21875 16.703125 43.21875 25.484375 
L 43.21875 27.484375 
z
M 52.203125 31.203125 
L 52.203125 0 
L 43.21875 0 
L 43.21875 8.296875 
Q 40.140625 3.328125 35.546875 0.953125 
Q 30.953125 -1.421875 24.3125 -1.421875 
Q 15.921875 -1.421875 10.953125 3.296875 
Q 6 8.015625 6 15.921875 
Q 6 25.140625 12.171875 29.828125 
Q 18.359375 34.515625 30.609375 34.515625 
L 43.21875 34.515625 
L 43.21875 35.40625 
Q 43.21875 41.609375 39.140625 45 
Q 35.0625 48.390625 27.6875 48.390625 
Q 23 48.390625 18.546875 47.265625 
Q 14.109375 46.140625 10.015625 43.890625 
L 10.015625 52.203125 
Q 14.9375 54.109375 19.578125 55.046875 
Q 24.21875 56 28.609375 56 
Q 40.484375 56 46.34375 49.84375 
Q 52.203125 43.703125 52.203125 31.203125 
z
" id="DejaVuSans-97"/>
      <path d="M 30.609375 48.390625 
Q 23.390625 48.390625 19.1875 42.75 
Q 14.984375 37.109375 14.984375 27.296875 
Q 14.984375 17.484375 19.15625 11.84375 
Q 23.34375 6.203125 30.609375 6.203125 
Q 37.796875 6.203125 41.984375 11.859375 
Q 46.1875 17.53125 46.1875 27.296875 
Q 46.1875 37.015625 41.984375 42.703125 
Q 37.796875 48.390625 30.609375 48.390625 
z
M 30.609375 56 
Q 42.328125 56 49.015625 48.375 
Q 55.71875 40.765625 55.71875 27.296875 
Q 55.71875 13.875 49.015625 6.21875 
Q 42.328125 -1.421875 30.609375 -1.421875 
Q 18.84375 -1.421875 12.171875 6.21875 
Q 5.515625 13.875 5.515625 27.296875 
Q 5.515625 40.765625 12.171875 48.375 
Q 18.84375 56 30.609375 56 
z
" id="DejaVuSans-111"/>
      <path d="M 41.109375 46.296875 
Q 39.59375 47.171875 37.8125 47.578125 
Q 36.03125 48 33.890625 48 
Q 26.265625 48 22.1875 43.046875 
Q 18.109375 38.09375 18.109375 28.8125 
L 18.109375 0 
L 9.078125 0 
L 9.078125 54.6875 
L 18.109375 54.6875 
L 18.109375 46.1875 
Q 20.953125 51.171875 25.484375 53.578125 
Q 30.03125 56 36.53125 56 
Q 37.453125 56 38.578125 55.875 
Q 39.703125 55.765625 41.0625 55.515625 
z
" id="DejaVuSans-114"/>
     </defs>
     <g transform="translate(171.682656 335.860562)scale(0.1 -0.1)">
      <use xlink:href="#DejaVuSans-115"/>
      <use x="52.099609" xlink:href="#DejaVuSans-116"/>
      <use x="91.308594" xlink:href="#DejaVuSans-101"/>
      <use x="152.832031" xlink:href="#DejaVuSans-112"/>
      <use x="216.308594" xlink:href="#DejaVuSans-115"/>
      <use x="268.408203" xlink:href="#DejaVuSans-32"/>
      <use x="300.195312" xlink:href="#DejaVuSans-48"/>
      <use x="363.818359" xlink:href="#DejaVuSans-46"/>
      <use x="395.605469" xlink:href="#DejaVuSans-48"/>
      <use x="459.228516" xlink:href="#DejaVuSans-48"/>
      <use x="522.851562" xlink:href="#DejaVuSans-48"/>
      <use x="586.474609" xlink:href="#DejaVuSans-49"/>
      <use x="650.097656" xlink:href="#DejaVuSans-32"/>
      <use x="681.884766" xlink:href="#DejaVuSans-116"/>
      <use x="721.09375" xlink:href="#DejaVuSans-97"/>
      <use x="782.373047" xlink:href="#DejaVuSans-111"/>
      <use x="843.554688" xlink:href="#DejaVuSans-32"/>
      <use x="875.341797" xlink:href="#DejaVuSans-112"/>
      <use x="938.818359" xlink:href="#DejaVuSans-101"/>
      <use x="1000.341797" xlink:href="#DejaVuSans-114"/>
      <use x="1041.455078" xlink:href="#DejaVuSans-32"/>
      <use x="1073.242188" xlink:href="#DejaVuSans-115"/>
      <use x="1125.341797" xlink:href="#DejaVuSans-116"/>
      <use x="1164.550781" xlink:href="#DejaVuSans-101"/>
      <use x="1226.074219" xlink:href="#DejaVuSans-112"/>
     </g>
    </g>
   </g>
   <g id="matplotlib.axis_2">
    <g id="ytick_1">
     <g id="line2d_7">
      <defs>
       <path d="M 0 0 
L -3.5 0 
" id="mae4e5b0428" style="stroke:#000000;stroke-width:0.8;"/>
      </defs>
      <g>
       <use style="stroke:#000000;stroke-width:0.8;" x="57.6" xlink:href="#mae4e5b0428" y="278.790358"/>
      </g>
     </g>
     <g id="text_8">
      <!-- −200 -->
      <defs>
       <path d="M 10.59375 35.5 
L 73.1875 35.5 
L 73.1875 27.203125 
L 10.59375 27.203125 
z
" id="DejaVuSans-8722"/>
      </defs>
      <g transform="translate(23.132812 282.589576)scale(0.1 -0.1)">
       <use xlink:href="#DejaVuSans-8722"/>
       <use x="83.789062" xlink:href="#DejaVuSans-50"/>
       <use x="147.412109" xlink:href="#DejaVuSans-48"/>
       <use x="211.035156" xlink:href="#DejaVuSans-48"/>
      </g>
     </g>
    </g>
    <g id="ytick_2">
     <g id="line2d_8">
      <g>
       <use style="stroke:#000000;stroke-width:0.8;" x="57.6" xlink:href="#mae4e5b0428" y="239.891171"/>
      </g>
     </g>
     <g id="text_9">
      <!-- −150 -->
      <g transform="translate(23.132812 243.69039)scale(0.1 -0.1)">
       <use xlink:href="#DejaVuSans-8722"/>
       <use x="83.789062" xlink:href="#DejaVuSans-49"/>
       <use x="147.412109" xlink:href="#DejaVuSans-53"/>
       <use x="211.035156" xlink:href="#DejaVuSans-48"/>
      </g>
     </g>
    </g>
    <g id="ytick_3">
     <g id="line2d_9">
      <g>
       <use style="stroke:#000000;stroke-width:0.8;" x="57.6" xlink:href="#mae4e5b0428" y="200.991985"/>
      </g>
     </g>
     <g id="text_10">
      <!-- −100 -->
      <g transform="translate(23.132812 204.791203)scale(0.1 -0.1)">
       <use xlink:href="#DejaVuSans-8722"/>
       <use x="83.789062" xlink:href="#DejaVuSans-49"/>
       <use x="147.412109" xlink:href="#DejaVuSans-48"/>
       <use x="211.035156" xlink:href="#DejaVuSans-48"/>
      </g>
     </g>
    </g>
    <g id="ytick_4">
     <g id="line2d_10">
      <g>
       <use style="stroke:#000000;stroke-width:0.8;" x="57.6" xlink:href="#mae4e5b0428" y="162.092798"/>
      </g>
     </g>
     <g id="text_11">
      <!-- −50 -->
      <g transform="translate(29.495313 165.892017)scale(0.1 -0.1)">
       <use xlink:href="#DejaVuSans-8722"/>
       <use x="83.789062" xlink:href="#DejaVuSans-53"/>
       <use x="147.412109" xlink:href="#DejaVuSans-48"/>
      </g>
     </g>
    </g>
    <g id="ytick_5">
     <g id="line2d_11">
      <g>
       <use style="stroke:#000000;stroke-width:0.8;" x="57.6" xlink:href="#mae4e5b0428" y="123.193612"/>
      </g>
     </g>
     <g id="text_12">
      <!-- 0 -->
      <g transform="translate(44.2375 126.99283)scale(0.1 -0.1)">
       <use xlink:href="#DejaVuSans-48"/>
      </g>
     </g>
    </g>
    <g id="ytick_6">
     <g id="line2d_12">
      <g>
       <use style="stroke:#000000;stroke-width:0.8;" x="57.6" xlink:href="#mae4e5b0428" y="84.294425"/>
      </g>
     </g>
     <g id="text_13">
      <!-- 50 -->
      <g transform="translate(37.875 88.093644)scale(0.1 -0.1)">
       <use xlink:href="#DejaVuSans-53"/>
       <use x="63.623047" xlink:href="#DejaVuSans-48"/>
      </g>
     </g>
    </g>
    <g id="ytick_7">
     <g id="line2d_13">
      <g>
       <use style="stroke:#000000;stroke-width:0.8;" x="57.6" xlink:href="#mae4e5b0428" y="45.395239"/>
      </g>
     </g>
     <g id="text_14">
      <!-- 100 -->
      <g transform="translate(31.5125 49.194457)scale(0.1 -0.1)">
       <use xlink:href="#DejaVuSans-49"/>
       <use x="63.623047" xlink:href="#DejaVuSans-48"/>
       <use x="127.246094" xlink:href="#DejaVuSans-48"/>
      </g>
     </g>
    </g>
    <g id="text_15">
     <!-- energy emma=118.7K*kb -->
     <defs>
      <path d="M 54.890625 33.015625 
L 54.890625 0 
L 45.90625 0 
L 45.90625 32.71875 
Q 45.90625 40.484375 42.875 44.328125 
Q 39.84375 48.1875 33.796875 48.1875 
Q 26.515625 48.1875 22.3125 43.546875 
Q 18.109375 38.921875 18.109375 30.90625 
L 18.109375 0 
L 9.078125 0 
L 9.078125 54.6875 
L 18.109375 54.6875 
L 18.109375 46.1875 
Q 21.34375 51.125 25.703125 53.5625 
Q 30.078125 56 35.796875 56 
Q 45.21875 56 50.046875 50.171875 
Q 54.890625 44.34375 54.890625 33.015625 
z
" id="DejaVuSans-110"/>
      <path d="M 45.40625 27.984375 
Q 45.40625 37.75 41.375 43.109375 
Q 37.359375 48.484375 30.078125 48.484375 
Q 22.859375 48.484375 18.828125 43.109375 
Q 14.796875 37.75 14.796875 27.984375 
Q 14.796875 18.265625 18.828125 12.890625 
Q 22.859375 7.515625 30.078125 7.515625 
Q 37.359375 7.515625 41.375 12.890625 
Q 45.40625 18.265625 45.40625 27.984375 
z
M 54.390625 6.78125 
Q 54.390625 -7.171875 48.1875 -13.984375 
Q 42 -20.796875 29.203125 -20.796875 
Q 24.46875 -20.796875 20.265625 -20.09375 
Q 16.0625 -19.390625 12.109375 -17.921875 
L 12.109375 -9.1875 
Q 16.0625 -11.328125 19.921875 -12.34375 
Q 23.78125 -13.375 27.78125 -13.375 
Q 36.625 -13.375 41.015625 -8.765625 
Q 45.40625 -4.15625 45.40625 5.171875 
L 45.40625 9.625 
Q 42.625 4.78125 38.28125 2.390625 
Q 33.9375 0 27.875 0 
Q 17.828125 0 11.671875 7.65625 
Q 5.515625 15.328125 5.515625 27.984375 
Q 5.515625 40.671875 11.671875 48.328125 
Q 17.828125 56 27.875 56 
Q 33.9375 56 38.28125 53.609375 
Q 42.625 51.21875 45.40625 46.390625 
L 45.40625 54.6875 
L 54.390625 54.6875 
z
" id="DejaVuSans-103"/>
      <path d="M 32.171875 -5.078125 
Q 28.375 -14.84375 24.75 -17.8125 
Q 21.140625 -20.796875 15.09375 -20.796875 
L 7.90625 -20.796875 
L 7.90625 -13.28125 
L 13.1875 -13.28125 
Q 16.890625 -13.28125 18.9375 -11.515625 
Q 21 -9.765625 23.484375 -3.21875 
L 25.09375 0.875 
L 2.984375 54.6875 
L 12.5 54.6875 
L 29.59375 11.921875 
L 46.6875 54.6875 
L 56.203125 54.6875 
z
" id="DejaVuSans-121"/>
      <path d="M 52 44.1875 
Q 55.375 50.25 60.0625 53.125 
Q 64.75 56 71.09375 56 
Q 79.640625 56 84.28125 50.015625 
Q 88.921875 44.046875 88.921875 33.015625 
L 88.921875 0 
L 79.890625 0 
L 79.890625 32.71875 
Q 79.890625 40.578125 77.09375 44.375 
Q 74.3125 48.1875 68.609375 48.1875 
Q 61.625 48.1875 57.5625 43.546875 
Q 53.515625 38.921875 53.515625 30.90625 
L 53.515625 0 
L 44.484375 0 
L 44.484375 32.71875 
Q 44.484375 40.625 41.703125 44.40625 
Q 38.921875 48.1875 33.109375 48.1875 
Q 26.21875 48.1875 22.15625 43.53125 
Q 18.109375 38.875 18.109375 30.90625 
L 18.109375 0 
L 9.078125 0 
L 9.078125 54.6875 
L 18.109375 54.6875 
L 18.109375 46.1875 
Q 21.1875 51.21875 25.484375 53.609375 
Q 29.78125 56 35.6875 56 
Q 41.65625 56 45.828125 52.96875 
Q 50 49.953125 52 44.1875 
z
" id="DejaVuSans-109"/>
      <path d="M 10.59375 45.40625 
L 73.1875 45.40625 
L 73.1875 37.203125 
L 10.59375 37.203125 
z
M 10.59375 25.484375 
L 73.1875 25.484375 
L 73.1875 17.1875 
L 10.59375 17.1875 
z
" id="DejaVuSans-61"/>
      <path d="M 31.78125 34.625 
Q 24.75 34.625 20.71875 30.859375 
Q 16.703125 27.09375 16.703125 20.515625 
Q 16.703125 13.921875 20.71875 10.15625 
Q 24.75 6.390625 31.78125 6.390625 
Q 38.8125 6.390625 42.859375 10.171875 
Q 46.921875 13.96875 46.921875 20.515625 
Q 46.921875 27.09375 42.890625 30.859375 
Q 38.875 34.625 31.78125 34.625 
z
M 21.921875 38.8125 
Q 15.578125 40.375 12.03125 44.71875 
Q 8.5 49.078125 8.5 55.328125 
Q 8.5 64.0625 14.71875 69.140625 
Q 20.953125 74.21875 31.78125 74.21875 
Q 42.671875 74.21875 48.875 69.140625 
Q 55.078125 64.0625 55.078125 55.328125 
Q 55.078125 49.078125 51.53125 44.71875 
Q 48 40.375 41.703125 38.8125 
Q 48.828125 37.15625 52.796875 32.3125 
Q 56.78125 27.484375 56.78125 20.515625 
Q 56.78125 9.90625 50.3125 4.234375 
Q 43.84375 -1.421875 31.78125 -1.421875 
Q 19.734375 -1.421875 13.25 4.234375 
Q 6.78125 9.90625 6.78125 20.515625 
Q 6.78125 27.484375 10.78125 32.3125 
Q 14.796875 37.15625 21.921875 38.8125 
z
M 18.3125 54.390625 
Q 18.3125 48.734375 21.84375 45.5625 
Q 25.390625 42.390625 31.78125 42.390625 
Q 38.140625 42.390625 41.71875 45.5625 
Q 45.3125 48.734375 45.3125 54.390625 
Q 45.3125 60.0625 41.71875 63.234375 
Q 38.140625 66.40625 31.78125 66.40625 
Q 25.390625 66.40625 21.84375 63.234375 
Q 18.3125 60.0625 18.3125 54.390625 
z
" id="DejaVuSans-56"/>
      <path d="M 8.203125 72.90625 
L 55.078125 72.90625 
L 55.078125 68.703125 
L 28.609375 0 
L 18.3125 0 
L 43.21875 64.59375 
L 8.203125 64.59375 
z
" id="DejaVuSans-55"/>
      <path d="M 9.8125 72.90625 
L 19.671875 72.90625 
L 19.671875 42.09375 
L 52.390625 72.90625 
L 65.09375 72.90625 
L 28.90625 38.921875 
L 67.671875 0 
L 54.6875 0 
L 19.671875 35.109375 
L 19.671875 0 
L 9.8125 0 
z
" id="DejaVuSans-75"/>
      <path d="M 47.015625 60.890625 
L 29.5 51.421875 
L 47.015625 41.890625 
L 44.1875 37.109375 
L 27.78125 47.015625 
L 27.78125 28.609375 
L 22.21875 28.609375 
L 22.21875 47.015625 
L 5.8125 37.109375 
L 2.984375 41.890625 
L 20.515625 51.421875 
L 2.984375 60.890625 
L 5.8125 65.71875 
L 22.21875 55.8125 
L 22.21875 74.21875 
L 27.78125 74.21875 
L 27.78125 55.8125 
L 44.1875 65.71875 
z
" id="DejaVuSans-42"/>
      <path d="M 9.078125 75.984375 
L 18.109375 75.984375 
L 18.109375 31.109375 
L 44.921875 54.6875 
L 56.390625 54.6875 
L 27.390625 29.109375 
L 57.625 0 
L 45.90625 0 
L 18.109375 26.703125 
L 18.109375 0 
L 9.078125 0 
z
" id="DejaVuSans-107"/>
      <path d="M 48.6875 27.296875 
Q 48.6875 37.203125 44.609375 42.84375 
Q 40.53125 48.484375 33.40625 48.484375 
Q 26.265625 48.484375 22.1875 42.84375 
Q 18.109375 37.203125 18.109375 27.296875 
Q 18.109375 17.390625 22.1875 11.75 
Q 26.265625 6.109375 33.40625 6.109375 
Q 40.53125 6.109375 44.609375 11.75 
Q 48.6875 17.390625 48.6875 27.296875 
z
M 18.109375 46.390625 
Q 20.953125 51.265625 25.265625 53.625 
Q 29.59375 56 35.59375 56 
Q 45.5625 56 51.78125 48.09375 
Q 58.015625 40.1875 58.015625 27.296875 
Q 58.015625 14.40625 51.78125 6.484375 
Q 45.5625 -1.421875 35.59375 -1.421875 
Q 29.59375 -1.421875 25.265625 0.953125 
Q 20.953125 3.328125 18.109375 8.203125 
L 18.109375 0 
L 9.078125 0 
L 9.078125 75.984375 
L 18.109375 75.984375 
z
" id="DejaVuSans-98"/>
     </defs>
     <g transform="translate(17.053125 239.774094)rotate(-90)scale(0.1 -0.1)">
      <use xlink:href="#DejaVuSans-101"/>
      <use x="61.523438" xlink:href="#DejaVuSans-110"/>
      <use x="124.902344" xlink:href="#DejaVuSans-101"/>
      <use x="186.425781" xlink:href="#DejaVuSans-114"/>
      <use x="225.789062" xlink:href="#DejaVuSans-103"/>
      <use x="289.265625" xlink:href="#DejaVuSans-121"/>
      <use x="348.445312" xlink:href="#DejaVuSans-32"/>
      <use x="380.232422" xlink:href="#DejaVuSans-101"/>
      <use x="441.755859" xlink:href="#DejaVuSans-109"/>
      <use x="539.167969" xlink:href="#DejaVuSans-109"/>
      <use x="636.580078" xlink:href="#DejaVuSans-97"/>
      <use x="697.859375" xlink:href="#DejaVuSans-61"/>
      <use x="781.648438" xlink:href="#DejaVuSans-49"/>
      <use x="845.271484" xlink:href="#DejaVuSans-49"/>
      <use x="908.894531" xlink:href="#DejaVuSans-56"/>
      <use x="972.517578" xlink:href="#DejaVuSans-46"/>
      <use x="1004.304688" xlink:href="#DejaVuSans-55"/>
      <use x="1067.927734" xlink:href="#DejaVuSans-75"/>
      <use x="1133.503906" xlink:href="#DejaVuSans-42"/>
      <use x="1183.503906" xlink:href="#DejaVuSans-107"/>
      <use x="1241.414062" xlink:href="#DejaVuSans-98"/>
     </g>
    </g>
   </g>
   <g id="line2d_14">
    <path clip-path="url(#pcdfea64cdf)" d="M 73.832727 122.845364 
L 74.483338 120.152967 
L 75.133948 115.216705 
L 76.435169 101.392959 
L 78.386999 78.888268 
L 79.68822 66.465367 
L 80.33883 61.701758 
L 80.989441 58.058082 
L 81.640051 55.540699 
L 82.290661 54.082412 
L 82.941272 53.568 
L 83.591882 53.859433 
L 84.242492 54.815116 
L 84.893103 56.301954 
L 86.194323 60.411711 
L 88.146154 68.122982 
L 92.049816 84.175102 
L 94.001647 91.222378 
L 95.953478 97.273904 
L 97.254698 100.712964 
L 98.555919 103.664868 
L 99.85714 106.127176 
L 101.15836 108.100138 
L 102.459581 109.58519 
L 103.760802 110.584796 
L 105.062022 111.103736 
L 105.712633 111.185785 
L 106.363243 111.152135 
L 107.664463 110.750781 
L 108.965684 109.939459 
L 110.266905 108.788967 
L 114.170567 104.801528 
L 114.821177 104.374847 
L 115.471787 104.116241 
L 116.122398 104.058471 
L 116.773008 104.221687 
L 117.423618 104.604987 
L 118.724839 105.868533 
L 120.026059 107.123014 
L 120.67667 107.364564 
L 121.32728 107.127002 
L 121.97789 106.288605 
L 122.628501 104.803629 
L 123.279111 102.718935 
L 124.580332 97.333021 
L 126.532163 89.083574 
L 127.182773 86.914091 
L 127.833383 85.191524 
L 128.483993 83.972454 
L 129.134604 83.306406 
L 129.785214 83.246433 
L 130.435824 83.854577 
L 131.086435 85.196941 
L 131.737045 87.315809 
L 133.038266 93.449484 
L 133.688876 96.578466 
L 134.339486 98.6646 
L 134.990097 98.973957 
L 135.640707 97.466723 
L 136.941927 92.56112 
L 137.592538 91.337792 
L 138.243148 91.80324 
L 138.893758 94.037173 
L 139.544369 97.724342 
L 140.845589 106.533148 
L 141.4962 109.7815 
L 142.14681 111.308053 
L 142.79742 111.040355 
L 143.448031 109.448246 
L 144.749251 105.224137 
L 145.399862 103.755476 
L 146.050472 103.066091 
L 146.701082 103.15353 
L 147.351692 103.907786 
L 148.002303 105.181149 
L 149.303523 108.709372 
L 151.255354 114.542863 
L 151.905965 116.13079 
L 152.556575 117.346815 
L 153.207185 118.120478 
L 153.857796 118.437126 
L 154.508406 118.338882 
L 155.159016 117.907864 
L 156.460237 116.420404 
L 158.412068 113.542833 
L 160.363899 110.277367 
L 163.61695 104.516743 
L 164.267561 103.67749 
L 164.918171 103.13916 
L 165.568781 103.019462 
L 166.219392 103.438194 
L 166.870002 104.494099 
L 167.520612 106.227188 
L 168.821833 111.280569 
L 169.472443 113.944175 
L 170.123053 115.990257 
L 170.773664 116.845237 
L 171.424274 116.128593 
L 172.074884 113.809553 
L 172.725495 110.221965 
L 174.677326 97.509364 
L 175.327936 94.18689 
L 175.978546 91.737259 
L 176.629156 90.251495 
L 177.279767 89.79705 
L 177.930377 90.449348 
L 178.580987 92.262781 
L 179.231598 95.14685 
L 180.532818 101.860096 
L 181.183429 103.591688 
L 181.834039 103.190283 
L 183.13526 98.711062 
L 183.78587 97.496396 
L 184.43648 98.469027 
L 185.087091 101.830218 
L 186.388311 111.294106 
L 187.038921 113.183595 
L 187.689532 111.234198 
L 189.641363 97.142342 
L 190.291973 96.276047 
L 190.942583 98.169429 
L 191.593194 101.298056 
L 192.243804 103.252045 
L 192.894414 102.286261 
L 194.846245 92.056305 
L 195.496856 91.445193 
L 196.147466 92.657792 
L 197.448686 97.146269 
L 198.099297 98.560656 
L 198.749907 98.630456 
L 199.400517 97.340006 
L 200.051128 95.0592 
L 202.002959 87.122483 
L 202.653569 85.141978 
L 203.304179 83.655757 
L 203.95479 82.631525 
L 204.6054 82.007417 
L 205.25601 81.716083 
L 205.906621 81.697897 
L 206.557231 81.906437 
L 207.207841 82.308646 
L 207.858451 82.881263 
L 209.159672 84.455065 
L 211.762113 88.105726 
L 212.412724 88.654954 
L 213.063334 88.853787 
L 213.713944 88.623281 
L 214.364555 87.92688 
L 215.015165 86.783198 
L 216.316385 83.528777 
L 217.617606 80.172858 
L 218.268216 79.091543 
L 218.918827 78.826327 
L 219.569437 79.685962 
L 220.220047 81.854094 
L 222.171878 92.078626 
L 222.822489 93.019784 
L 223.473099 91.185154 
L 225.42493 78.789857 
L 226.07554 77.09172 
L 226.72615 77.68018 
L 227.376761 80.168855 
L 228.677981 87.070393 
L 229.328592 89.189315 
L 229.979202 89.233656 
L 230.629812 86.976376 
L 231.280423 82.795665 
L 233.232254 66.963482 
L 233.882864 63.094959 
L 234.533474 60.618665 
L 235.184085 59.592048 
L 235.834695 59.889414 
L 236.485305 61.234849 
L 238.437136 67.287433 
L 239.087746 68.537271 
L 239.738357 69.084802 
L 240.388967 69.256637 
L 241.039577 69.803153 
L 241.690188 71.741828 
L 242.340798 75.933926 
L 244.292629 94.4018 
L 244.943239 94.805393 
L 245.59385 91.088516 
L 246.24446 85.951921 
L 246.89507 81.962135 
L 247.54568 79.827995 
L 248.196291 78.591188 
L 248.846901 76.974315 
L 250.148122 72.768591 
L 250.798732 72.810645 
L 251.449342 76.076108 
L 252.099953 82.753636 
L 253.401173 98.923899 
L 254.051784 101.895134 
L 254.702394 99.256462 
L 256.003615 88.007596 
L 256.654225 85.393618 
L 257.304835 85.60853 
L 258.606056 89.168716 
L 259.256666 90.083983 
L 259.907276 89.830042 
L 260.557887 88.553759 
L 262.509718 82.623855 
L 263.160328 81.455913 
L 263.810938 81.172225 
L 264.461549 81.808379 
L 265.112159 83.280685 
L 265.762769 85.432438 
L 269.015821 98.175077 
L 269.666431 99.370512 
L 270.317041 99.7545 
L 270.967652 99.378953 
L 271.618262 98.404675 
L 273.570093 94.360609 
L 274.220703 93.466193 
L 274.871314 93.100874 
L 275.521924 93.329901 
L 276.172534 94.118249 
L 277.473755 96.746593 
L 278.774975 99.28648 
L 279.425586 100.127622 
L 280.076196 100.68747 
L 282.028027 101.962299 
L 282.678637 102.627098 
L 283.979858 104.49865 
L 285.931689 108.073008 
L 287.88352 111.514285 
L 289.18474 113.381137 
L 290.485961 114.815451 
L 291.787182 115.813131 
L 293.088402 116.407681 
L 294.389623 116.655948 
L 295.690844 116.62836 
L 296.992064 116.398622 
L 298.943895 115.810068 
L 302.196947 114.493221 
L 304.148778 113.79197 
L 306.100608 113.235542 
L 306.751219 112.912292 
L 307.401829 112.391874 
L 308.052439 111.59379 
L 308.70305 110.465438 
L 309.35366 109.0018 
L 310.654881 105.318391 
L 312.606712 99.664397 
L 313.257322 98.1864 
L 313.907932 96.989867 
L 315.209153 95.199066 
L 315.859763 94.321726 
L 316.510373 93.207644 
L 317.160984 91.701417 
L 317.811594 89.744612 
L 320.414035 80.358499 
L 321.064646 78.901478 
L 321.715256 78.302078 
L 322.365866 78.751155 
L 323.016477 80.384187 
L 323.667087 83.241759 
L 324.317697 87.202005 
L 326.269528 100.668891 
L 326.920138 102.893884 
L 327.570749 102.647743 
L 328.221359 99.714623 
L 328.871969 94.467204 
L 331.474411 68.339943 
L 332.125021 65.065084 
L 332.775631 64.905163 
L 333.426242 69.065571 
L 334.076852 78.567571 
L 335.378073 106.885571 
L 336.028683 113.078834 
L 336.679293 106.720078 
L 337.980514 76.6708 
L 338.631124 66.044725 
L 339.281734 60.893001 
L 339.932345 60.158893 
L 340.582955 62.468555 
L 341.233565 66.628017 
L 342.534786 76.460147 
L 343.185396 80.295644 
L 343.836007 82.40989 
L 344.486617 82.430186 
L 345.137227 80.422083 
L 345.787837 76.865797 
L 347.739668 64.506788 
L 348.390279 62.084083 
L 349.040889 61.182595 
L 349.691499 61.893246 
L 350.34211 64.103412 
L 350.99272 67.50257 
L 356.197602 101.060024 
L 356.848213 105.479862 
L 357.498823 108.478508 
L 358.149433 109.355479 
L 358.800044 108.210385 
L 360.751875 100.819389 
L 361.402485 99.145996 
L 362.053095 98.062921 
L 364.004926 95.790203 
L 365.956757 92.771468 
L 366.607367 92.16601 
L 367.257978 91.972139 
L 367.908588 92.191684 
L 368.559198 92.762463 
L 369.860419 94.585861 
L 373.113471 99.818127 
L 374.414691 101.513674 
L 375.715912 102.885884 
L 377.017132 103.914227 
L 378.318353 104.573736 
L 379.619574 104.836207 
L 380.920794 104.677433 
L 382.222015 104.086483 
L 383.523236 103.077374 
L 384.824456 101.704533 
L 389.378728 96.259765 
L 390.679949 95.3227 
L 391.98117 94.568474 
L 392.63178 94.083779 
L 393.28239 93.414239 
L 393.933001 92.496848 
L 394.583611 91.307415 
L 395.884831 88.227222 
L 398.487273 81.04662 
L 398.487273 81.04662 
" style="fill:none;stroke:#ff0000;stroke-linecap:square;stroke-width:1.5;"/>
   </g>
   <g id="line2d_15">
    <path clip-path="url(#pcdfea64cdf)" d="M 73.832727 226.029576 
L 74.483338 228.751828 
L 75.133948 233.733359 
L 76.435169 247.631223 
L 78.386999 270.18343 
L 79.68822 282.625069 
L 80.33883 287.390425 
L 80.989441 291.030014 
L 81.640051 293.538772 
L 82.290661 294.985782 
L 82.941272 295.488 
L 83.591882 295.184705 
L 84.242492 294.218219 
L 84.893103 292.721956 
L 86.194323 288.597548 
L 88.146154 280.87273 
L 92.049816 264.809972 
L 94.001647 257.761069 
L 95.953478 251.708893 
L 97.254698 248.269676 
L 98.555919 245.317724 
L 99.85714 242.855422 
L 101.15836 240.882489 
L 102.459581 239.397487 
L 103.760802 238.397971 
L 105.062022 237.879212 
L 105.712633 237.797313 
L 106.363243 237.831174 
L 107.664463 238.233215 
L 108.965684 239.045767 
L 110.266905 240.19832 
L 114.170567 244.199592 
L 114.821177 244.629419 
L 115.471787 244.890926 
L 116.122398 244.950915 
L 116.773008 244.788672 
L 117.423618 244.404453 
L 118.724839 243.131249 
L 120.026059 241.857293 
L 120.67667 241.605364 
L 121.32728 241.835191 
L 121.97789 242.670785 
L 122.628501 244.159073 
L 123.279111 246.252673 
L 124.580332 251.664396 
L 126.532163 259.942018 
L 127.182773 262.116257 
L 127.833383 263.842572 
L 128.483993 265.065407 
L 129.134604 265.736131 
L 129.785214 265.802328 
L 130.435824 265.202053 
L 131.086435 263.867917 
L 131.737045 261.753307 
L 133.038266 255.57891 
L 133.688876 252.394869 
L 134.339486 250.258231 
L 134.990097 249.945239 
L 135.640707 251.507375 
L 136.941927 256.553355 
L 137.592538 257.806749 
L 138.243148 257.343856 
L 138.893758 255.090068 
L 139.544369 251.361656 
L 140.845589 242.430968 
L 141.4962 239.139626 
L 142.14681 237.607971 
L 142.79742 237.906788 
L 143.448031 239.546538 
L 144.749251 243.836611 
L 145.399862 245.311195 
L 146.050472 245.994253 
L 146.701082 245.89487 
L 147.351692 245.127717 
L 148.002303 243.842801 
L 149.303523 240.296507 
L 151.255354 234.439026 
L 151.905965 232.844002 
L 152.556575 231.623353 
L 153.207185 230.848732 
L 153.857796 230.53486 
L 154.508406 230.638412 
L 155.159016 231.075426 
L 156.460237 232.571269 
L 158.412068 235.449891 
L 160.363899 238.714263 
L 163.61695 244.493154 
L 164.267561 245.340724 
L 164.918171 245.888848 
L 165.568781 246.01915 
L 166.219392 245.610427 
L 166.870002 244.561494 
L 167.520612 242.828788 
L 168.821833 237.741872 
L 169.472443 235.043916 
L 170.123053 232.961416 
L 170.773664 232.081748 
L 171.424274 232.796655 
L 172.074884 235.137876 
L 172.725495 238.761706 
L 174.677326 251.554483 
L 175.327936 254.883736 
L 175.978546 257.335914 
L 176.629156 258.82472 
L 177.279767 259.285562 
L 177.930377 258.641937 
L 178.580987 256.83157 
L 179.231598 253.929204 
L 180.532818 247.084102 
L 181.183429 245.304215 
L 181.834039 245.736153 
L 183.13526 250.407978 
L 183.78587 251.689233 
L 184.43648 250.737896 
L 185.087091 247.336659 
L 186.388311 237.602456 
L 187.038921 235.628862 
L 187.689532 237.642742 
L 189.641363 252.109392 
L 190.291973 252.968511 
L 190.942583 250.983152 
L 191.593194 247.693943 
L 192.243804 245.615874 
L 192.894414 246.613632 
L 194.846245 257.136848 
L 195.496856 257.71654 
L 196.147466 256.442941 
L 197.448686 251.82485 
L 198.099297 250.375934 
L 198.749907 250.304988 
L 199.400517 251.619868 
L 200.051128 253.93365 
L 202.002959 261.918474 
L 202.653569 263.897099 
L 203.304179 265.377855 
L 203.95479 266.395503 
L 204.6054 267.013383 
L 205.25601 267.299587 
L 205.906621 267.313978 
L 206.557231 267.102878 
L 207.207841 266.699019 
L 207.858451 266.125176 
L 209.159672 264.547819 
L 211.762113 260.874988 
L 212.412724 260.318751 
L 213.063334 260.114501 
L 213.713944 260.342457 
L 214.364555 261.040072 
L 215.015165 262.189105 
L 216.316385 265.466285 
L 217.617606 268.86066 
L 218.268216 269.967137 
L 218.918827 270.259377 
L 219.569437 269.422073 
L 220.220047 267.258114 
L 222.171878 256.836737 
L 222.822489 255.849485 
L 223.473099 257.724798 
L 225.42493 270.390177 
L 226.07554 272.100268 
L 226.72615 271.483558 
L 227.376761 268.937324 
L 228.677981 261.88558 
L 229.328592 259.713585 
L 229.979202 259.655059 
L 230.629812 261.938461 
L 231.280423 266.171243 
L 233.232254 282.139 
L 233.882864 286.021398 
L 234.533474 288.498336 
L 235.184085 289.515644 
L 235.834695 289.200992 
L 236.485305 287.831574 
L 238.437136 281.701653 
L 239.087746 280.448913 
L 239.738357 279.925273 
L 240.388967 279.807785 
L 241.039577 279.338337 
L 241.690188 277.474487 
L 242.340798 273.307929 
L 244.292629 254.402745 
L 244.943239 254.025837 
L 245.59385 257.935372 
L 246.24446 263.239608 
L 246.89507 267.257882 
L 247.54568 269.307681 
L 248.196291 270.444269 
L 248.846901 272.038278 
L 250.148122 276.431197 
L 250.798732 276.481369 
L 251.449342 273.247906 
L 252.099953 266.504606 
L 253.401173 249.917617 
L 254.051784 246.866846 
L 254.702394 249.674687 
L 256.003615 261.299351 
L 256.654225 263.885136 
L 257.304835 263.561781 
L 258.606056 259.82786 
L 259.256666 258.895723 
L 259.907276 259.157411 
L 260.557887 260.451192 
L 262.509718 266.449195 
L 263.160328 267.623722 
L 263.810938 267.903804 
L 264.461549 267.257882 
L 265.112159 265.77273 
L 265.762769 263.606317 
L 269.015821 250.78393 
L 269.666431 249.584168 
L 270.317041 249.203962 
L 270.967652 249.59048 
L 271.618262 250.580524 
L 273.570093 254.673042 
L 274.220703 255.577189 
L 274.871314 255.946699 
L 275.521924 255.715291 
L 276.172534 254.917689 
L 277.473755 252.25773 
L 278.774975 249.697342 
L 279.425586 248.857753 
L 280.076196 248.305128 
L 282.028027 247.04809 
L 282.678637 246.382536 
L 283.979858 244.503701 
L 285.931689 240.917898 
L 287.88352 237.471029 
L 289.18474 235.602904 
L 290.485961 234.16843 
L 291.787182 233.171262 
L 293.088402 232.577659 
L 294.389623 232.330628 
L 295.690844 232.359596 
L 296.992064 232.590669 
L 298.943895 233.180838 
L 302.196947 234.501942 
L 304.148778 235.206461 
L 306.100608 235.755859 
L 306.751219 236.073937 
L 307.401829 236.589304 
L 308.052439 237.384074 
L 308.70305 238.512239 
L 309.35366 239.97939 
L 310.654881 243.678101 
L 312.606712 249.35389 
L 313.257322 250.833852 
L 313.907932 252.028206 
L 315.209153 253.801468 
L 315.859763 254.666293 
L 316.510373 255.770059 
L 317.160984 257.272436 
L 317.811594 259.234283 
L 320.414035 268.689402 
L 321.064646 270.16324 
L 321.715256 270.777953 
L 322.365866 270.342028 
L 323.016477 268.717485 
L 323.667087 265.858988 
L 324.317697 261.882361 
L 326.269528 248.264092 
L 326.920138 245.991988 
L 327.570749 246.22369 
L 328.221359 249.181484 
L 328.871969 254.482583 
L 331.474411 280.834747 
L 332.125021 284.179323 
L 332.775631 284.441505 
L 333.426242 280.401807 
L 334.076852 270.944522 
L 335.378073 241.863667 
L 336.028683 235.317016 
L 336.679293 241.991906 
L 337.980514 272.846861 
L 338.631124 283.439484 
L 339.281734 288.465477 
L 339.932345 289.083141 
L 340.582955 286.68489 
L 341.233565 282.45443 
L 342.534786 272.498004 
L 343.185396 268.613951 
L 343.836007 266.473827 
L 344.486617 266.4581 
L 345.137227 268.499505 
L 345.787837 272.106793 
L 347.739668 284.598071 
L 348.390279 287.038848 
L 349.040889 287.945505 
L 349.691499 287.227758 
L 350.34211 284.998265 
L 350.99272 281.569487 
L 357.498823 240.42054 
L 358.149433 239.551201 
L 358.800044 240.749526 
L 360.751875 248.252144 
L 361.402485 249.917716 
L 362.053095 250.98118 
L 364.004926 253.212206 
L 365.956757 256.257519 
L 366.607367 256.86605 
L 367.257978 257.057178 
L 367.908588 256.831099 
L 368.559198 256.252367 
L 369.860419 254.415089 
L 373.113471 249.170671 
L 374.414691 247.474182 
L 375.715912 246.10124 
L 377.017132 245.072129 
L 378.318353 244.411864 
L 379.619574 244.148772 
L 380.920794 244.307213 
L 382.222015 244.898307 
L 383.523236 245.908303 
L 384.824456 247.283118 
L 389.378728 252.74179 
L 390.679949 253.67681 
L 392.63178 254.901547 
L 393.28239 255.567098 
L 393.933001 256.482948 
L 394.583611 257.673635 
L 395.884831 260.761678 
L 398.487273 267.950144 
L 398.487273 267.950144 
" style="fill:none;stroke:#0000ff;stroke-linecap:square;stroke-width:1.5;"/>
   </g>
   <g id="line2d_16">
    <path clip-path="url(#pcdfea64cdf)" d="M 73.832727 225.681329 
L 80.33883 225.898571 
L 112.869346 225.801568 
L 133.038266 225.834783 
L 134.990097 225.725584 
L 138.243148 225.953484 
L 140.845589 225.770505 
L 142.14681 225.722413 
L 146.701082 225.854788 
L 155.159016 225.789679 
L 169.472443 225.794479 
L 172.074884 225.753818 
L 175.978546 225.879561 
L 179.882208 225.828344 
L 181.183429 225.702292 
L 182.484649 225.826453 
L 184.43648 226.013311 
L 185.737701 225.857336 
L 187.038921 225.618845 
L 188.340142 225.843052 
L 189.641363 226.058123 
L 190.942583 225.95897 
L 192.243804 225.674307 
L 192.894414 225.706281 
L 194.195635 225.968181 
L 195.496856 225.968121 
L 198.749907 225.741833 
L 203.95479 225.833416 
L 216.966996 225.818648 
L 220.870658 225.886888 
L 222.822489 225.675658 
L 224.123709 225.820275 
L 225.42493 225.986422 
L 227.376761 225.912568 
L 229.979202 225.695103 
L 236.485305 225.872811 
L 239.738357 225.816463 
L 242.340798 226.048244 
L 243.642019 225.777601 
L 244.292629 225.610933 
L 244.943239 225.637618 
L 246.24446 225.997918 
L 246.89507 226.026405 
L 248.846901 225.818982 
L 251.449342 226.130401 
L 252.099953 226.064631 
L 254.051784 225.568368 
L 256.003615 226.113335 
L 257.304835 225.9767 
L 258.606056 225.802965 
L 261.208497 225.835488 
L 264.461549 225.87265 
L 272.268872 225.809203 
L 276.823144 225.827527 
L 281.377417 225.81405 
L 304.799388 225.804161 
L 320.414035 225.854289 
L 324.317697 225.890754 
L 328.221359 225.702496 
L 332.775631 226.153056 
L 334.076852 226.318481 
L 334.727462 226.094802 
L 335.378073 225.555626 
L 336.028683 225.202239 
L 336.679293 225.518372 
L 337.329903 226.071814 
L 337.980514 226.324049 
L 339.281734 226.164866 
L 341.233565 225.888835 
L 343.836007 225.690106 
L 345.787837 225.778979 
L 348.390279 225.92932 
L 351.64333 225.845373 
L 354.245772 225.852381 
L 356.197602 225.822381 
L 358.149433 225.713069 
L 361.402485 225.8701 
L 365.956757 225.835376 
L 379.619574 225.791368 
L 398.487273 225.803152 
L 398.487273 225.803152 
" style="fill:none;stroke:#ffa500;stroke-linecap:square;stroke-width:1.5;"/>
   </g>
   <g id="patch_3">
    <path d="M 57.6 307.584 
L 57.6 41.472 
" style="fill:none;stroke:#000000;stroke-linecap:square;stroke-linejoin:miter;stroke-width:0.8;"/>
   </g>
   <g id="patch_4">
    <path d="M 414.72 307.584 
L 414.72 41.472 
" style="fill:none;stroke:#000000;stroke-linecap:square;stroke-linejoin:miter;stroke-width:0.8;"/>
   </g>
   <g id="patch_5">
    <path d="M 57.6 307.584 
L 414.72 307.584 
" style="fill:none;stroke:#000000;stroke-linecap:square;stroke-linejoin:miter;stroke-width:0.8;"/>
   </g>
   <g id="patch_6">
    <path d="M 57.6 41.472 
L 414.72 41.472 
" style="fill:none;stroke:#000000;stroke-linecap:square;stroke-linejoin:miter;stroke-width:0.8;"/>
   </g>
   <g id="legend_1">
    <g id="patch_7">
     <path d="M 331.237188 198.045187 
L 407.72 198.045187 
Q 409.72 198.045187 409.72 196.045187 
L 409.72 153.010812 
Q 409.72 151.010812 407.72 151.010812 
L 331.237188 151.010812 
Q 329.237188 151.010812 329.237188 153.010812 
L 329.237188 196.045187 
Q 329.237188 198.045187 331.237188 198.045187 
z
" style="fill:#ffffff;opacity:0.8;stroke:#cccccc;stroke-linejoin:miter;"/>
    </g>
    <g id="line2d_17">
     <path d="M 333.237188 159.10925 
L 353.237188 159.10925 
" style="fill:none;stroke:#ff0000;stroke-linecap:square;stroke-width:1.5;"/>
    </g>
    <g id="line2d_18"/>
    <g id="text_16">
     <!-- kinetic -->
     <defs>
      <path d="M 9.421875 54.6875 
L 18.40625 54.6875 
L 18.40625 0 
L 9.421875 0 
z
M 9.421875 75.984375 
L 18.40625 75.984375 
L 18.40625 64.59375 
L 9.421875 64.59375 
z
" id="DejaVuSans-105"/>
      <path d="M 48.78125 52.59375 
L 48.78125 44.1875 
Q 44.96875 46.296875 41.140625 47.34375 
Q 37.3125 48.390625 33.40625 48.390625 
Q 24.65625 48.390625 19.8125 42.84375 
Q 14.984375 37.3125 14.984375 27.296875 
Q 14.984375 17.28125 19.8125 11.734375 
Q 24.65625 6.203125 33.40625 6.203125 
Q 37.3125 6.203125 41.140625 7.25 
Q 44.96875 8.296875 48.78125 10.40625 
L 48.78125 2.09375 
Q 45.015625 0.34375 40.984375 -0.53125 
Q 36.96875 -1.421875 32.421875 -1.421875 
Q 20.0625 -1.421875 12.78125 6.34375 
Q 5.515625 14.109375 5.515625 27.296875 
Q 5.515625 40.671875 12.859375 48.328125 
Q 20.21875 56 33.015625 56 
Q 37.15625 56 41.109375 55.140625 
Q 45.0625 54.296875 48.78125 52.59375 
z
" id="DejaVuSans-99"/>
     </defs>
     <g transform="translate(361.237188 162.60925)scale(0.1 -0.1)">
      <use xlink:href="#DejaVuSans-107"/>
      <use x="57.910156" xlink:href="#DejaVuSans-105"/>
      <use x="85.693359" xlink:href="#DejaVuSans-110"/>
      <use x="149.072266" xlink:href="#DejaVuSans-101"/>
      <use x="210.595703" xlink:href="#DejaVuSans-116"/>
      <use x="249.804688" xlink:href="#DejaVuSans-105"/>
      <use x="277.587891" xlink:href="#DejaVuSans-99"/>
     </g>
    </g>
    <g id="line2d_19">
     <path d="M 333.237188 173.787375 
L 353.237188 173.787375 
" style="fill:none;stroke:#0000ff;stroke-linecap:square;stroke-width:1.5;"/>
    </g>
    <g id="line2d_20"/>
    <g id="text_17">
     <!-- potential -->
     <defs>
      <path d="M 9.421875 75.984375 
L 18.40625 75.984375 
L 18.40625 0 
L 9.421875 0 
z
" id="DejaVuSans-108"/>
     </defs>
     <g transform="translate(361.237188 177.287375)scale(0.1 -0.1)">
      <use xlink:href="#DejaVuSans-112"/>
      <use x="63.476562" xlink:href="#DejaVuSans-111"/>
      <use x="124.658203" xlink:href="#DejaVuSans-116"/>
      <use x="163.867188" xlink:href="#DejaVuSans-101"/>
      <use x="225.390625" xlink:href="#DejaVuSans-110"/>
      <use x="288.769531" xlink:href="#DejaVuSans-116"/>
      <use x="327.978516" xlink:href="#DejaVuSans-105"/>
      <use x="355.761719" xlink:href="#DejaVuSans-97"/>
      <use x="417.041016" xlink:href="#DejaVuSans-108"/>
     </g>
    </g>
    <g id="line2d_21">
     <path d="M 333.237188 188.4655 
L 353.237188 188.4655 
" style="fill:none;stroke:#ffa500;stroke-linecap:square;stroke-width:1.5;"/>
    </g>
    <g id="line2d_22"/>
    <g id="text_18">
     <!-- energy -->
     <g transform="translate(361.237188 191.9655)scale(0.1 -0.1)">
      <use xlink:href="#DejaVuSans-101"/>
      <use x="61.523438" xlink:href="#DejaVuSans-110"/>
      <use x="124.902344" xlink:href="#DejaVuSans-101"/>
      <use x="186.425781" xlink:href="#DejaVuSans-114"/>
      <use x="225.789062" xlink:href="#DejaVuSans-103"/>
      <use x="289.265625" xlink:href="#DejaVuSans-121"/>
     </g>
    </g>
   </g>
  </g>
 </g>
 <defs>
  <clipPath id="pcdfea64cdf">
   <rect height="266.112" width="357.12" x="57.6" y="41.472"/>
  </clipPath>
 </defs>
</svg>
